<?xml version="1.0" standalone="no"?>
<!DOCTYPE svg PUBLIC "-//W3C//DTD SVG 1.1//EN" "http://www.w3.org/Graphics/SVG/1.1/DTD/svg11.dtd" >
<svg xmlns="http://www.w3.org/2000/svg" xmlns:xlink="http://www.w3.org/1999/xlink" version="1.1">
<metadata>
Created by FontForge 20201107 at Tue Dec 15 05:41:24 2020
 By Jimmy Wärting
COPYRIGHT BY GANGWON PROVINCIAL OFFICE OF EDUCATION. ALL RIGHTS RESERVED.
</metadata>
<defs>
<font id="GangwonEduPowerExtraBold" horiz-adv-x="900" >
  <font-face 
    font-family="GangwonEduPower"
    font-weight="400"
    font-stretch="normal"
    units-per-em="1000"
    panose-1="2 2 6 3 2 1 1 2 1 1"
    ascent="800"
    descent="-200"
    x-height="586"
    cap-height="778"
    bbox="-34 -159.621 989 887"
    underline-thickness="25"
    underline-position="-157"
    unicode-range="U+0020-FFE6"
  />
<missing-glyph horiz-adv-x="1000" 
d="M100 -45v800h800v-800h-800zM150 5h700v700h-700v-700z" />
    <glyph glyph-name=".notdef" horiz-adv-x="1000" 
d="M100 -45v800h800v-800h-800zM150 5h700v700h-700v-700z" />
    <glyph glyph-name="glyph1" horiz-adv-x="0" 
 />
    <glyph glyph-name="glyph2" horiz-adv-x="1000" 
 />
    <glyph glyph-name="space" unicode=" " horiz-adv-x="250" 
 />
    <glyph glyph-name="exclam" unicode="!" horiz-adv-x="320" 
d="M73 796h175v-493h-175v493zM72 214h175v-196h-175v196z" />
    <glyph glyph-name="quotedbl" unicode="&#x22;" horiz-adv-x="381" 
d="M339 548h-120l-5 277h135v-100zM155 548h-120l-5 277h135v-100z" />
    <glyph glyph-name="numbersign" unicode="#" horiz-adv-x="773" 
d="M732 508h-112l-11 -172h111v-165h-122l-9 -153h-169l9 153h-122l-9 -153h-168l10 153h-100v165h110l11 172h-107v165h118l8 122h165l-8 -122h124l8 122h169l-8 -122h102v-165zM451 508h-124l-10 -172h123z" />
    <glyph glyph-name="dollar" unicode="$" horiz-adv-x="625" 
d="M429 59q-3 -1 -6.5 -2t-6.5 -1l-6 -2t-6 -1v-66h-180v68q-9 1 -17 3t-15 5q-18 5 -40 15.5t-44 25.5q-23 14 -43.5 32t-34.5 38l107 123q66 -48 115.5 -64.5t92.5 -15.5q15 0 26.5 9t16.5 22q4 13 0 26.5t-20 22.5l-38 19l-38 19q-20 9 -43.5 21t-52.5 30
q-44 25 -71 58.5t-39 69.5t-9.5 72.5t17.5 68.5q20 41 53 66t77 37v67h180v-62q51 -12 94.5 -37.5t76.5 -64.5l-105 -124q-31 27 -77.5 46.5t-79.5 17.5q-27 -2 -34.5 -18.5t1.5 -31.5q6 -12 29.5 -31t86.5 -49q86 -42 131.5 -92.5t53.5 -99.5q12 -84 -27 -140t-125 -80z
" />
    <glyph glyph-name="percent" unicode="%" horiz-adv-x="820" 
d="M584 805l133 -85l-478 -719l-134 95zM378 612q0 -37 -14.5 -70t-39.5 -58q-25 -24 -58 -38.5t-69 -14.5q-37 0 -70 14.5t-58 38.5q-24 25 -38.5 58t-14.5 70q0 36 14.5 69t38.5 58q25 25 58 39.5t70 14.5q36 0 69 -14.5t58 -39.5t39.5 -58t14.5 -69zM243 612
q0 17 -14.5 31.5t-31.5 14.5q-18 0 -32 -14.5t-14 -31.5q0 -18 14 -32t32 -14q17 0 31.5 14t14.5 32zM809 191q0 -37 -14.5 -70t-39.5 -58q-25 -24 -58 -38.5t-69 -14.5q-37 0 -70 14.5t-58 38.5q-24 25 -38.5 58t-14.5 70q0 36 14.5 69t38.5 58q25 25 58 39.5t70 14.5
q36 0 69 -14.5t58 -39.5t39.5 -58t14.5 -69zM674 191q0 17 -14.5 31.5t-31.5 14.5q-18 0 -32 -14.5t-14 -31.5q0 -18 14 -32t32 -14q17 0 31.5 14t14.5 32z" />
    <glyph glyph-name="ampersand" unicode="&#x26;" horiz-adv-x="684" 
d="M309 504q33 16 52.5 39.5t19.5 50.5q0 30 -21 45t-48 12q-33 -4 -50 -26t-6 -51q6 -18 18.5 -34.5t34.5 -35.5zM267 310q-30 -16 -40 -42t-2 -47q7 -24 24.5 -36.5t45.5 -14.5q25 -3 45.5 5.5t35.5 27.5zM411 396l73 -69l63 82l129 -94l-77 -96l98 -92l-121 -120l-82 78
q-36 -38 -88 -58.5t-114 -23.5q-89 -4 -150 36.5t-88 100.5q-16 33 -19 73t9 80q12 39 40 74.5t73 60.5q-54 50 -69 106.5t-1 104.5q18 69 69.5 109.5t138.5 49.5q34 3 69.5 -3t67.5 -22q31 -16 56.5 -40.5t39.5 -57.5q30 -69 7 -141t-124 -138z" />
    <glyph glyph-name="quotesingle" unicode="'" horiz-adv-x="213" 
d="M169 548h-131l-5 277h146v-94z" />
    <glyph glyph-name="parenleft" unicode="(" horiz-adv-x="375" 
d="M55 407q0 123 32.5 233t100.5 194l150 -56q-56 -81 -84.5 -178.5t-28.5 -192.5q0 -96 26.5 -185t86.5 -186l-150 -56q-68 83 -100.5 193t-32.5 234z" />
    <glyph glyph-name="parenright" unicode=")" horiz-adv-x="375" 
d="M324 407q0 -124 -33 -234t-100 -193l-150 56q59 97 86 186t27 185q0 95 -29 192.5t-84 178.5l150 56q67 -84 100 -194t33 -233z" />
    <glyph glyph-name="asterisk" unicode="*" horiz-adv-x="489" 
d="M244 288l-65 -92l-136 96l70 80l-93 28l49 157l90 -26l-2 100h174l-2 -100l90 26l49 -157l-92 -28l69 -77l-136 -98z" />
    <glyph glyph-name="plus" unicode="+" horiz-adv-x="593" 
d="M206 496v183h181v-183h164v-165h-164v-182h-181v182h-164v165h164z" />
    <glyph glyph-name="comma" unicode="," horiz-adv-x="330" 
d="M32 208h197v-116l-18 -140h-129l5 85h-55v171z" />
    <glyph glyph-name="hyphen" unicode="-" horiz-adv-x="520" 
d="M478 491v-160h-436v160h436z" />
    <glyph glyph-name="period" unicode="." horiz-adv-x="330" 
d="M239 17h-197v181h197v-181z" />
    <glyph glyph-name="slash" unicode="/" horiz-adv-x="395" 
d="M26 10l154 822l189 -30l-153 -822z" />
    <glyph glyph-name="zero" unicode="0" horiz-adv-x="590" 
d="M295 26q-57 0 -106.5 18.5t-86.5 62.5q-36 44 -57 117t-21 183q0 109 22 182t59 117q38 44 87 62.5t103 18.5q53 0 102 -18.5t87 -62.5q37 -44 59.5 -117t22.5 -182q0 -110 -21.5 -183t-57.5 -117q-37 -44 -86.5 -62.5t-105.5 -18.5zM295 176q19 0 37.5 11t33.5 38
q15 26 24 70.5t9 111.5q0 68 -9 112.5t-24 70.5t-33.5 36.5t-37.5 10.5q-20 0 -38.5 -10.5t-33.5 -36.5t-23.5 -70.5t-8.5 -112.5q0 -67 8.5 -111.5t23.5 -70.5q15 -27 33.5 -38t38.5 -11z" />
    <glyph glyph-name="one" unicode="1" horiz-adv-x="326" 
d="M100 564l-80 -6v152q35 5 70.5 21.5t50.5 46.5h134v-742h-175v528z" />
    <glyph glyph-name="two" unicode="2" horiz-adv-x="590" 
d="M44 36v123q38 34 68.5 62t57.5 55q27 26 53.5 53t56.5 61q48 54 69.5 94t18.5 69q-3 32 -27 50t-48 17q-33 -2 -57.5 -30.5t-27.5 -79.5l-173 30q15 111 77.5 179.5t173.5 71.5q81 3 147 -36.5t94 -99.5q11 -24 14.5 -55.5t-0.5 -67.5q-5 -35 -17.5 -71.5t-34.5 -69.5
q-19 -29 -37 -51.5t-38 -44.5q-21 -22 -46.5 -46.5t-59.5 -55.5h126q39 0 73 1.5t58 7.5v-153q-16 -4 -38 -6.5t-46 -3.5q-23 -2 -45.5 -2.5t-38.5 -0.5h-353z" />
    <glyph glyph-name="three" unicode="3" horiz-adv-x="590" 
d="M236 348l-10 129q75 3 112 24.5t40 61.5q2 34 -25 56t-72 13q-31 -7 -56 -33t-28 -70l-163 31q13 99 72.5 158t150.5 71q94 12 170.5 -19t106.5 -99q13 -30 16 -63.5t-4 -66.5q-7 -32 -23 -61.5t-41 -50.5q31 -19 51 -48t29 -63t7.5 -70t-11.5 -67q-27 -82 -106 -124
t-188 -33q-102 9 -170 75.5t-79 180.5l164 32q5 -45 33.5 -81.5t65.5 -42.5q41 -8 76 13.5t38 61.5q3 41 -25 66t-70 22q-8 -1 -17.5 -1.5t-17.5 -0.5q-9 0 -16 -0.5t-10 -0.5z" />
    <glyph glyph-name="four" unicode="4" horiz-adv-x="590" 
d="M323 551l-110 -235h110v235zM272 778h216v-462h23q14 0 32.5 1t33.5 5v-150q-20 -6 -41 -7t-35 -1h-13v-128h-170v128h-290v134z" />
    <glyph glyph-name="five" unicode="5" horiz-adv-x="590" 
d="M242 517q24 7 54 8.5t60 -2.5q31 -5 60.5 -15.5t54.5 -28.5q28 -22 49.5 -52.5t33.5 -67.5q12 -36 12.5 -77t-11.5 -82q-29 -97 -106.5 -140.5t-189.5 -35.5q-81 4 -147 56t-90 144l154 47q12 -36 38 -60t61 -27q47 -4 80 19t40 70q6 39 -15.5 73t-70.5 46
q-37 7 -66.5 -4t-50.5 -35l-140 39l39 386h423v-157h-262z" />
    <glyph glyph-name="six" unicode="6" horiz-adv-x="590" 
d="M192 289q-6 -42 19 -73t70 -37q39 -6 76.5 15.5t44.5 63.5q7 37 -18.5 72t-71.5 41q-45 6 -79.5 -15.5t-40.5 -66.5zM37 212q-14 69 -6.5 132t31.5 137q24 73 61 155.5t86 161.5l175 -35q-38 -63 -69 -128t-51 -125v-8q22 5 49.5 5t56.5 -4q29 -5 57 -14.5t50 -23.5
q27 -18 48 -46.5t32 -63.5q12 -35 13 -75.5t-11 -82.5q-14 -47 -42.5 -81t-67.5 -56t-86 -31.5t-96 -4.5q-89 7 -152 57t-78 131z" />
    <glyph glyph-name="seven" unicode="7" horiz-adv-x="590" 
d="M169 39q7 73 22 149t39 150q23 73 54 142.5t70 131.5v9h-320v157h533v-123q-97 -141 -151 -291.5t-73 -341.5z" />
    <glyph glyph-name="eight" unicode="8" horiz-adv-x="590" 
d="M295 23q-44 0 -87 10t-79 31t-62 52t-37 73q-20 74 7 140.5t86 101.5q-51 36 -68 100t8 127q12 32 36.5 57t55.5 42q32 17 68 26t72 9t71.5 -9t67.5 -26q31 -17 55.5 -42t37.5 -57q24 -63 7.5 -127t-67.5 -100q58 -35 85 -101.5t8 -140.5q-12 -42 -38 -73t-62 -52
t-79 -31t-86 -10zM295 490q36 0 61.5 20.5t25.5 56.5t-27 56.5t-60 20.5t-60 -20.5t-27 -56.5t25 -56.5t62 -20.5zM295 176q40 0 68.5 23t28.5 60q0 42 -29 66.5t-68 24.5q-40 0 -68.5 -24.5t-28.5 -66.5q0 -37 28 -60t69 -23z" />
    <glyph glyph-name="nine" unicode="9" horiz-adv-x="590" 
d="M404 528q5 40 -16.5 71t-74.5 40q-40 6 -76.5 -15.5t-42.5 -63.5q-6 -38 16 -72.5t72 -40.5q50 -7 83 17.5t39 63.5zM558 604q13 -69 6 -130.5t-30 -138.5q-23 -75 -57 -154.5t-82 -162.5l-178 27q37 62 68.5 132t49.5 129v8q-23 -6 -51 -6t-58 5q-29 4 -57.5 13.5
t-49.5 24.5q-28 18 -49 46t-32 63q-12 35 -13 75.5t12 83.5q13 46 41.5 80t67.5 56t86 31.5t97 5.5q88 -8 150.5 -58t78.5 -130z" />
    <glyph glyph-name="colon" unicode=":" horiz-adv-x="270" 
d="M223 137h-176v201h176v-201zM223 477h-176v201h176v-201z" />
    <glyph glyph-name="semicolon" unicode=";" horiz-adv-x="271" 
d="M226 477h-181v201h181v-201zM45 358h181v-136l-18 -140h-124l5 85h-44v191z" />
    <glyph glyph-name="less" unicode="&#x3c;" horiz-adv-x="485" 
d="M204 403l264 -290l-121 -129l-316 337v164l316 337l121 -129z" />
    <glyph glyph-name="equal" unicode="=" horiz-adv-x="583" 
d="M41 591h499v-153h-499v153zM41 369h499v-155h-499v155z" />
    <glyph glyph-name="greater" unicode="&#x3e;" horiz-adv-x="485" 
d="M285 403l-264 290l121 129l316 -337v-164l-316 -337l-121 129z" />
    <glyph glyph-name="question" unicode="?" horiz-adv-x="543" 
d="M178 194h175v-176h-175v176zM339 567q0 27 -20 47t-54 17q-35 -3 -53 -22.5t-27 -54.5l-155 47q23 93 80 144.5t139 57.5q109 7 173.5 -39t84.5 -117q22 -82 -1 -144t-81 -118q-33 -31 -51.5 -59.5t-21.5 -73.5h-178v24q0 38 15 73t44 63q31 30 51.5 51.5t32.5 38.5
t17 32t5 33z" />
    <glyph glyph-name="at" unicode="@" horiz-adv-x="847" 
d="M406 318q20 0 40 13.5t25 49.5q0 3 0.5 12.5t0.5 10.5q0 43 -20 64.5t-45 21.5q-28 0 -45 -23.5t-20 -62.5q-3 -42 14.5 -64t49.5 -22zM637 176q-31 -5 -57.5 0.5t-45.5 15.5q-20 10 -32 21.5t-15 18.5q-18 -16 -44 -25t-53 -9q-83 0 -137.5 48.5t-52.5 157.5
q0 53 16.5 91t42.5 62q27 25 60.5 36.5t68.5 11.5q26 0 51 -10t40 -28v34h138v-265q0 -18 10.5 -21t22.5 9q15 16 23 42.5t8 55.5q0 132 -69 192t-189 60q-52 0 -99.5 -17t-84.5 -51q-36 -34 -57.5 -84.5t-21.5 -116.5q0 -69 19.5 -119t54.5 -83t83.5 -48.5t105.5 -15.5
q51 0 87.5 7t68.5 25l53 -125q-48 -26 -94 -35t-106 -9q-94 0 -170.5 26t-131.5 77q-54 50 -83.5 124.5t-29.5 171.5q0 90 29.5 165t82.5 128q54 54 128.5 84t165.5 30q94 0 169.5 -26t127.5 -75q53 -49 81 -120t28 -160q0 -101 -52 -169.5t-140 -81.5z" />
    <glyph glyph-name="A" unicode="A" horiz-adv-x="726" 
d="M720 36h-194l-53 135h-226l-49 -135h-193l275 742h157zM362 561l-67 -230h130z" />
    <glyph glyph-name="B" unicode="B" horiz-adv-x="673" 
d="M50 36v742h298q140 0 204.5 -48.5t71.5 -127.5q3 -24 -1.5 -49t-15.5 -48q-11 -22 -29 -40.5t-41 -28.5q57 -27 84.5 -86t21.5 -122q-10 -93 -73.5 -142.5t-184.5 -49.5h-335zM224 621v-122h156q33 2 51.5 18t18.5 44q0 27 -20 43.5t-56 16.5h-150zM224 348v-155h154
q52 -1 71 22t19 56q0 30 -22 53.5t-76 23.5h-146z" />
    <glyph glyph-name="C" unicode="C" horiz-adv-x="660" 
d="M25 406q0 124 45.5 210.5t127.5 137.5q24 15 57.5 24.5t68.5 13.5q36 4 70.5 3.5t63.5 -6.5q48 -10 96.5 -39t99.5 -85l-108 -112q-49 54 -106.5 68.5t-108.5 -2.5q-63 -21 -97.5 -74.5t-34.5 -138.5q0 -44 11.5 -80.5t30.5 -64.5q19 -27 43 -45t48 -24q27 -7 56.5 -6.5
t58.5 8.5q28 8 54 24t45 42l108 -114q-49 -57 -97 -86t-99 -38q-29 -6 -63.5 -6.5t-70.5 3.5q-35 4 -68.5 13.5t-57.5 24.5q-82 51 -127.5 137t-45.5 212z" />
    <glyph glyph-name="D" unicode="D" horiz-adv-x="698" 
d="M499 407q0 96 -38.5 154.5t-116.5 58.5h-119v-426h119q78 0 116.5 57t38.5 156zM667 407q-1 -172 -89.5 -271.5t-274.5 -99.5h-253v742h253q186 -1 274.5 -100.5t89.5 -270.5z" />
    <glyph glyph-name="E" unicode="E" horiz-adv-x="662" 
d="M616 620h-391v-135l372 1v-155h-372v-137h237q27 0 48.5 0.5t40.5 2.5q18 1 35 3t35 5v-155q-33 -9 -86.5 -11.5t-95.5 -2.5h-389v742h566v-158z" />
    <glyph glyph-name="F" unicode="F" horiz-adv-x="642" 
d="M50 36v742h556v-160h-377v-145h199q54 0 88.5 1.5t70.5 6.5v-155q-34 -9 -86.5 -10.5t-94.5 -1.5h-177v-278h-179z" />
    <glyph glyph-name="G" unicode="G" horiz-adv-x="710" 
d="M455 207q19 13 31 42t12 59h-153v153h339v-73q-2 -34 -4 -65t-7 -60q-4 -29 -13.5 -56t-26.5 -54q-36 -61 -87 -91t-103 -40q-29 -6 -63 -7t-68 3q-35 5 -67 14.5t-57 24.5q-82 51 -122.5 137t-40.5 212q0 124 45 210.5t127 137.5q24 15 55 24.5t64 13.5t66 3.5t62 -6.5
q48 -10 95.5 -39t99.5 -85l-108 -112q-50 54 -102 70t-103 -1q-63 -21 -95 -76t-32 -140q0 -87 33 -145.5t87 -73.5q30 -9 68.5 -5t67.5 25z" />
    <glyph glyph-name="H" unicode="H" horiz-adv-x="711" 
d="M50 778h178v-280h254v280h178v-742h-178v302h-254v-302h-178v742z" />
    <glyph glyph-name="I" unicode="I" horiz-adv-x="279" 
d="M50 778h178v-742h-178v742z" />
    <glyph glyph-name="J" unicode="J" horiz-adv-x="494" 
d="M266 778h177v-493q0 -78 -12.5 -125.5t-48.5 -86.5q-33 -36 -88.5 -48t-106.5 -6q-36 4 -88 31.5t-94 81.5l106 126q28 -33 52.5 -46.5t48.5 -11.5q21 1 37.5 21t16.5 64v493z" />
    <glyph glyph-name="K" unicode="K" horiz-adv-x="670" 
d="M225 186v-150h-175v742h175v-331l237 331h194l-222 -315l230 -427h-190l-155 277z" />
    <glyph glyph-name="L" unicode="L" horiz-adv-x="563" 
d="M365 36h-315v742h178v-581h160q27 0 49 0.5t40 2.5q19 1 35.5 3t34.5 5v-158q-33 -9 -86.5 -11.5t-95.5 -2.5z" />
    <glyph glyph-name="M" unicode="M" horiz-adv-x="873" 
d="M351 36l-134 481h-5l-4 -481h-183l46 742h205l157 -515h5l158 515h205l46 -742h-183l-4 481h-5l-134 -481h-170z" />
    <glyph glyph-name="N" unicode="N" horiz-adv-x="711" 
d="M226 497v-461h-176v742h173l261 -446v446h176v-742h-164z" />
    <glyph glyph-name="O" unicode="O" 
d="M448 17q-84 0 -150 27t-111 77q-46 50 -69.5 122.5t-23.5 162.5t23.5 162t69.5 122q45 50 111 77.5t150 27.5t150.5 -27.5t112.5 -77.5t70.5 -122t24.5 -162t-24.5 -162.5t-70.5 -122.5t-112.5 -77t-150.5 -27zM450 187q78 0 127 59t49 160q0 47 -13.5 87t-36.5 70
q-23 29 -55.5 45.5t-70.5 16.5q-39 0 -71.5 -16.5t-55.5 -45.5q-23 -30 -36 -70t-13 -87q0 -101 48.5 -160t127.5 -59z" />
    <glyph glyph-name="P" unicode="P" horiz-adv-x="667" 
d="M50 778h283q152 0 232.5 -69t80.5 -192q0 -51 -20 -97.5t-57 -81.5q-38 -35 -92.5 -55.5t-123.5 -20.5h-126v-226h-177v742zM227 421h134q57 0 84.5 31.5t27.5 68.5q0 40 -28.5 68.5t-81.5 28.5h-136v-197z" />
    <glyph glyph-name="Q" unicode="Q" horiz-adv-x="767" 
d="M653 150l57 -108l-167 -69l-45 82q-27 -7 -56.5 -10.5t-60.5 -3.5q-168 0 -261 100t-93 277t93 277t261 100q169 0 263.5 -100t94.5 -277q0 -84 -22 -152t-64 -116zM381 205q78 0 128 53.5t50 159.5q0 103 -50.5 158.5t-127.5 55.5q-76 0 -125 -55.5t-49 -158.5
q0 -106 48 -159.5t126 -53.5z" />
    <glyph glyph-name="R" unicode="R" horiz-adv-x="669" 
d="M523 324l125 -288h-194l-105 249h-122v-249h-177v742h283q152 0 232.5 -63.5t80.5 -186.5q0 -66 -33 -120t-90 -84zM227 443h134q57 0 84.5 26t27.5 63q0 40 -28.5 63t-81.5 23h-136v-175z" />
    <glyph glyph-name="S" unicode="S" horiz-adv-x="644" 
d="M446 32q-54 -15 -122 -15t-134 19q-19 6 -42.5 17.5t-47.5 26.5t-46.5 32.5t-38.5 36.5l118 128q75 -53 133.5 -75t101.5 -11q19 4 30.5 16.5t14.5 28.5q3 15 -4 30.5t-23 26.5q-20 13 -39.5 22.5t-42.5 19.5q-23 9 -50 21.5t-60 30.5q-96 53 -122 126t7 138
q33 71 101.5 108t154.5 37q84 0 153.5 -30t118.5 -82l-116 -129q-37 31 -85.5 51.5t-84.5 20.5q-21 0 -38 -12.5t-17 -36.5t33 -47.5t114 -62.5q102 -47 145.5 -95t51.5 -104q13 -81 -29 -146t-135 -91z" />
    <glyph glyph-name="T" unicode="T" horiz-adv-x="596" 
d="M15 778h565v-164h-196v-578h-178v578h-191v164z" />
    <glyph glyph-name="U" unicode="U" horiz-adv-x="691" 
d="M343 179q48 0 83.5 29.5t35.5 92.5v477h178v-492q0 -66 -22 -116.5t-61 -85.5q-39 -34 -93.5 -52t-120.5 -18t-120 18t-93 52q-38 35 -59 85.5t-21 116.5v492h178v-477q0 -63 33.5 -92.5t81.5 -29.5z" />
    <glyph glyph-name="V" unicode="V" horiz-adv-x="673" 
d="M245 36l-240 742h192l139 -489l139 489h192l-240 -742h-182z" />
    <glyph glyph-name="W" unicode="W" horiz-adv-x="867" 
d="M520 778l96 -514h3l38 514h185l-103 -742h-202l-110 519h-7l-111 -519h-192l-113 742h185l39 -514h3l95 514h194z" />
    <glyph glyph-name="X" unicode="X" horiz-adv-x="711" 
d="M14 778h216l126 -230l127 230h214l-216 -371l224 -371h-215l-134 230l-135 -230h-216l214 371z" />
    <glyph glyph-name="Y" unicode="Y" horiz-adv-x="701" 
d="M442 324v-288h-182v288l-255 454h206l139 -282l139 282h206z" />
    <glyph glyph-name="Z" unicode="Z" horiz-adv-x="578" 
d="M395 196q53 0 87 2.5t70 8.5v-157q-33 -9 -86.5 -11.5t-96.5 -2.5h-344v63l272 519h-253v160h496v-76l-266 -506h121z" />
    <glyph glyph-name="bracketleft" unicode="[" horiz-adv-x="330" 
d="M67 815h233v-155h-68v-508h68v-155h-233v818z" />
    <glyph glyph-name="backslash" unicode="\" 
d="M547 778l37 -272h56l14 272h175l-31 -272h78v-160h-95l-35 -310h-202l-49 310h-90l-49 -310h-192l-39 310h-101v160h81l-34 272h175l14 -272h56l37 272h194zM606 346l17 -122h3l6 122h-26zM469 506l-15 99h-7l-16 -99h38zM269 346l6 -122h3l16 122h-25z" />
    <glyph glyph-name="bracketright" unicode="]" horiz-adv-x="330" 
d="M267 815v-818h-233v155h68v508h-68v155h233z" />
    <glyph glyph-name="asciicircum" unicode="^" horiz-adv-x="523" 
d="M344 823l169 -367h-187l-62 164l-61 -164h-193l175 367h159z" />
    <glyph glyph-name="underscore" unicode="_" horiz-adv-x="486" 
d="M14 167h458v-150h-458v150z" />
    <glyph glyph-name="grave" unicode="`" horiz-adv-x="294" 
d="M210 825l49 -279h-146l-76 279h173z" />
    <glyph glyph-name="a" unicode="a" horiz-adv-x="646" 
d="M432 36v48q-25 -26 -62.5 -40.5t-80.5 -14.5q-55 0 -103 17t-84 52q-35 35 -54.5 88.5t-17.5 127.5q2 73 24.5 127.5t59.5 89.5q36 35 83.5 51.5t98.5 14.5q43 -3 78 -20t58 -41v50h173v-550h-173zM310 182q44 0 75.5 21.5t40.5 67.5q0 3 1 13.5t1 13.5q0 70 -33 108
t-81 38q-41 2 -76 -30.5t-35 -99.5q0 -66 30.5 -99t76.5 -33z" />
    <glyph glyph-name="b" unicode="b" horiz-adv-x="645" 
d="M355 28q-43 0 -81 15t-62 42v-49h-172v742h172v-243q21 24 59.5 41.5t88.5 19.5q54 2 100.5 -16t81.5 -55q34 -37 53.5 -92t20.5 -125q1 -73 -19 -126t-55 -87q-36 -35 -84 -51t-103 -16zM322 181q23 -2 45.5 4t40.5 22t29 42t11 64q0 34 -10.5 58.5t-26.5 40.5
q-17 15 -37 23t-40 8q-51 0 -83.5 -39.5t-32.5 -105.5q0 -47 27 -80.5t77 -36.5z" />
    <glyph glyph-name="c" unicode="c" horiz-adv-x="591" 
d="M25 313q0 138 82.5 215.5t223.5 77.5q66 0 124.5 -26.5t106.5 -83.5l-103 -118q-35 37 -63.5 52.5t-67.5 15.5q-25 -1 -48.5 -10.5t-41.5 -27.5q-18 -17 -29 -41.5t-11 -53.5q0 -61 40 -97.5t92 -36.5q42 0 72.5 18t60.5 50l102 -117q-45 -59 -106 -85t-128 -26
q-138 -1 -222 73t-84 221z" />
    <glyph glyph-name="d" unicode="d" horiz-adv-x="647" 
d="M287 28q-55 0 -102.5 16t-83.5 51q-35 34 -55 87t-19 126q1 70 20.5 125t53.5 92q35 37 81.5 55t101.5 16q48 -2 87 -19.5t63 -41.5v243h172v-742h-172v49q-26 -27 -64.5 -42t-82.5 -15zM322 181q49 3 77.5 36.5t28.5 80.5q0 66 -34.5 105.5t-85.5 39.5q-20 0 -39.5 -8
t-35.5 -23q-16 -16 -25.5 -40.5t-9.5 -58.5q0 -38 10.5 -64t27.5 -42q18 -16 40 -22t46 -4z" />
    <glyph glyph-name="e" unicode="e" horiz-adv-x="590" 
d="M28 308q0 69 20 124t56 94q36 38 86.5 59t111.5 21q62 0 110.5 -22t82.5 -62q33 -39 51 -94.5t18 -121.5l-4 -55h-361q3 -39 35 -59t75 -20q39 0 67.5 15t52.5 45l113 -98q-45 -61 -105 -89.5t-135 -28.5q-61 0 -111.5 20t-87.5 58t-57 92t-18 122zM395 385
q-6 34 -32.5 51t-59.5 17q-38 0 -64 -18t-30 -50h186z" />
    <glyph glyph-name="f" unicode="f" horiz-adv-x="373" 
d="M15 586h84v33q0 93 37.5 137t110.5 44h105v-154h-35q-29 0 -37 -10t-8 -35v-15h85v-156h-85v-394h-173v394h-84v156z" />
    <glyph glyph-name="g" unicode="g" horiz-adv-x="642" 
d="M312 211q54 0 82.5 31.5t28.5 78.5q0 65 -33 96t-78 34q-19 1 -38 -5t-35 -20q-16 -15 -26.5 -38.5t-11.5 -57.5q-3 -62 30.5 -91t80.5 -28zM601 131q0 -78 -17 -132.5t-77 -96.5q-47 -32 -110.5 -41t-129.5 -6q-46 2 -102.5 16.5t-111.5 47.5l72 136q51 -30 102 -44
t109 -8q50 6 70 31t20 52v24q-20 -21 -59 -34t-82 -13q-45 0 -91 15t-83 47q-37 31 -60 80t-20 117q2 74 24 127.5t58 87.5t83 49t99 13q43 -2 76 -16.5t55 -35.5v39h175v-455z" />
    <glyph glyph-name="h" unicode="h" horiz-adv-x="594" 
d="M40 36v742h175v-218q18 15 52 26.5t70 14.5h13q100 0 152.5 -65t52.5 -164v-336h-175v271q0 77 -22 102.5t-60 22.5q-26 -3 -46.5 -12.5t-36.5 -26.5v-357h-175z" />
    <glyph glyph-name="i" unicode="i" horiz-adv-x="254" 
d="M40 586h173v-550h-173v550zM213 644h-173v134h173v-134z" />
    <glyph glyph-name="j" unicode="j" horiz-adv-x="276" 
d="M243 644h-173v134h173v-134zM243 85q0 -81 -21.5 -128t-72.5 -68q-44 -18 -92.5 -16.5t-90.5 14.5l8 145q17 -6 37 -8t30 4q18 7 23.5 26t5.5 51v481h173v-501z" />
    <glyph glyph-name="k" unicode="k" horiz-adv-x="602" 
d="M214 202v-166h-174v742h174v-353l150 161h206l-198 -212l224 -338h-203l-137 212z" />
    <glyph glyph-name="l" unicode="l" horiz-adv-x="255" 
d="M40 793h174v-757h-174v757z" />
    <glyph glyph-name="m" unicode="m" horiz-adv-x="897" 
d="M40 36v550h169v-34q33 23 64.5 33.5t68.5 14.5h11q51 0 85.5 -17t55.5 -46q34 26 78.5 44.5t74.5 18.5h17q96 0 144 -56.5t48 -156.5v-351h-166v261q0 82 -20.5 108t-55.5 25q-26 -1 -42.5 -8t-33.5 -22q0 -7 0.5 -14.5t0.5 -13.5v-336h-165v261q0 77 -20.5 105.5
t-56.5 27.5q-30 -1 -48.5 -10.5t-39.5 -26.5v-357h-169z" />
    <glyph glyph-name="n" unicode="n" horiz-adv-x="592" 
d="M40 36v550h175v-32q18 15 52.5 28.5t70.5 16.5h16q100 0 148 -62.5t49 -164.5v-336h-175v261q0 43 -5.5 69.5t-15.5 40.5q-9 14 -23.5 18.5t-32.5 4.5q-29 -2 -46 -10t-38 -24v-360h-175z" />
    <glyph glyph-name="o" unicode="o" horiz-adv-x="647" 
d="M321 181q50 0 89 32.5t39 98.5q0 63 -39 97t-89 34q-49 0 -86.5 -34t-37.5 -97q0 -66 37.5 -98.5t86.5 -32.5zM323 23q-66 0 -121 20.5t-95 58.5q-39 38 -61 91t-22 119q0 67 23.5 121t64.5 91q40 37 94.5 57t116.5 20q61 0 115.5 -20t95.5 -57q40 -37 64 -91t24 -121
q0 -66 -22.5 -119t-61.5 -91q-40 -38 -95 -58.5t-120 -20.5z" />
    <glyph glyph-name="p" unicode="p" horiz-adv-x="645" 
d="M355 28q-43 0 -81 15t-62 42v-174h-172v675h172v-49q21 24 59.5 40t88.5 18q54 1 100.5 -17.5t81.5 -54.5q34 -37 53.5 -91.5t20.5 -124.5q1 -73 -19 -126t-55 -87q-36 -34 -84 -50t-103 -16zM326 181q22 -2 44 4.5t39 21.5q18 15 28.5 41t10.5 64q0 34 -10.5 58.5
t-26.5 40.5t-36.5 23.5t-40.5 7.5q-51 0 -83.5 -40t-32.5 -106q0 -44 30.5 -78t77.5 -37z" />
    <glyph glyph-name="q" unicode="q" horiz-adv-x="647" 
d="M287 28q-55 0 -102.5 16t-83.5 50q-35 34 -55 87t-19 126q1 70 20.5 124.5t53.5 91.5q35 36 81.5 54.5t101.5 17.5q48 -2 87 -18.5t63 -40.5v50h172v-675h-172v174q-26 -27 -64.5 -42t-82.5 -15zM318 181q46 3 78 37t32 78q0 66 -34.5 106t-85.5 40q-40 0 -75 -30.5
t-35 -99.5q0 -38 10 -64t27 -41q16 -15 38 -21.5t45 -4.5z" />
    <glyph glyph-name="r" unicode="r" horiz-adv-x="360" 
d="M354 591v-165h-16q-31 0 -62 -9t-58 -28v-353h-178v550h178v-40q27 21 54.5 31t63.5 14h18z" />
    <glyph glyph-name="s" unicode="s" horiz-adv-x="515" 
d="M368 27q-40 -12 -88.5 -11t-104.5 10q-39 7 -81.5 26t-81.5 46l70 136q48 -26 94 -43.5t90 -23.5q13 -3 21.5 2.5t10.5 14.5t-3 18.5t-17 15.5q-17 7 -35.5 14t-39.5 15t-45 18.5t-49 26.5q-50 30 -70.5 86t5.5 116q18 49 65.5 79.5t131.5 33.5q66 2 124.5 -18t115.5 -63
l-90 -125q-42 25 -75.5 36.5t-64.5 14.5q-9 1 -15.5 -5t-8.5 -14t0.5 -17t11.5 -13q15 -9 33.5 -16t38.5 -14q20 -8 41.5 -16t42.5 -19q55 -29 80.5 -73t17.5 -101q-7 -57 -40.5 -89.5t-84.5 -47.5z" />
    <glyph glyph-name="t" unicode="t" horiz-adv-x="400" 
d="M273 267q0 -32 5 -48t22 -22q11 -4 23.5 -3t36.5 10l29 -153q-39 -18 -95 -23t-100 13q-52 21 -73 68t-21 126v195h-90v156h90v192h173v-192h112v-156h-112v-163z" />
    <glyph glyph-name="u" unicode="u" horiz-adv-x="579" 
d="M538 586v-550h-175v32q-19 -16 -50 -29t-67 -16h-13q-101 0 -147 59t-46 158v346h175v-271q0 -76 20 -100t50 -23q26 0 44 8t34 26v360h175z" />
    <glyph glyph-name="v" unicode="v" horiz-adv-x="572" 
d="M0 586h187l99 -312l99 312h186l-211 -550h-152z" />
    <glyph glyph-name="w" unicode="w" horiz-adv-x="815" 
d="M407 322l-93 -286h-145l-164 550h180l71 -315l77 315h147l78 -315l70 315h181l-164 -550h-145z" />
    <glyph glyph-name="x" unicode="x" horiz-adv-x="610" 
d="M11 586h200l92 -154l92 154h195l-175 -275l189 -275h-198l-103 146l-103 -146h-195l186 275z" />
    <glyph glyph-name="y" unicode="y" horiz-adv-x="601" 
d="M218 163l-215 423h198l108 -226l94 226h194l-311 -700l-174 49z" />
    <glyph glyph-name="z" unicode="z" horiz-adv-x="474" 
d="M272 36h-254v71l193 323h-185v156h424v-57l-201 -337h49q51 0 86 0.5t71 5.5v-153q-17 -5 -39.5 -6.5t-47.5 -2.5q-24 -1 -49.5 -0.5t-46.5 0.5z" />
    <glyph glyph-name="braceleft" unicode="{" horiz-adv-x="378" 
d="M193 406q5 -2 10.5 -5t10.5 -7l8.5 -8.5t9.5 -7.5q11 -13 18.5 -24.5t12.5 -28.5q4 -17 6.5 -43t2.5 -68q0 -39 10.5 -54t38.5 -15l48 -1v-139l-29 -1q-21 0 -57.5 1.5t-62.5 7.5q-36 8 -61 36t-26 67q-1 17 -1.5 35t-1.5 34q-1 17 -1.5 31t-0.5 23q-3 42 -30 60t-79 19
v176q52 0 79 18.5t30 60.5q0 9 0.5 22.5t1.5 30.5q1 16 1.5 34t1.5 36q1 38 26 66t61 37q26 6 62.5 7.5t57.5 1.5l29 -1v-139l-48 -1q-28 -1 -38.5 -16t-10.5 -53q0 -42 -2.5 -68.5t-6.5 -43.5q-5 -17 -12.5 -28.5t-18.5 -23.5q-5 -4 -9.5 -8.5l-8.5 -8.5q-5 -4 -10.5 -7
t-10.5 -4z" />
    <glyph glyph-name="bar" unicode="|" horiz-adv-x="583" 
d="M204 826h175v-838h-175v838z" />
    <glyph glyph-name="braceright" unicode="}" horiz-adv-x="378" 
d="M193 406q-6 1 -11.5 4t-9.5 7q-5 4 -9.5 8.5l-8.5 8.5q-12 12 -19.5 23.5t-12.5 28.5q-4 17 -6 43.5t-2 68.5q0 38 -11 53t-38 16l-48 1v139l29 1q21 0 57 -1.5t63 -7.5q36 -9 60.5 -37t26.5 -66q0 -18 0.5 -36t1.5 -34q1 -17 1.5 -30.5t1.5 -22.5q3 -42 29.5 -60.5
t79.5 -18.5v-176q-53 -1 -79.5 -19t-29.5 -60q-1 -9 -1.5 -23t-1.5 -31q-1 -16 -1.5 -34t-0.5 -35q-2 -39 -26.5 -67t-60.5 -36q-27 -6 -63 -7.5t-57 -1.5l-29 1v139l48 1q27 0 38 15t11 54q0 42 2 68t6 43q5 17 12.5 28.5t19.5 24.5q4 3 8.5 7.5t9.5 8.5q4 4 9.5 7t11.5 5z
" />
    <glyph glyph-name="asciitilde" unicode="~" horiz-adv-x="623" 
d="M396 482q15 0 22.5 8t12.5 36l4 32l161 -45l-3 -34q-11 -85 -46 -126t-85 -43q-44 -3 -75.5 6.5t-64.5 27.5q-31 16 -53.5 23.5t-34.5 4.5q-14 -4 -22 -15t-13 -31l-8 -35l-161 45l5 34q10 78 37 119t69 54q39 12 71.5 8t68.5 -21q15 -8 31 -16.5t31 -15.5t28.5 -11.5
t24.5 -4.5z" />
    <glyph glyph-name="exclamdown" unicode="&#xa1;" 
d="M537 18h-175v493h175v-493zM537 600h-175v196h175v-196z" />
    <glyph glyph-name="currency" unicode="&#xa4;" 
d="M454 61q-45 0 -85.5 7.5t-74.5 23.5l-73 -89l-139 106l78 94q-28 41 -42.5 93.5t-14.5 114.5q0 56 13.5 106t40.5 92l-76 86l130 117l76 -87q36 17 77.5 26.5t89.5 9.5q50 0 94.5 -11t83.5 -30l81 92l128 -117l-84 -96q22 -41 34.5 -88t13.5 -100q-1 -58 -13.5 -107.5
t-36.5 -89.5l87 -105l-139 -106l-77 94q-37 -18 -80.5 -27t-91.5 -9zM454 222q75 0 127.5 46.5t52.5 142.5q0 45 -14.5 80t-39.5 59q-24 24 -57 37t-69 13q-37 0 -70 -13t-57 -37q-25 -24 -39 -59t-14 -80q0 -96 52.5 -142.5t127.5 -46.5z" />
    <glyph glyph-name="section" unicode="&#xa7;" 
d="M430 374q6 -9 17 -19t20 -16q10 -7 18.5 -10.5t17.5 -4.5q4 -1 7.5 2t3.5 8v4t-1 6q0 4 -1.5 9t-3.5 11q-7 12 -13.5 22.5t-18.5 25.5q-18 21 -34.5 33.5t-31.5 15.5q-8 0 -10.5 -5t-2.5 -11q0 -15 9 -34t24 -37zM313 656q-2 16 -0.5 32t6.5 31q3 15 9 28t15 25
q9 10 19.5 19t24.5 16q12 6 26.5 9.5t31.5 3.5t32 -3.5t29 -9.5q12 -7 22.5 -15t19.5 -17q8 -10 14 -19.5t12 -18.5q3 -11 5 -19t2 -13q0 -7 -1.5 -14t-4.5 -13q-4 -8 -9.5 -13.5t-11.5 -9.5q-9 -5 -19.5 -5t-22.5 4q-12 3 -20 8t-11 14q-6 5 -9.5 13t-4.5 20
q-2 10 -2.5 16.5t-0.5 8.5l-0.5 0.5t-0.5 3.5q-1 0 -2 0.5t-1 1.5q-2 0 -4 0.5t-3 1.5h-7.5t-7.5 1q-9 0 -15 -2.5t-9 -7.5q-3 -6 -4.5 -16t-1.5 -24q-1 -11 -0.5 -20t3.5 -16q1 -9 5 -17t10 -16q5 -9 12.5 -18.5t17.5 -18.5q8 -10 19.5 -22.5t26.5 -24.5l47 -50
q12 -15 23.5 -32.5t22.5 -38.5q8 -23 11 -45t0 -43q-4 -18 -10 -32t-16 -26t-19 -18.5t-15 -7.5q1 -3 3 -6.5t4 -8.5q3 -4 6 -10t8 -12q7 -15 13 -34.5t9 -43.5q0 -17 -1 -32.5t-4 -30.5q-5 -16 -11.5 -29.5t-14.5 -23.5q-9 -12 -20 -20.5t-23 -14.5q-13 -7 -28 -10t-30 -3
q-18 0 -33 3t-27 10q-14 6 -24.5 13t-18.5 18q-9 9 -16 18.5t-10 19.5q-4 9 -5.5 17.5t-1.5 15.5q0 6 1.5 13t4.5 15q3 6 7.5 11t13.5 11q8 3 18.5 3.5t22.5 -2.5q11 -6 19 -10.5t14 -10.5q5 -6 8 -14.5t5 -18.5q1 -12 2 -18.5t1 -8.5v-2.5t2 -0.5v-2.5t2 -0.5q0 -1 2 -1h5
q3 -1 6.5 -1h9.5q8 0 14 2.5t9 8.5q3 4 5 14t2 26q0 4 -0.5 8t-1.5 9l-2 8t-1 9q-3 7 -7 15t-9 17q-3 4 -6.5 8.5t-7.5 9.5t-7.5 10t-7.5 11q-5 4 -10.5 9.5t-10.5 11.5l-12 12t-12 14l-47 49q-15 13 -26 31t-19 41q-11 21 -13.5 42.5t2.5 45.5q3 17 9.5 31.5t18.5 26.5
q10 12 22.5 19.5t26.5 10.5q-11 9 -21 21.5t-19 28.5q-11 14 -16 29t-5 32z" />
    <glyph glyph-name="dieresis" unicode="&#xa8;" 
d="M549 826h178v-169h-178v169zM173 826h177v-169h-177v169z" />
    <glyph glyph-name="copyright" unicode="&#xa9;" horiz-adv-x="810" 
d="M792 359q0 -40 -8 -77.5t-23 -71.5q-16 -36 -37 -67t-47 -57q-27 -27 -57.5 -48t-64.5 -36q-36 -16 -74 -23.5t-77 -7.5q-41 0 -79 7.5t-72 23.5q-36 15 -67 36t-57 48q-27 26 -47 57t-35 67q-15 34 -22.5 71.5t-7.5 77.5q0 39 7.5 75.5t22.5 72.5q15 34 35 65t47 58
q26 26 57 47t67 38q34 15 72 23t79 8q39 0 77 -8t74 -23q34 -17 64.5 -38t57.5 -47q26 -27 47 -58t37 -65q15 -36 23 -72.5t8 -75.5zM126 359q0 -39 6.5 -71t21.5 -59q13 -28 31 -50.5t40 -39.5q21 -18 44 -31t47 -20q24 -9 45.5 -13t42.5 -4q29 0 56.5 5.5t53.5 17.5
q25 10 47 25.5t42 35.5q18 19 32 42t26 50q10 25 16 53.5t6 58.5q0 29 -6 57t-16 55q-12 25 -26.5 48t-32.5 43q-20 19 -42 34.5t-47 27.5q-26 10 -53.5 16t-55.5 6q-23 0 -46.5 -5.5t-47.5 -15.5q-25 -12 -47.5 -26.5t-42.5 -32.5q-21 -20 -38 -42.5t-29 -48.5
q-14 -27 -20.5 -56t-6.5 -60zM573 530l-57 -77q-9 9 -20 17.5t-23 17.5q-14 7 -29.5 11t-32.5 4q-15 0 -28 -3t-23 -8q-12 -6 -21 -13.5t-15 -16.5q-7 -11 -11.5 -22t-7.5 -23q-4 -14 -5.5 -27.5t-1.5 -28.5q0 -20 2 -36.5t8 -29.5q4 -15 10 -26t15 -18q7 -9 16 -15.5
t20 -9.5q9 -4 20 -5.5t23 -0.5q16 -1 31.5 2t29.5 11q12 6 23 15t20 21l62 -73q-8 -9 -16 -16.5t-15 -13.5q-9 -8 -17.5 -13.5t-17.5 -9.5q-10 -5 -21 -8.5t-23 -5.5q-14 -3 -28 -4.5t-29 -1.5q-29 0 -53 4.5t-43 14.5q-21 9 -38 21.5t-29 29.5q-13 15 -22 34t-15 42
q-7 21 -10 44.5t-2 47.5q-1 19 1.5 39.5t8.5 41.5q4 20 13 39.5t21 37.5q12 17 28.5 31.5t37.5 26.5q20 10 45.5 16t57.5 6q15 0 29.5 -1.5t27.5 -4.5q12 -4 23 -8.5t21 -8.5q9 -6 17 -11t16 -11q6 -7 13 -13t14 -11z" />
    <glyph glyph-name="ordfeminine" unicode="&#xaa;" 
d="M555 264v43q-23 -23 -59.5 -36t-75.5 -13q-50 0 -94 14.5t-78 46.5q-33 32 -52.5 82t-17.5 122q1 69 23 120t57 84t79.5 48t91.5 13q38 -3 71.5 -17t54.5 -35v42h156v-514h-156zM443 396q42 3 70 23t37 62q0 2 1 16.5t1 17.5q0 63 -31 98t-74 37q-19 0 -38.5 -7.5
t-36.5 -23.5q-16 -16 -27 -40t-11 -56q-1 -67 33 -99t76 -28zM725 191v-155h-544v155h544z" />
    <glyph glyph-name="guillemotleft" unicode="&#xab;" horiz-adv-x="540" 
d="M51 423l118 418l147 -33l-101 -401l99 -402l-146 -33l-117 418v33zM264 423l102 386l142 -33l-95 -369l93 -379l-141 -33l-101 395v33z" />
    <glyph glyph-name="uni00AD" unicode="&#xad;" 
d="M174 491h551v-160h-551v160z" />
    <glyph glyph-name="degree" unicode="&#xb0;" 
d="M450 582q-57 0 -94.5 32.5t-37.5 93.5q0 57 40 91.5t92 34.5q51 0 91.5 -34.5t40.5 -91.5q0 -61 -37.5 -93.5t-94.5 -32.5zM450 678q13 0 22 9t9 21q0 11 -8 20.5t-23 9.5t-23 -9.5t-8 -20.5q0 -12 8.5 -21t22.5 -9z" />
    <glyph glyph-name="plusminus" unicode="&#xb1;" horiz-adv-x="582" 
d="M206 586v153h171v-153h149v-155h-149v-152h-171v152h-149v155h149zM47 231h488v-150h-488v150z" />
    <glyph glyph-name="uni00B2" unicode="&#xb2;" 
d="M36 464v73q18 17 32.5 30t26.5 25q13 12 24.5 24.5t25.5 27.5q20 22 28 36t9 26q0 8 -5 11t-10 3q-9 -2 -17.5 -11.5t-14.5 -32.5l-104 35q13 54 45.5 85t86.5 33q42 1 75.5 -14.5t51.5 -47.5q15 -28 11.5 -67t-21.5 -69q-8 -13 -15.5 -22.5t-15.5 -17.5l-14.5 -14.5
l-15.5 -15.5h22q9 0 23.5 1t43.5 7v-96q-26 -6 -53.5 -7.5t-43.5 -1.5h-175z" />
    <glyph glyph-name="uni00B3" unicode="&#xb3;" 
d="M123 605l-6 80q36 1 50.5 7.5t17.5 18.5q1 9 -5 16t-18 7q-11 0 -24 -7t-26 -25l-79 48q21 35 53 55.5t74 23.5q40 2 72.5 -11.5t51.5 -46.5q15 -29 11 -63t-28 -52q29 -20 37.5 -53t-0.5 -62q-14 -44 -58.5 -67t-104.5 -13q-43 6 -75.5 31t-48.5 71l88 39q11 -24 24 -33
t28 -9q13 -1 23 5t11 18q0 11 -6.5 18.5t-19.5 8.5q-7 0 -17 -0.5t-25 -4.5z" />
    <glyph glyph-name="acute" unicode="&#xb4;" 
d="M388 825h173l-76 -279h-146z" />
    <glyph glyph-name="paragraph" unicode="&#xb6;" 
d="M572 778h160v-742h-160v742zM326 778h195v-742h-160v422h-35q-39 0 -68.5 13t-49.5 35t-30 51t-10 61q0 31 10 60t30 51t49.5 35.5t68.5 13.5z" />
    <glyph glyph-name="periodcentered" unicode="&#xb7;" horiz-adv-x="567" 
d="M193 466h181v-169h-181v169z" />
    <glyph glyph-name="cedilla" unicode="&#xb8;" 
d="M324 335l251 -225l-251 -221v151l90 70l-90 71v154z" />
    <glyph glyph-name="uni00B9" unicode="&#xb9;" 
d="M89 661l-59 -4v111q30 4 51.5 14.5t32.5 32.5h117v-351h-142v197z" />
    <glyph glyph-name="ordmasculine" unicode="&#xba;" 
d="M723 191v-155h-544v155h544zM450 647q-60 0 -91.5 -35t-31.5 -91q0 -60 33 -93t90 -33q56 0 89.5 33t33.5 93q0 56 -32 91t-91 35zM450 252q-62 -1 -113.5 16.5t-88.5 51.5q-37 35 -57 85t-20 116q0 60 21 109.5t58 84.5q38 36 89 55t111 20q59 -1 110 -20t89 -55
q37 -35 58.5 -84.5t21.5 -109.5q0 -66 -20.5 -116t-57.5 -85q-37 -34 -88.5 -51.5t-112.5 -16.5z" />
    <glyph glyph-name="guillemotright" unicode="&#xbb;" horiz-adv-x="540" 
d="M494 423v-33l-117 -418l-146 33l99 402l-101 401l147 33zM281 423v-33l-101 -395l-141 33l93 379l-95 369l142 33z" />
    <glyph glyph-name="onequarter" unicode="&#xbc;" 
d="M88 642l-52 -4v121q30 4 51.5 14.5t32.5 32.5h118v-471h-150v307zM143 45l397 777l136 -65l-396 -777zM653 317l-49 -117h49v117zM628 471h164v-271h28h17.5t27.5 3v-120q-9 -2 -16.5 -2.5t-13.5 -0.5q-7 -1 -11.5 -0.5t-6.5 0.5h-25v-82h-142v82h-184v89z" />
    <glyph glyph-name="onehalf" unicode="&#xbd;" 
d="M518 2v90q24 22 42.5 39.5t35.5 33.5l32 32t34 37q28 31 38.5 49.5t8.5 33.5q-1 15 -10 22t-18 7q-15 -1 -28 -14.5t-19 -41.5l-122 40q17 69 57.5 107.5t107.5 41.5q53 1 97.5 -23.5t62.5 -62.5q16 -36 12.5 -85t-27.5 -87q-12 -18 -22 -31t-21 -24q-10 -12 -21 -22.5
t-24 -22.5h42q16 0 36 1t48 7v-116q-29 -6 -62.5 -8.5t-54.5 -2.5h-225zM93 642l-52 -4v121q30 4 51.5 14.5t32.5 32.5h118v-471h-150v307zM123 59l438 756l133 -72l-437 -756z" />
    <glyph glyph-name="threequarters" unicode="&#xbe;" 
d="M193 56l422 761l130 -70l-421 -762zM666 317l-49 -117h49v117zM641 471h164v-271h28h17.5t27.5 3v-120q-9 -2 -16.5 -2.5t-13.5 -0.5q-7 -1 -11.5 -0.5t-6.5 0.5h-25v-82h-142v82h-184v89zM163 543l-8 103q53 2 71 11.5t21 29.5q1 13 -9.5 21t-29.5 8q-18 0 -32.5 -10.5
t-26.5 -33.5l-110 50q25 48 64 78t90 34q54 3 105 -15.5t71 -63.5q8 -19 10 -41t-1 -42t-11 -37.5t-20 -26.5q15 -9 25.5 -27t15.5 -39q5 -22 4 -45t-8 -42q-21 -57 -76 -86t-130 -17q-54 8 -94.5 39.5t-61.5 90.5l110 59q9 -30 26 -46.5t40 -19.5q20 -3 37 3.5t20 27.5
q2 15 -9.5 29t-35.5 13q-5 -1 -10 -1t-11 -1q-5 0 -11.5 -1t-14.5 -2z" />
    <glyph glyph-name="questiondown" unicode="&#xbf;" 
d="M555 638h-175v176h175v-176zM394 265q0 -28 19.5 -47.5t54.5 -16.5q34 3 52.5 22t27.5 55l155 -47q-24 -93 -81 -145t-138 -57q-110 -8 -174.5 38t-83.5 118q-23 81 0 143t82 119q32 30 50.5 59t22.5 74h178v-24q0 -39 -15.5 -74t-43.5 -62q-32 -31 -52.5 -52.5
t-32.5 -38.5t-16.5 -32t-4.5 -32z" />
    <glyph glyph-name="AE" unicode="&#xc6;" 
d="M349 561l-57 -230h114zM833 778v-158h-340l39 -136h282v-154h-237l39 -136h83q54 0 93.5 3t75.5 8v-155q-33 -9 -76.5 -11.5t-85.5 -2.5h-228l-36 135h-186l-36 -135h-188l235 742h566z" />
    <glyph glyph-name="Eth" unicode="&#xd0;" 
d="M639 407q0 96 -38.5 154.5t-116.5 58.5h-109v-139h133v-160h-133v-127h109q78 0 116.5 57t38.5 156zM807 407q-1 -172 -89.5 -271.5t-274.5 -99.5h-243v285h-108v160h108v297h243q186 -1 274.5 -100.5t89.5 -270.5z" />
    <glyph glyph-name="multiply" unicode="&#xd7;" horiz-adv-x="597" 
d="M297 530l142 144l117 -117l-144 -143l143 -142l-116 -117l-142 143l-143 -143l-117 117l143 142l-143 142l117 117z" />
    <glyph glyph-name="Oslash" unicode="&#xd8;" 
d="M441 27q-51 0 -94.5 9t-80.5 27l-70 -80l-130 116l72 82q-27 44 -40 100.5t-13 124.5q0 180 94 279.5t262 99.5q55 0 103 -11t88 -32l71 80l130 -115l-79 -89q23 -44 35 -97t12 -115q0 -180 -95.5 -279.5t-264.5 -99.5zM443 182q96 -1 144.5 57.5t48.5 166.5
q0 18 -2 35.5t-5 33.5l-251 -285q14 -5 30.5 -6.5t34.5 -1.5zM521 616q-18 6 -37.5 10t-40.5 4q-91 -1 -142 -59t-51 -165q0 -24 2 -46t8 -41z" />
    <glyph glyph-name="Thorn" unicode="&#xde;" 
d="M595 417q-1 60 -39 96.5t-116 36.5h-129v-266h129q77 -1 115.5 31.5t39.5 101.5zM763 417q-1 -150 -84.5 -221t-254.5 -70h-114l1 -91h-175v743h174v-70h114q168 -1 253.5 -81.5t85.5 -209.5z" />
    <glyph glyph-name="germandbls" unicode="&#xdf;" 
d="M351 48v148q24 -14 53.5 -21t56.5 -7q45 0 72.5 22t30.5 61q2 36 -26 66t-92 31h-96v141h96q42 1 61.5 22.5t18.5 54.5q-2 28 -25 51.5t-71 23.5h-32q-37 0 -57.5 -28t-20.5 -70v-507h-164v555q0 86 50.5 143.5t146.5 58.5h71q120 0 184 -50.5t82 -128.5q4 -23 3.5 -49
t-8.5 -50t-23 -45t-39 -34q57 -27 87 -85t19 -133q-13 -87 -67.5 -142t-165.5 -55q-45 0 -81 7.5t-64 19.5z" />
    <glyph glyph-name="ae" unicode="&#xe6;" 
d="M698 384q0 34 -24.5 55t-58.5 21q-39 0 -64 -21.5t-25 -54.5h172zM461 549q31 24 68 40t80 16q111 0 171 -67.5t60 -192.5v-85h-317q1 -39 33.5 -65.5t67.5 -28.5q35 -3 74 12.5t57 39.5l77 -110q-46 -51 -91.5 -72t-99.5 -21q-35 0 -76 13t-57 34v-44h-139v42
q-17 -13 -39.5 -22.5t-63.5 -11.5q-97 -5 -152 43t-52 151q1 58 20 97t49 62q29 23 64 31.5t68 7.5q29 -2 55.5 -11t42.5 -21v10q0 30 -13.5 48t-43.5 24q-34 6 -66.5 -0.5t-72.5 -26.5l-53 112q55 31 104 41.5t94 10.5q47 -1 84 -15t67 -41zM297 149q26 3 46 20.5t22 39.5
v8q0 32 -15.5 48t-43.5 25q-36 10 -64.5 -9t-28.5 -63q-1 -36 25 -55t59 -14z" />
    <glyph glyph-name="eth" unicode="&#xf0;" 
d="M357 722l105 10q-7 12 -14.5 24t-14.5 23l172 38q10 -15 18.5 -30.5t17.5 -35.5l95 11l17 -136l-59 -6q21 -61 34.5 -135.5t16.5 -157.5v-40q0 -66 -22.5 -115.5t-61.5 -82.5q-40 -33 -95 -49.5t-120 -16.5q-66 0 -121 18t-95 53q-39 35 -61 86t-22 117q0 67 21.5 117.5
t60.5 84.5q39 33 92 49.5t115 17.5q18 0 44.5 -4t43.5 -7q-2 4 -3.5 10t-3.5 13q-2 6 -3.5 12.5t-2.5 11.5l-133 -13zM448 181q48 0 85.5 28.5t38.5 87.5q-1 57 -38.5 86.5t-85.5 29.5q-51 0 -90 -29.5t-38 -86.5q-1 -57 38 -86.5t90 -29.5z" />
    <glyph glyph-name="divide" unicode="&#xf7;" horiz-adv-x="550" 
d="M523 480v-150h-486v150h486zM280 546q-46 0 -76 26.5t-30 74.5q0 45 32 73t74 28q41 0 73.5 -28t32.5 -73q0 -48 -30.5 -74.5t-75.5 -26.5zM280 67q-46 0 -76 26.5t-30 74.5q0 45 32 73t74 28q41 0 73.5 -28t32.5 -73q0 -48 -30.5 -74.5t-75.5 -26.5z" />
    <glyph glyph-name="oslash" unicode="&#xf8;" 
d="M464 165q24 3 49 14t45 30t32.5 45t12.5 58q0 16 -4.5 31.5t-11.5 30.5zM437 459q-25 -3 -50 -14.5t-45 -30.5t-32.5 -45t-12.5 -57q0 -18 3.5 -34.5t11.5 -29.5zM450 13q-19 0 -37 1.5t-35 5.5l-36 -61l-147 92l28 48q-43 39 -67.5 93.5t-24.5 119.5q0 67 26.5 122.5
t71.5 94.5q44 39 101.5 60.5t119.5 21.5q18 0 36.5 -2.5t36.5 -5.5l40 68l147 -90l-34 -57q42 -39 67.5 -93t25.5 -119q0 -66 -25.5 -120.5t-68.5 -94.5q-44 -40 -102 -62t-123 -22z" />
    <glyph glyph-name="thorn" unicode="&#xfe;" 
d="M475 47q-40 3 -79.5 17.5t-63.5 39.5v-194h-172v867h172v-243q21 24 59.5 41.5t88.5 19.5q54 2 100.5 -14.5t81.5 -51.5q34 -36 53.5 -89t20.5 -123q1 -73 -19.5 -126t-55.5 -87q-36 -33 -84 -47.5t-102 -9.5zM442 200q23 -2 45.5 2.5t40.5 18.5t29 38.5t11 62.5
q0 34 -10.5 57t-26.5 37q-17 14 -37 20t-40 6q-51 0 -84 -35.5t-32 -94.5q0 -47 27 -78t77 -34z" />
    <glyph glyph-name="dcroat" unicode="&#x111;" 
d="M368 28q-46 -3 -91.5 8.5t-81.5 41.5q-36 29 -57.5 78t-19.5 122q1 64 23 113t57 82q36 33 81.5 49t95.5 14q48 -3 87 -17.5t63 -38.5v86h-262v145h262v67h172v-67h90v-145h-90v-530h-172v49q-26 -27 -69.5 -41t-87.5 -16zM409 169q51 4 80.5 31.5t29.5 70.5
q0 59 -34 90.5t-85 31.5q-20 0 -40 -6.5t-35 -20.5q-16 -13 -26 -34t-10 -49q0 -65 36.5 -91.5t83.5 -22.5z" />
    <glyph glyph-name="Hbar" unicode="&#x126;" 
d="M145 778h176v-95h258v95h176v-95h87v-155h-87v-492h-176v242h-258v-242h-176v492h-87v155h87v95zM321 528v-95h258v95h-258z" />
    <glyph glyph-name="hbar" unicode="&#x127;" 
d="M237 36v530h-89v145h89v67h175v-67h260v-145h-260v-96q18 15 52 26.5t70 14.5h13q100 0 152.5 -65t52.5 -164v-246h-175v181q0 77 -22 102.5t-60 22.5q-26 -3 -46.5 -12.5t-36.5 -26.5v-267h-175z" />
    <glyph glyph-name="dotlessi" unicode="&#x131;" 
d="M363 586h173v-550h-173v550z" />
    <glyph glyph-name="IJ" unicode="&#x132;" 
d="M128 778h178v-742h-178v742zM594 778h177v-493q0 -78 -12.5 -125.5t-48.5 -86.5q-33 -36 -88.5 -48t-106.5 -6q-36 4 -88 31.5t-94 81.5l106 126q28 -33 52.5 -46.5t48.5 -11.5q21 1 37.5 21t16.5 64v493z" />
    <glyph glyph-name="ij" unicode="&#x133;" 
d="M210 586h173v-550h-173v550zM383 644h-173v134h173v-134zM690 644h-173v134h173v-134zM690 85q0 -81 -21.5 -128t-72.5 -68q-44 -18 -92.5 -16.5t-90.5 14.5l8 145q16 -6 36.5 -8t30.5 4q18 7 23.5 26t5.5 51v481h173v-501z" />
    <glyph glyph-name="kgreenlandic" unicode="&#x138;" 
d="M331 182v-146h-174v550h174v-191l170 191h216l-208 -232l234 -318h-203l-147 207z" />
    <glyph glyph-name="Ldot" unicode="&#x13f;" 
d="M531 36h-345v742h178v-581h190q27 0 49 0.5t40 2.5q19 1 35.5 3t34.5 5v-158q-33 -9 -86.5 -11.5t-95.5 -2.5zM666 343h-167v171h167v-171z" />
    <glyph glyph-name="ldot" unicode="&#x140;" 
d="M224 793h174v-757h-174v757zM676 343h-167v171h167v-171z" />
    <glyph glyph-name="Lslash" unicode="&#x141;" 
d="M621 36h-345v239l-123 -53l-56 157l179 75v324h178v-250l202 85l56 -150l-258 -111v-155h190q27 0 49 0.5t40 2.5q19 1 35.5 3t34.5 5v-158q-33 -9 -86.5 -11.5t-95.5 -2.5z" />
    <glyph glyph-name="lslash" unicode="&#x142;" 
d="M363 793h174v-251l117 62l68 -145l-185 -101v-322h-174v227l-115 -62l-70 152l185 97v343z" />
    <glyph glyph-name="napostrophe" unicode="&#x149;" 
d="M194 36v550h175v-32q18 15 52.5 28.5t70.5 16.5h16q100 0 148 -62.5t49 -164.5v-336h-175v261q0 43 -5.5 69.5t-15.5 40.5q-9 14 -23.5 18.5t-32.5 4.5q-29 -2 -46 -10t-38 -24v-360h-175zM196 835h177v-106l-18 -110h-119l5 65h-45v151z" />
    <glyph glyph-name="Eng" unicode="&#x14a;" 
d="M755 76q-1 -77 -20 -122t-64 -66q-43 -21 -97 -18t-96 16l8 145q22 -6 41 -7t30 5q15 8 20 21t5 39l-261 408v-461h-176v742h173l261 -406v406h176v-702z" />
    <glyph glyph-name="eng" unicode="&#x14b;" 
d="M194 36v550h175v-32q18 15 52.5 28.5t70.5 16.5h16q100 0 148 -62.5t49 -164.5v-288q0 -81 -19 -127.5t-66 -68.5q-43 -21 -97 -18t-96 16l7 145q22 -6 41 -7t30 5q15 8 20 21t5 39v208q0 43 -5.5 69.5t-15.5 40.5q-9 14 -23.5 18.5t-32.5 4.5q-29 -2 -46 -10t-38 -24
v-360h-175z" />
    <glyph glyph-name="OE" unicode="&#x152;" 
d="M367 36q-135 0 -207 95.5t-72 275.5q0 179 73.5 275.5t205.5 96.5q6 0 13.5 -0.5t15.5 -0.5h417v-158h-203q11 -30 20.5 -63.5t12.5 -71.5h151v-154h-151q-3 -39 -12 -72.5t-21 -64.5h49h46h35q17 1 33 1.5t37 2.5v-155q-18 -3 -39.5 -4.5t-44.5 -2.5t-46 -0.5t-44 0.5
h-269zM369 206q52 0 79 44.5t27 156.5q0 105 -27 153t-79 49q-53 -1 -85 -49t-31 -153q-1 -112 31 -156.5t85 -44.5z" />
    <glyph glyph-name="oe" unicode="&#x153;" 
d="M391 291v11.5v22.5q0 61 -26.5 93.5t-66.5 32.5t-64 -37t-24 -104q0 -72 23 -106.5t65 -34.5q38 0 65.5 29.5t27.5 92.5zM467 528q24 36 68.5 56.5t84.5 20.5q100 0 162 -73.5t62 -206.5v-75h-292q1 -39 28.5 -60.5t62.5 -23.5q35 -3 61.5 12.5t44.5 39.5l82 -105
q-41 -54 -96 -76t-103 -22q-22 0 -46 4.5t-47 14.5t-42 24t-31 32q-23 -33 -71.5 -51t-96.5 -18q-55 0 -99.5 15t-76.5 50q-32 34 -49 89t-17 135q0 71 18 125t50 91q32 36 76.5 54.5t97.5 18.5q51 0 98 -18.5t71 -52.5zM702 384q-1 33 -20.5 54.5t-47.5 21.5
q-29 0 -51.5 -22t-22.5 -54h142z" />
    <glyph glyph-name="Tbar" unicode="&#x166;" 
d="M167 778h565v-159h-196v-106h176v-159h-176v-318h-178v318h-171v159h171v106h-191v159z" />
    <glyph glyph-name="tbar" unicode="&#x167;" 
d="M536 267q0 -32 5 -48t22 -22q11 -4 23.5 -3t36.5 10l29 -153q-39 -18 -95 -23t-100 13q-52 21 -73 68t-21 126v38h-141v146h141v41h-110v146h110v172h173v-172h112v-146h-112v-41h141v-146h-141v-6z" />
    <glyph glyph-name="caron" unicode="&#x2c7;" 
d="M451 734l91 91h160l-251 -240l-253 240h160z" />
    <glyph glyph-name="uni02D0" unicode="&#x2d0;" 
d="M594 729l-146 -274l-144 274h290zM304 81l144 269l147 -269h-291z" />
    <glyph glyph-name="breve" unicode="&#x2d8;" 
d="M450 575q-133 0 -192.5 67t-59.5 183h155q3 -57 26.5 -83.5t70.5 -26.5q46 0 69.5 26.5t27.5 83.5h155q0 -116 -60 -183t-192 -67z" />
    <glyph glyph-name="dotaccent" unicode="&#x2d9;" 
d="M450 590q-56 0 -92.5 31.5t-36.5 91.5q0 55 39 89t90 34q50 0 89.5 -34t39.5 -89q0 -60 -37 -91.5t-92 -31.5z" />
    <glyph glyph-name="ring" unicode="&#x2da;" 
d="M450 587q-57 0 -94.5 32.5t-37.5 93.5q0 57 40 91.5t92 34.5q51 0 91.5 -34.5t40.5 -91.5q0 -61 -37.5 -93.5t-94.5 -32.5zM450 683q13 0 22 9t9 21q0 11 -8 20.5t-23 9.5t-23 -9.5t-8 -20.5q0 -12 8.5 -21t22.5 -9z" />
    <glyph glyph-name="ogonek" unicode="&#x2db;" 
d="M576 -111l-252 222l252 225v-154l-90 -71l90 -70v-152z" />
    <glyph glyph-name="hungarumlaut" unicode="&#x2dd;" 
d="M312 825h153l-100 -240h-121zM507 825h148l-115 -240h-131z" />
    <glyph glyph-name="Alpha" unicode="&#x391;" 
d="M807 36h-194l-53 135h-226l-49 -135h-193l275 742h157zM449 561l-67 -230h130z" />
    <glyph glyph-name="Beta" unicode="&#x392;" 
d="M149 36v742h298q140 0 204.5 -48.5t71.5 -127.5q3 -24 -1.5 -49t-15.5 -48q-11 -22 -29 -40.5t-41 -28.5q57 -27 84.5 -86t21.5 -122q-10 -93 -73.5 -142.5t-184.5 -49.5h-335zM323 621v-122h156q33 2 51.5 18t18.5 44q0 27 -20 43.5t-56 16.5h-150zM323 348v-155h154
q52 -1 71 22t19 56q0 30 -22 53.5t-76 23.5h-146z" />
    <glyph glyph-name="Gamma" unicode="&#x393;" 
d="M516 778q42 0 95.5 -3t86.5 -11v-158q-18 2 -34.5 4t-35.5 3q-18 2 -40 3t-49 1h-160v-581h-178v742h315z" />
    <glyph glyph-name="uni0394" unicode="&#x394;" 
d="M341 177h217l-109 330zM506 778l264 -742h-640l253 742h123z" />
    <glyph glyph-name="Epsilon" unicode="&#x395;" 
d="M730 620h-391v-135l372 1v-155h-372v-137h237q27 0 48.5 0.5t40.5 2.5q18 1 35 3t35 5v-155q-33 -9 -86.5 -11.5t-95.5 -2.5h-389v742h566v-158z" />
    <glyph glyph-name="Zeta" unicode="&#x396;" 
d="M556 196q53 0 87 2.5t70 8.5v-157q-33 -9 -86.5 -11.5t-96.5 -2.5h-344v63l272 519h-253v160h496v-76l-266 -506h121z" />
    <glyph glyph-name="Eta" unicode="&#x397;" 
d="M145 778h178v-280h254v280h178v-742h-178v302h-254v-302h-178v742z" />
    <glyph glyph-name="Theta" unicode="&#x398;" 
d="M450 17q-85 0 -154 24.5t-119 73.5q-49 49 -76.5 122t-27.5 169q0 93 27.5 165.5t76.5 121.5q50 50 119 76t154 26q84 0 153.5 -26t118.5 -76q50 -49 77 -121.5t28 -165.5q-1 -96 -28 -169t-77 -122q-49 -49 -118.5 -73.5t-153.5 -24.5zM310 486h281v-160h-281v160z
M450 167q96 0 154 60.5t58 178.5q0 116 -59.5 177.5t-152.5 61.5q-94 0 -153 -61.5t-59 -177.5q0 -118 58 -178.5t154 -60.5z" />
    <glyph glyph-name="Iota" unicode="&#x399;" 
d="M361 778h178v-742h-178v742z" />
    <glyph glyph-name="Kappa" unicode="&#x39a;" 
d="M318 186v-150h-175v742h175v-331l237 331h194l-222 -315l230 -427h-190l-155 277z" />
    <glyph glyph-name="Lambda" unicode="&#x39b;" 
d="M449 561l-164 -525h-193l275 742h157l283 -742h-194z" />
    <glyph glyph-name="Mu" unicode="&#x39c;" 
d="M365 36l-134 481h-5l-4 -481h-183l46 742h205l157 -515h5l158 515h205l46 -742h-183l-4 481h-5l-134 -481h-170z" />
    <glyph glyph-name="Nu" unicode="&#x39d;" 
d="M321 497v-461h-176v742h173l261 -446v446h176v-742h-164z" />
    <glyph glyph-name="Xi" unicode="&#x39e;" 
d="M146 587v191h607v-191h-160v51h-287v-51h-160zM753 297v-191h-607v191h160v-51h287v51h160zM191 511h517v-140h-517v140z" />
    <glyph glyph-name="Omicron" unicode="&#x39f;" 
d="M448 17q-84 0 -150 27t-111 77q-46 50 -69.5 122.5t-23.5 162.5t23.5 162t69.5 122q45 50 111 77.5t150 27.5t150.5 -27.5t112.5 -77.5t70.5 -122t24.5 -162t-24.5 -162.5t-70.5 -122.5t-112.5 -77t-150.5 -27zM450 187q78 0 127 59t49 160q0 47 -13.5 87t-36.5 70
q-23 29 -55.5 45.5t-70.5 16.5q-39 0 -71.5 -16.5t-55.5 -45.5q-23 -30 -36 -70t-13 -87q0 -101 48.5 -160t127.5 -59z" />
    <glyph glyph-name="Pi" unicode="&#x3a0;" 
d="M156 36v742h587v-742h-165v592h-257v-592h-165z" />
    <glyph glyph-name="Rho" unicode="&#x3a1;" 
d="M152 778h283q152 0 232.5 -69t80.5 -192q0 -51 -20 -97.5t-57 -81.5q-38 -35 -92.5 -55.5t-123.5 -20.5h-126v-226h-177v742zM329 421h134q57 0 84.5 31.5t27.5 68.5q0 40 -28.5 68.5t-81.5 28.5h-136v-197z" />
    <glyph glyph-name="Sigma" unicode="&#x3a3;" 
d="M410 407l-260 330v41h600v-145h-327l175 -226l-175 -226h327v-145h-600v41z" />
    <glyph glyph-name="Tau" unicode="&#x3a4;" 
d="M167 778h565v-164h-196v-578h-178v578h-191v164z" />
    <glyph glyph-name="Upsilon" unicode="&#x3a5;" 
d="M542 324v-288h-182v288l-255 454h206l139 -282l139 282h206z" />
    <glyph glyph-name="Phi" unicode="&#x3a6;" 
d="M365 122q-130 17 -201 89.5t-71 204.5q0 119 71 196t201 97v69h169v-69q129 -20 201 -96.5t72 -196.5q0 -132 -72 -205t-201 -89v-86h-169v86zM534 281q50 13 79 45.5t29 89.5q0 53 -29.5 86t-78.5 47v-268zM365 549q-50 -15 -78.5 -47.5t-28.5 -85.5q0 -57 28 -89.5
t79 -45.5v268z" />
    <glyph glyph-name="Chi" unicode="&#x3a7;" 
d="M109 778h216l126 -230l127 230h214l-216 -371l224 -371h-215l-134 230l-135 -230h-216l214 371z" />
    <glyph glyph-name="Psi" unicode="&#x3a8;" 
d="M365 778h169v-347q42 12 58.5 40t16.5 70v237h168v-262q0 -106 -62.5 -172.5t-180.5 -83.5v-224h-169v224q-119 17 -180.5 83.5t-61.5 172.5v262h168v-237q0 -42 15.5 -69.5t58.5 -39.5v346z" />
    <glyph glyph-name="uni03A9" unicode="&#x3a9;" 
d="M676 36h-182v297h4q61 11 93 49.5t32 103.5t-46.5 109.5t-125.5 44.5q-80 0 -126 -44.5t-46 -109.5t31.5 -103.5t93.5 -49.5h4v-297h-298v151h130v35q-57 31 -91.5 95.5t-34.5 158.5q0 65 21 123t63 101q42 44 105 69.5t148 25.5q84 0 147 -25.5t105 -69.5
q42 -43 63.5 -101t21.5 -123q0 -94 -35 -158.5t-91 -95.5v-35h40q14 0 37 0.5t50 4.5v-148q-24 -5 -49.5 -6.5t-63.5 -1.5z" />
    <glyph glyph-name="alpha" unicode="&#x3b1;" 
d="M391 182q44 0 75.5 21.5t40.5 67.5q0 3 1 13.5t1 13.5q0 70 -33 108t-81 38q-41 2 -76 -30.5t-35 -99.5q0 -66 30.5 -99t76.5 -33zM686 270q0 -32 4 -46.5t21 -20.5q11 -4 22 -2.5t31 10.5l29 -157q-44 -25 -98 -28.5t-91 6.5q-29 7 -52 21.5t-34 35.5q-20 -28 -62.5 -44
t-85.5 -16q-55 0 -103 17t-84 52q-35 35 -54.5 88.5t-17.5 127.5q2 73 24.5 127.5t59.5 89.5q36 35 83.5 51.5t98.5 14.5q43 -3 78 -20t58 -41v50h173v-316z" />
    <glyph glyph-name="beta" unicode="&#x3b2;" 
d="M156 -89v680q0 86 50.5 143.5t146.5 58.5h71q120 0 184 -50.5t82 -128.5q4 -23 3.5 -49t-8.5 -50t-23 -45t-39 -34q57 -27 87 -85t19 -133q-13 -87 -67.5 -142t-165.5 -55q-56 0 -99.5 11t-73.5 29v-150h-167zM390 348v141h56q42 1 61.5 22.5t18.5 54.5q-2 28 -25 51.5
t-71 23.5h-32q-37 0 -57.5 -28t-20.5 -70v-320q18 -27 60.5 -41t80.5 -14q45 0 72.5 22t30.5 61q2 36 -26 66t-92 31h-56z" />
    <glyph glyph-name="gamma" unicode="&#x3b3;" 
d="M164 586h187q18 -40 32.5 -75t25.5 -72q12 -36 22 -76t19 -89q34 77 57.5 153.5t41.5 158.5h186q-43 -141 -90.5 -267.5t-114.5 -252.5l36 -154h-181l-29 121q-11 42 -31 109.5t-45 143.5q-26 77 -56 155.5t-60 144.5z" />
    <glyph glyph-name="delta" unicode="&#x3b4;" 
d="M448 181q50 0 89 27.5t39 93.5q0 63 -39 92t-89 29q-49 0 -86.5 -29t-37.5 -92q0 -66 37.5 -93.5t86.5 -27.5zM450 23q-66 0 -121 19t-95 55q-39 36 -61 87.5t-22 117.5q0 72 27 127t74 91q-25 42 -25 95t28 92q32 45 77.5 67.5t109.5 26.5q29 1 62.5 -3t64.5 -12
t56.5 -18.5t39.5 -21.5l-81 -116q-28 17 -67 22.5t-63 -0.5q-9 -3 -14.5 -12t-2.5 -20q3 -12 16.5 -23t43.5 -17l-3 -2q53 -6 99.5 -27t81.5 -56q34 -35 54 -83.5t20 -109.5q0 -66 -22.5 -117.5t-61.5 -87.5q-40 -36 -95 -55t-120 -19z" />
    <glyph glyph-name="epsilon" unicode="&#x3b5;" 
d="M693 67q-44 -26 -96 -38.5t-102 -14.5q-50 -1 -93.5 8t-70.5 27q-39 22 -61.5 60t-26.5 79q-5 40 11 77.5t55 59.5q-20 17 -30.5 44t-10.5 58t10 61.5t32 55.5q28 30 69.5 47.5t91.5 20.5q49 3 102.5 -9t104.5 -39l-47 -134q-56 33 -101.5 34t-61.5 -11q-12 -8 -11 -22.5
t13 -23.5l11 -5.5t13 -4.5t22 -3t38 -1h40v-141h-45q-26 0 -41 -1.5t-25 -3.5t-16 -5t-13 -6q-17 -11 -16 -31t19 -30q7 -7 26 -9t44 0t52.5 8.5t53.5 17.5z" />
    <glyph glyph-name="zeta" unicode="&#x3b6;" 
d="M507 23q-57 3 -103 15.5t-74 33.5q-54 39 -74.5 104t-1.5 167q4 23 16 56t32 71q19 38 47 78.5t64 79.5h-150v150h316l46 -136q-32 -20 -59.5 -46t-54.5 -61q-39 -51 -63.5 -97.5t-33.5 -97.5q-9 -47 1.5 -86.5t40.5 -59.5q27 -19 76.5 -30t109.5 -4l28 -29
q0 -41 -5.5 -97t-22.5 -109l-150 27z" />
    <glyph glyph-name="eta" unicode="&#x3b7;" 
d="M194 36v550h175v-32q18 15 52.5 28.5t70.5 16.5h16q100 0 148 -62.5t49 -164.5v-461h-175v386q0 43 -5.5 69.5t-15.5 40.5q-9 14 -23.5 18.5t-32.5 4.5q-29 -2 -46 -10t-38 -24v-360h-175z" />
    <glyph glyph-name="theta" unicode="&#x3b8;" 
d="M334 486h232q-4 92 -35 125.5t-81 33.5q-51 0 -82 -33.5t-34 -125.5zM566 326h-232v-7q0 -85 30 -118.5t86 -33.5q54 0 85 33.5t31 118.5v7zM450 17q-147 0 -212 93.5t-65 295.5q0 186 65.5 287.5t211.5 101.5q145 0 210.5 -101.5t66.5 -287.5q0 -202 -65 -295.5
t-212 -93.5z" />
    <glyph glyph-name="iota" unicode="&#x3b9;" 
d="M331 165v421h173v-381q0 -24 2.5 -38.5t8.5 -21.5q6 -9 15 -12.5t30 -3.5l8 -145q-43 -13 -86.5 -12.5t-76.5 17.5q-38 18 -56 56.5t-18 119.5z" />
    <glyph glyph-name="kappa" unicode="&#x3ba;" 
d="M346 202v-166h-174v549h174v-160l150 161h206l-198 -212l224 -338h-203l-137 212z" />
    <glyph glyph-name="lambda" unicode="&#x3bb;" 
d="M735 35h-187q-19 39 -33.5 74t-25.5 72q-12 36 -21.5 76t-18.5 90q-35 -78 -58.5 -154.5t-40.5 -157.5h-186q42 140 89.5 266.5t115.5 253.5l-48 180h181l41 -147q10 -43 30 -110.5t45 -143.5q26 -77 56 -155.5t61 -143.5z" />
    <glyph glyph-name="uni03BC" unicode="&#x3bc;" 
d="M376 275q0 -47 21.5 -61.5t48.5 -11.5t46.5 14.5t31.5 29.5v340h175v-550h-175v42q-19 -16 -44.5 -29t-52.5 -16q-14 -2 -26.5 0t-24.5 5v-126h-175v674h175v-311z" />
    <glyph glyph-name="nu" unicode="&#x3bd;" 
d="M356 36q-11 42 -31 109t-45 143q-26 76 -56 154t-60 144h187q18 -40 32.5 -75t25.5 -72q12 -36 22 -76t19 -89q34 77 57.5 153.5t41.5 158.5h186q-43 -141 -91.5 -282.5t-115.5 -267.5h-172z" />
    <glyph glyph-name="xi" unicode="&#x3be;" 
d="M506 23q-20 -2 -44 -0.5t-48 6.5q-24 4 -44 10t-32 12q-46 22 -74.5 71t-25.5 96q3 72 44 118.5t110 60.5q-51 20 -71 52.5t-17 75.5q1 33 22 66t51 47h-120v140h316l46 -136q-30 -2 -50 -6.5t-41 -12.5q-26 -11 -44.5 -35.5t-18.5 -52.5q0 -30 25.5 -48.5t67.5 -21.5
v-122q-63 -1 -101.5 -23.5t-38.5 -74.5q-1 -37 23 -58.5t52 -26.5q34 -7 66.5 -3.5t71.5 18.5l33 -44q-4 -55 -10.5 -105.5t-17.5 -100.5l-150 27z" />
    <glyph glyph-name="omicron" unicode="&#x3bf;" 
d="M448 181q50 0 89 32.5t39 98.5q0 63 -39 97t-89 34q-49 0 -86.5 -34t-37.5 -97q0 -66 37.5 -98.5t86.5 -32.5zM450 23q-66 0 -121 20.5t-95 58.5q-39 38 -61 91t-22 119q0 67 23.5 121t64.5 91q40 37 94.5 57t116.5 20q61 0 115.5 -20t95.5 -57q40 -37 64 -91t24 -121
q0 -66 -22.5 -119t-61.5 -91q-40 -38 -95 -58.5t-120 -20.5z" />
    <glyph glyph-name="pi" unicode="&#x3c0;" 
d="M491 436h-90v-400h-165v400h-78v150h574v-150h-81v-169q0 -32 5 -48t17 -22q9 -3 18.5 -2.5t21.5 5.5l29 -149q-33 -21 -79 -23t-83 13q-48 18 -68.5 61.5t-20.5 112.5v221z" />
    <glyph glyph-name="rho" unicode="&#x3c1;" 
d="M446 181q22 -3 44 3t39 22q18 15 28.5 41.5t10.5 64.5q0 34 -10.5 58.5t-26.5 40.5t-36.5 23.5t-40.5 7.5q-51 0 -83.5 -40t-32.5 -106q0 -44 27.5 -76.5t80.5 -38.5zM244 514q34 38 82 59.5t134 21.5q54 0 104 -19t88 -55q37 -36 60 -90t24 -124q1 -73 -19 -126t-55 -87
q-36 -34 -84 -50t-103 -16q-39 0 -82 14t-61 38v-169h-172v304q0 110 18 177.5t66 121.5z" />
    <glyph glyph-name="sigma" unicode="&#x3c3;" 
d="M420 181q50 0 89 29t39 95q0 63 -39 93.5t-89 30.5q-49 0 -86.5 -30.5t-37.5 -93.5q0 -66 37.5 -95t86.5 -29zM422 23q-66 0 -121 19.5t-95 55.5q-39 37 -61 89t-22 118q0 67 23.5 119.5t64.5 88.5q40 36 94.5 54.5t116.5 18.5h355v-154h-113q18 -18 36.5 -55.5
t20.5 -91.5q0 -61 -22.5 -109.5t-61.5 -82.5q-40 -34 -95 -52t-120 -18z" />
    <glyph glyph-name="tau" unicode="&#x3c4;" 
d="M530 431v-227q0 -24 2.5 -38.5t8.5 -21.5q6 -9 15 -12.5t30 -3.5l11 -145q-43 -13 -86.5 -12.5t-76.5 17.5q-38 18 -56 56.5t-18 119.5v267h-121v155h421v-155h-130z" />
    <glyph glyph-name="upsilon" unicode="&#x3c5;" 
d="M450 15q-118 0 -186.5 61.5t-68.5 193.5v316h170v-284q0 -63 20.5 -92.5t63.5 -29.5t61.5 36t16.5 129q-2 59 -9 116t-19 125h169q16 -69 24.5 -155t2.5 -186q-8 -109 -71.5 -169.5t-173.5 -60.5z" />
    <glyph glyph-name="phi" unicode="&#x3c6;" 
d="M364 505q0 54 25 75t64 21q74 0 135 -19.5t104 -56.5t66.5 -91t23.5 -122q0 -117 -66.5 -188.5t-173.5 -92.5v-130h-178v129q-105 18 -167.5 79.5t-72.5 162.5q-6 51 0.5 104.5t27.5 101.5l167 -45q-15 -28 -21 -63t-1 -68q5 -39 22.5 -64.5t44.5 -34.5v302zM542 432
v-235q34 14 53 43t19 72q0 45 -18 75t-54 45z" />
    <glyph glyph-name="chi" unicode="&#x3c7;" 
d="M151 586h200l97 -217l97 217h195l-180 -338l194 -337h-198l-108 208l-108 -208h-195l191 337z" />
    <glyph glyph-name="psi" unicode="&#x3c8;" 
d="M372 585h155v-396q31 10 45.5 33t14.5 59v304h154v-341q0 -94 -59 -147.5t-155 -68.5v-116h-155v116q-96 15 -155 69t-59 147v341h154v-304q0 -36 13.5 -59t46.5 -33v396z" />
    <glyph glyph-name="omega" unicode="&#x3c9;" 
d="M449 98q-25 -41 -66 -59t-85 -15q-44 4 -84.5 28.5t-63.5 69.5q-22 40 -31.5 102.5t-6.5 131.5t18 136.5t42 118.5l145 -48q-11 -30 -19.5 -73t-13.5 -88t-5 -85.5t7 -63.5q9 -30 34 -31t37 25q9 22 12.5 65.5t3.5 100.5v53h151v-53q-1 -29 -1 -54t1 -46q2 -21 5.5 -37.5
t10.5 -28.5q13 -25 37.5 -24.5t33.5 30.5q6 23 6 63.5t-5 85.5t-13.5 88t-18.5 73l145 48q26 -51 41.5 -119.5t18.5 -137.5q3 -70 -6.5 -132t-31.5 -101q-26 -44 -67 -68.5t-84 -28.5q-43 -3 -83 15t-64 59z" />
    <glyph glyph-name="uni0401" unicode="&#x401;" 
d="M730 562h-391v-108h372v-152h-372v-110h237q27 0 48.5 0.5t40.5 2.5q18 1 35 3t35 5v-153q-33 -9 -86.5 -11.5t-95.5 -2.5h-389v682h566v-156zM498 885h158v-134h-158v134zM242 885h157v-134h-157v134z" />
    <glyph glyph-name="uni0410" unicode="&#x410;" 
d="M807 36h-194l-53 135h-226l-49 -135h-193l275 742h157zM449 561l-67 -230h130z" />
    <glyph glyph-name="uni0411" unicode="&#x411;" 
d="M326 348v-155h149q52 -1 73.5 22t21.5 56q0 30 -22 53.5t-76 23.5h-146zM694 778v-157h-368v-122h146q69 0 120.5 -21.5t85.5 -56.5q34 -36 51 -81t16 -92q-3 -93 -72.5 -152.5t-190.5 -59.5h-330v742h542z" />
    <glyph glyph-name="uni0412" unicode="&#x412;" 
d="M149 36v742h298q140 0 204.5 -48.5t71.5 -127.5q3 -24 -1.5 -49t-15.5 -48q-11 -22 -29 -40.5t-41 -28.5q57 -27 84.5 -86t21.5 -122q-10 -93 -73.5 -142.5t-184.5 -49.5h-335zM323 621v-122h156q33 2 51.5 18t18.5 44q0 27 -20 43.5t-56 16.5h-150zM323 348v-155h154
q52 -1 71 22t19 56q0 30 -22 53.5t-76 23.5h-146z" />
    <glyph glyph-name="uni0413" unicode="&#x413;" 
d="M516 778q42 0 95.5 -3t86.5 -11v-158q-18 2 -34.5 4t-35.5 3q-18 2 -40 3t-49 1h-160v-581h-178v742h315z" />
    <glyph glyph-name="uni0414" unicode="&#x414;" 
d="M161 191q6 20 11 38.5t9 39.5t6 46.5t3 59.5v402h557v-586h77v-280h-178v125h-392v-125h-178v280h85zM582 191v436h-227v-242q0 -51 -4 -99.5t-14 -94.5h245z" />
    <glyph glyph-name="uni0415" unicode="&#x415;" 
d="M730 620h-391v-135l372 1v-155h-372v-137h237q27 0 48.5 0.5t40.5 2.5q18 1 35 3t35 5v-155q-33 -9 -86.5 -11.5t-95.5 -2.5h-389v742h566v-158z" />
    <glyph glyph-name="uni0416" unicode="&#x416;" 
d="M731 405q0 -94 45 -151.5t106 -72.5l-40 -165q-52 9 -97.5 32t-81.5 62q-36 38 -60 91.5t-32 125.5h-33v-292h-168v292h-40q-9 -72 -33 -125.5t-60 -91.5q-36 -39 -81.5 -62t-96.5 -32l-40 165q60 15 105.5 72.5t45.5 151.5q0 95 -45.5 151.5t-105.5 72.5l40 165
q48 -8 92 -30.5t80 -59.5q36 -38 61.5 -91t36.5 -121h41v285h168v-285h34q10 68 35.5 121t61.5 91q36 37 80.5 59.5t92.5 30.5l40 -165q-61 -16 -106 -72.5t-45 -151.5z" />
    <glyph glyph-name="uni0417" unicode="&#x417;" 
d="M328 329l-14 153q39 0 67.5 0.5t44.5 1.5q46 3 70 20.5t21 54.5q-4 39 -32.5 55t-81.5 13q-31 -3 -74 -16.5t-86 -34.5l-54 156q51 25 99.5 40.5t110.5 18.5q109 5 183 -27t101 -113q10 -32 11.5 -67t-7.5 -68t-29 -61.5t-51 -46.5q31 -19 51 -47.5t29 -61.5
q9 -34 7.5 -69t-11.5 -66q-27 -82 -101 -114t-183 -26q-62 3 -110.5 18t-99.5 41l54 156q43 -22 86 -35.5t74 -15.5q53 -4 82 9.5t32 53.5q3 41 -25 62.5t-70 18.5z" />
    <glyph glyph-name="uni0418" unicode="&#x418;" 
d="M321 497v-461h-176v742h173l261 -446v446h176v-742h-164z" />
    <glyph glyph-name="uni0419" unicode="&#x419;" 
d="M321 437v-401h-176v682h173l261 -386v386h176v-682h-164zM452 742q-85 0 -130 38t-50 107h144q1 -18 9 -27t27 -9q18 0 26 9t10 27h144q-6 -69 -51 -107t-129 -38z" />
    <glyph glyph-name="uni041A" unicode="&#x41a;" 
d="M318 186v-150h-175v742h175v-331l237 331h194l-222 -315l230 -427h-190l-155 277z" />
    <glyph glyph-name="uni041B" unicode="&#x41b;" 
d="M298 285v493h557v-742h-165v592h-227v-343q0 -58 -9.5 -109.5t-36.5 -87.5q-29 -39 -76.5 -56t-101.5 -13q-54 3 -103 27t-91 76l106 126q26 -33 52 -45t49 -5q28 9 37 29.5t9 57.5z" />
    <glyph glyph-name="uni041C" unicode="&#x41c;" 
d="M365 36l-134 481h-5l-4 -481h-183l46 742h205l157 -515h5l158 515h205l46 -742h-183l-4 481h-5l-134 -481h-170z" />
    <glyph glyph-name="uni041D" unicode="&#x41d;" 
d="M145 778h178v-280h254v280h178v-742h-178v302h-254v-302h-178v742z" />
    <glyph glyph-name="uni041E" unicode="&#x41e;" 
d="M448 17q-84 0 -150 27t-111 77q-46 50 -69.5 122.5t-23.5 162.5t23.5 162t69.5 122q45 50 111 77.5t150 27.5t150.5 -27.5t112.5 -77.5t70.5 -122t24.5 -162t-24.5 -162.5t-70.5 -122.5t-112.5 -77t-150.5 -27zM450 187q78 0 127 59t49 160q0 47 -13.5 87t-36.5 70
q-23 29 -55.5 45.5t-70.5 16.5q-39 0 -71.5 -16.5t-55.5 -45.5q-23 -30 -36 -70t-13 -87q0 -101 48.5 -160t127.5 -59z" />
    <glyph glyph-name="uni041F" unicode="&#x41f;" 
d="M156 36v742h587v-742h-170v582h-247v-582h-170z" />
    <glyph glyph-name="uni0420" unicode="&#x420;" 
d="M152 778h283q152 0 232.5 -69t80.5 -192q0 -51 -20 -97.5t-57 -81.5q-38 -35 -92.5 -55.5t-123.5 -20.5h-126v-226h-177v742zM329 421h134q57 0 84.5 31.5t27.5 68.5q0 40 -28.5 68.5t-81.5 28.5h-136v-197z" />
    <glyph glyph-name="uni0421" unicode="&#x421;" 
d="M135 406q0 124 45.5 210.5t127.5 137.5q24 15 57.5 24.5t68.5 13.5q36 4 70.5 3.5t63.5 -6.5q48 -10 96.5 -39t99.5 -85l-108 -112q-49 54 -106.5 68.5t-108.5 -2.5q-63 -21 -97.5 -74.5t-34.5 -138.5q0 -44 11.5 -80.5t30.5 -64.5q19 -27 43 -45t48 -24q27 -7 56.5 -6.5
t58.5 8.5q28 8 54 24t45 42l108 -114q-49 -57 -97 -86t-99 -38q-29 -6 -63.5 -6.5t-70.5 3.5q-35 4 -68.5 13.5t-57.5 24.5q-82 51 -127.5 137t-45.5 212z" />
    <glyph glyph-name="uni0422" unicode="&#x422;" 
d="M167 778h565v-164h-196v-578h-178v578h-191v164z" />
    <glyph glyph-name="uni0423" unicode="&#x423;" 
d="M353 284l-200 493h198l108 -261l94 261h194l-286 -755l-204 14z" />
    <glyph glyph-name="uni0424" unicode="&#x424;" 
d="M365 122q-130 17 -201 89.5t-71 204.5q0 119 71 196t201 97v69h169v-69q129 -20 201 -96.5t72 -196.5q0 -132 -72 -205t-201 -89v-86h-169v86zM534 281q50 13 79 45.5t29 89.5q0 53 -29.5 86t-78.5 47v-268zM365 549q-50 -15 -78.5 -47.5t-28.5 -85.5q0 -57 28 -89.5
t79 -45.5v268z" />
    <glyph glyph-name="uni0425" unicode="&#x425;" 
d="M109 778h216l126 -230l127 230h214l-216 -371l224 -371h-215l-134 230l-135 -230h-216l214 371z" />
    <glyph glyph-name="uni0426" unicode="&#x426;" 
d="M783 -89h-165v125h-502v742h170v-582h247v582h170v-592h80v-275z" />
    <glyph glyph-name="uni0427" unicode="&#x427;" 
d="M727 778v-742h-175v218q-10 -8 -26.5 -15t-36.5 -12q-20 -6 -40.5 -9.5t-38.5 -4.5h-13q-51 0 -92.5 17t-70.5 48q-30 30 -46 72t-16 92v336h175v-256q0 -39 8.5 -64t22.5 -39q15 -15 33 -19.5t38 -2.5q25 2 55.5 11.5t47.5 27.5v342h175z" />
    <glyph glyph-name="uni0428" unicode="&#x428;" 
d="M94 778h160v-592h116v591h160v-591h116v592h160v-742h-712v742z" />
    <glyph glyph-name="uni0429" unicode="&#x429;" 
d="M843 -89h-160v125h-627v742h160v-592h116v591h160v-591h116v592h160v-592h75v-275z" />
    <glyph glyph-name="uni042A" unicode="&#x42a;" 
d="M384 353v-162h149q52 -1 73.5 23.5t21.5 57.5q0 30 -22 55.5t-76 25.5h-146zM384 508h146q69 0 120.5 -23t85.5 -60t51 -83.5t16 -93.5q-3 -93 -72.5 -152.5t-190.5 -59.5h-330v582h-116v160h290v-270z" />
    <glyph glyph-name="uni042B" unicode="&#x42b;" 
d="M660 778h178v-742h-178v742zM236 353v-162h104q52 -1 76 23.5t24 57.5q0 30 -24.5 55.5t-78.5 25.5h-101zM236 778v-270h111q69 0 119.5 -23t84.5 -60q33 -37 49 -83.5t15 -93.5q-3 -93 -70 -152.5t-188 -59.5h-295v742h174z" />
    <glyph glyph-name="uni042C" unicode="&#x42c;" 
d="M326 353v-162h149q52 -1 73.5 23.5t21.5 57.5q0 30 -22 55.5t-76 25.5h-146zM326 778v-270h146q69 0 120.5 -23t85.5 -60t51 -83.5t16 -93.5q-3 -93 -72.5 -152.5t-190.5 -59.5h-330v742h174z" />
    <glyph glyph-name="uni042D" unicode="&#x42d;" 
d="M577 483q-3 33 -19 59.5t-40 44.5t-54.5 28t-62.5 10q-63 0 -108 -16t-95 -45l-65 161q57 33 125 51.5t141 18.5q180 0 274 -104.5t94 -284.5t-94 -284.5t-274 -104.5q-73 0 -141 18.5t-125 51.5l65 161q50 -30 95 -45.5t108 -15.5q32 0 62.5 9.5t54.5 27.5t40 44.5
t19 60.5h-334v154h334z" />
    <glyph glyph-name="uni042E" unicode="&#x42e;" 
d="M46 778h168v-285h62q14 150 83.5 226t203.5 76q151 0 221 -97.5t70 -291.5q0 -210 -76 -299.5t-215 -89.5q-126 0 -200 72t-88 239h-61v-292h-168v742zM563 630q-60 -2 -90.5 -54.5t-30.5 -171.5q0 -118 30.5 -171t90.5 -51q60 -1 90.5 52.5t30.5 171.5q0 119 -30.5 171
t-90.5 53z" />
    <glyph glyph-name="uni042F" unicode="&#x42f;" 
d="M276 324q-58 30 -90.5 84t-32.5 120q0 123 80 186.5t233 63.5h283v-742h-177v249h-122l-105 -249h-194zM572 443v175h-136q-54 0 -82 -23t-28 -63q0 -37 27.5 -63t84.5 -26h134z" />
    <glyph glyph-name="uni0430" unicode="&#x430;" 
d="M567 36v48q-25 -26 -62.5 -40.5t-80.5 -14.5q-55 0 -103 17t-84 52q-35 35 -54.5 88.5t-17.5 127.5q2 73 24.5 127.5t59.5 89.5q36 35 83.5 51.5t98.5 14.5q43 -3 78 -20t58 -41v50h173v-550h-173zM445 182q44 0 75.5 21.5t40.5 67.5q0 3 1 13.5t1 13.5q0 70 -33 108
t-81 38q-41 2 -76 -30.5t-35 -99.5q0 -66 30.5 -99t76.5 -33z" />
    <glyph glyph-name="uni0431" unicode="&#x431;" 
d="M448 181q50 0 89 27.5t39 93.5q0 63 -39 92t-89 29q-49 0 -86.5 -31t-37.5 -90q0 -60 37.5 -90.5t86.5 -30.5zM450 23q-66 0 -121 22t-95 62q-39 40 -61 94.5t-22 120.5v21q0 47 4 99t17 103q13 50 37 95.5t63 80.5q56 49 138 71t179 18l11 -144q-48 4 -97.5 -0.5
t-77.5 -19.5q-27 -15 -47 -37.5t-28 -54.5q21 13 48 20t52 7q61 0 115.5 -18.5t95.5 -53.5q40 -35 64 -87.5t24 -119.5q0 -66 -22.5 -117.5t-61.5 -87.5q-40 -36 -95 -55t-120 -19z" />
    <glyph glyph-name="uni0432" unicode="&#x432;" 
d="M165 36v550h283q132 0 193.5 -34t67.5 -97q3 -39 -13.5 -70.5t-59.5 -50.5q50 -18 73.5 -58t17.5 -91q-9 -74 -69.5 -111.5t-175.5 -37.5h-317zM337 459v-72h135q31 2 49 8t18 29q0 21 -19 28t-54 7h-129zM337 261v-98h133q48 0 67 10.5t19 37.5q0 24 -21 37t-72 13h-126
z" />
    <glyph glyph-name="uni0433" unicode="&#x433;" 
d="M501 586q42 0 95.5 -3t86.5 -11v-158q-18 2 -34.5 4t-35.5 3q-18 2 -40 3t-49 1h-130v-389h-178v550h285z" />
    <glyph glyph-name="uni0434" unicode="&#x434;" 
d="M177 180q9 30 14.5 60.5t6.5 66.5v279h539v-406h68v-269h-169v125h-372v-125h-169v269h82zM574 180v266h-213v-131q0 -39 -3 -72t-10 -63h226z" />
    <glyph glyph-name="uni0435" unicode="&#x435;" 
d="M183 308q0 69 20 124t56 94q36 38 86.5 59t111.5 21q62 0 110.5 -22t82.5 -62q33 -39 51 -94.5t18 -121.5l-4 -55h-361q3 -39 35 -59t75 -20q39 0 67.5 15t52.5 45l113 -98q-45 -61 -105 -89.5t-135 -28.5q-61 0 -111.5 20t-87.5 58t-57 92t-18 122zM550 385
q-6 34 -32.5 51t-59.5 17q-38 0 -64 -18t-30 -50h186z" />
    <glyph glyph-name="uni0436" unicode="&#x436;" 
d="M372 629h158v-229h32q15 96 71.5 154t135.5 88l53 -132q-57 -25 -85 -70.5t-28 -108.5q0 -64 28 -109.5t85 -69.5l-53 -132q-81 29 -137.5 89t-70.5 160h-31v-233h-158v233h-33q-15 -100 -71.5 -160t-136.5 -89l-53 132q56 24 84.5 69.5t28.5 109.5q0 63 -28.5 108.5
t-84.5 70.5l53 132q78 -30 134.5 -88t72.5 -154h34v229z" />
    <glyph glyph-name="uni0437" unicode="&#x437;" 
d="M335 246l-4 129h32h25q10 0 18.5 0.5t16.5 0.5q43 3 59.5 15.5t15.5 30.5q-3 22 -25.5 31t-71.5 6q-30 -3 -63 -12.5t-74 -26.5l-51 135q41 21 89.5 34.5t99.5 17.5q93 7 163 -17.5t96 -89.5q19 -51 3 -105t-75 -83q59 -30 75 -82.5t-3 -102.5q-26 -66 -91 -90t-168 -20
q-59 2 -104 13.5t-85 34.5l51 139q41 -18 74 -27.5t63 -11.5q49 -3 71 1.5t26 31.5q3 24 -18.5 38.5t-60.5 12.5z" />
    <glyph glyph-name="uni0438" unicode="&#x438;" 
d="M346 345v-309h-171v550h168l211 -294v294h171v-550h-159z" />
    <glyph glyph-name="uni0439" unicode="&#x439;" 
d="M346 345v-309h-171v550h168l211 -294v294h171v-550h-159zM452 611q-85 0 -130 38t-50 107h144q1 -18 9 -27t27 -9q18 0 26 9t10 27h144q-6 -69 -51 -107t-129 -38z" />
    <glyph glyph-name="uni043A" unicode="&#x43a;" 
d="M331 182v-146h-174v550h174v-191l170 191h216l-208 -232l234 -318h-203l-147 207z" />
    <glyph glyph-name="uni043B" unicode="&#x43b;" 
d="M288 265v321h527v-550h-165v400h-197v-211q-3 -90 -43 -143t-121 -63q-51 -7 -106.5 2.5t-97.5 30.5l56 148q33 -18 60 -23.5t51 1.5q24 6 30 28t6 59z" />
    <glyph glyph-name="uni043C" unicode="&#x43c;" 
d="M370 36l-98 292h-4l-4 -292h-174l44 550h194l120 -369h3l121 369h194l44 -550h-174l-4 292h-4l-98 -292h-160z" />
    <glyph glyph-name="uni043D" unicode="&#x43d;" 
d="M165 586h178v-178h214v178h178v-550h-178v212h-214v-212h-178v550z" />
    <glyph glyph-name="uni043E" unicode="&#x43e;" 
d="M448 181q50 0 89 32.5t39 98.5q0 63 -39 97t-89 34q-49 0 -86.5 -34t-37.5 -97q0 -66 37.5 -98.5t86.5 -32.5zM450 23q-66 0 -121 20.5t-95 58.5q-39 38 -61 91t-22 119q0 67 23.5 121t64.5 91q40 37 94.5 57t116.5 20q61 0 115.5 -20t95.5 -57q40 -37 64 -91t24 -121
q0 -66 -22.5 -119t-61.5 -91q-40 -38 -95 -58.5t-120 -20.5z" />
    <glyph glyph-name="uni043F" unicode="&#x43f;" 
d="M171 36v550h557v-550h-170v395h-217v-395h-170z" />
    <glyph glyph-name="uni0440" unicode="&#x440;" 
d="M475 28q-43 0 -81 15t-62 42v-174h-172v675h172v-49q21 24 59.5 40t88.5 18q54 1 100.5 -17.5t81.5 -54.5q34 -37 53.5 -91.5t20.5 -124.5q1 -73 -19 -126t-55 -87q-36 -34 -84 -50t-103 -16zM446 181q22 -2 44 4.5t39 21.5q18 15 28.5 41t10.5 64q0 34 -10.5 58.5
t-26.5 40.5t-36.5 23.5t-40.5 7.5q-51 0 -83.5 -40t-32.5 -106q0 -44 30.5 -78t77.5 -37z" />
    <glyph glyph-name="uni0441" unicode="&#x441;" 
d="M180 313q0 138 82.5 215.5t223.5 77.5q66 0 124.5 -26.5t106.5 -83.5l-103 -118q-35 37 -63.5 52.5t-67.5 15.5q-25 -1 -48.5 -10.5t-41.5 -27.5q-18 -17 -29 -41.5t-11 -53.5q0 -61 40 -97.5t92 -36.5q42 0 72.5 18t60.5 50l102 -117q-45 -59 -106 -85t-128 -26
q-138 -1 -222 73t-84 221z" />
    <glyph glyph-name="uni0442" unicode="&#x442;" 
d="M187 586h525v-164h-176v-386h-178v386h-171v164z" />
    <glyph glyph-name="uni0443" unicode="&#x443;" 
d="M368 163l-215 423h198l108 -226l94 226h194l-311 -700l-174 49z" />
    <glyph glyph-name="uni0444" unicode="&#x444;" 
d="M366 768h164v-167q51 -2 95.5 -19t77.5 -51q33 -35 52 -89t19 -130q0 -75 -19 -129.5t-51 -89.5q-33 -36 -77.5 -53.5t-96.5 -18.5v-119h-164v119q-52 2 -96 20t-76 53q-32 36 -50 90t-18 128q0 75 18.5 129t50.5 88q32 35 76 52t95 20v167zM530 447v-271q39 5 61.5 40
t22.5 96q0 57 -22 93.5t-62 41.5zM366 177v269q-39 -6 -59.5 -42t-20.5 -92q0 -60 21 -94.5t59 -40.5z" />
    <glyph glyph-name="uni0445" unicode="&#x445;" 
d="M156 586h200l92 -154l92 154h195l-175 -275l189 -275h-198l-103 146l-103 -146h-195l186 275z" />
    <glyph glyph-name="uni0446" unicode="&#x446;" 
d="M768 -89h-165v125h-472v550h170v-395h217v395h170v-400h80v-275z" />
    <glyph glyph-name="uni0447" unicode="&#x447;" 
d="M717 586v-550h-175v178q-19 -16 -57.5 -27t-74.5 -14h-13q-101 0 -158 50t-57 149v214h175v-134q0 -33 7 -52.5t19 -29.5q13 -11 29.5 -13t36.5 0q25 2 50.5 11.5t42.5 27.5v190h175z" />
    <glyph glyph-name="uni0448" unicode="&#x448;" 
d="M109 586h158v-400h104v400h158v-400h104v400h158v-550h-682v550z" />
    <glyph glyph-name="uni0449" unicode="&#x449;" 
d="M69 586h158v-400h104v400h158v-400h104v400h158v-400h80v-275h-160v125h-602v550z" />
    <glyph glyph-name="uni044A" unicode="&#x44a;" 
d="M398 264v-98h133q48 0 67 10.5t19 37.5q0 24 -21 37t-72 13h-126zM398 586v-192h135q134 0 195 -50.5t60 -138.5q-2 -75 -64 -122.5t-191 -46.5h-307v410h-116v140h288z" />
    <glyph glyph-name="uni044B" unicode="&#x44b;" 
d="M249 264v-98h108q48 0 64.5 10.5t16.5 37.5q0 24 -18.5 37t-69.5 13h-101zM77 586h172v-192h115q134 0 190 -50.5t55 -138.5q-2 -75 -59 -122.5t-186 -46.5h-287v550zM650 586h173v-550h-173v550z" />
    <glyph glyph-name="uni044C" unicode="&#x44c;" 
d="M340 264v-98h133q48 0 67 10.5t19 37.5q0 24 -21 37t-72 13h-126zM168 586h172v-192h135q134 0 195 -50.5t60 -138.5q-2 -75 -64 -122.5t-191 -46.5h-307v550z" />
    <glyph glyph-name="uni044D" unicode="&#x44d;" 
d="M559 378q-5 44 -51 63.5t-107 19.5q-52 0 -96 -10.5t-89 -31.5l-57 135q54 26 111.5 38.5t126.5 12.5q171 0 257.5 -75.5t86.5 -219.5t-86.5 -219.5t-257.5 -75.5q-64 0 -124 12t-114 39l57 135q42 -22 88 -32t97 -10q61 0 106.5 19t51.5 64h-300v136h300z" />
    <glyph glyph-name="uni044E" unicode="&#x44e;" 
d="M561 181q50 0 74 32.5t24 98.5q0 63 -24 97t-74 34q-49 0 -71.5 -34t-22.5 -97q0 -66 22.5 -98.5t71.5 -32.5zM563 23q-109 0 -173.5 55t-83.5 150h-65v-192h-168v550h168v-193h65q19 99 86 153.5t171 54.5q123 0 193.5 -77t70.5 -212q0 -131 -66.5 -210t-197.5 -79z" />
    <glyph glyph-name="uni044F" unicode="&#x44f;" 
d="M265 214q-47 30 -67 69t-20 95q0 93 67.5 150.5t199.5 57.5h279v-550h-171v154h-123l-69 -154h-185zM553 325v126h-106q-51 0 -75.5 -16t-24.5 -48q0 -30 24 -46t78 -16h104z" />
    <glyph glyph-name="uni0451" unicode="&#x451;" 
d="M183 308q0 69 20 124t56 94q36 38 86.5 59t111.5 21q62 0 110.5 -22t82.5 -62q33 -39 51 -94.5t18 -121.5l-4 -55h-361q3 -39 35 -59t75 -20q39 0 67.5 15t52.5 45l113 -98q-45 -61 -105 -89.5t-135 -28.5q-61 0 -111.5 20t-87.5 58t-57 92t-18 122zM550 385
q-6 34 -32.5 51t-59.5 17q-38 0 -64 -18t-30 -50h186zM504 770h158v-134h-158v134zM248 770h157v-134h-157v134z" />
    <glyph glyph-name="uni2015" unicode="&#x2015;" 
d="M114 491h671v-160h-671v160z" />
    <glyph glyph-name="quoteleft" unicode="&#x2018;" horiz-adv-x="251" 
d="M212 547h-172v148l28 130h114l-15 -95h45v-183z" />
    <glyph glyph-name="quoteright" unicode="&#x2019;" horiz-adv-x="251" 
d="M34 825h172v-118l-18 -160h-114l5 95h-45v183z" />
    <glyph glyph-name="quotedblleft" unicode="&#x201c;" horiz-adv-x="468" 
d="M217 547h-167v148l28 130h109l-15 -95h45v-183zM427 547h-167v148l28 130h109l-15 -95h45v-183z" />
    <glyph glyph-name="quotedblright" unicode="&#x201d;" horiz-adv-x="468" 
d="M250 825h167v-118l-18 -160h-109l5 95h-45v183zM40 825h167v-118l-18 -160h-109l5 95h-45v183z" />
    <glyph glyph-name="dagger" unicode="&#x2020;" 
d="M367 586v192h165v-192h190v-150h-190v-400h-165v400h-190v150h190z" />
    <glyph glyph-name="daggerdbl" unicode="&#x2021;" 
d="M369 636v142h161v-142h192v-145h-192v-75h162v-145h-162v-235h-161v235h-162v145h162v75h-192v145h192z" />
    <glyph glyph-name="bullet" unicode="&#x2022;" horiz-adv-x="250" 
d="M201 345q-3 -28 -25.5 -44.5t-49.5 -15.5q-33 0 -55 27.5t-10 64.5q7 24 28 38t50 12q29 -3 46.5 -28.5t15.5 -53.5z" />
    <glyph glyph-name="twodotenleader" unicode="&#x2025;" 
d="M549 466h178v-169h-178v169zM173 466h177v-169h-177v169z" />
    <glyph glyph-name="ellipsis" unicode="&#x2026;" 
d="M635 466h161v-169h-161v169zM368 466h166v-169h-166v169zM104 466h165v-169h-165v169z" />
    <glyph glyph-name="perthousand" unicode="&#x2030;" 
d="M551 815l107 -92l-538 -703l-107 101zM160 502q-64 0 -103.5 41t-39.5 129t40 129t103 41t103 -41t40 -129t-40 -129t-103 -41zM160 619q16 0 25 13.5t9 39.5q0 29 -10.5 41t-23.5 12q-14 0 -24 -12t-10 -41q0 -26 8.5 -39.5t25.5 -13.5zM443 -25q-64 0 -103.5 41
t-39.5 129t40 129t103 41t103 -41t40 -129t-40 -129t-103 -41zM443 92q16 0 25 13.5t9 39.5q0 29 -10.5 41t-23.5 12q-14 0 -24 -12t-10 -41q0 -26 8.5 -39.5t25.5 -13.5zM745 -25q-64 0 -103.5 41t-39.5 129t40 129t103 41t103 -41t40 -129t-40 -129t-103 -41zM745 92
q16 0 25 13.5t9 39.5q0 29 -10.5 41t-23.5 12q-14 0 -24 -12t-10 -41q0 -26 8.5 -39.5t25.5 -13.5z" />
    <glyph glyph-name="minute" unicode="&#x2032;" 
d="M388 811h173l-76 -265h-146z" />
    <glyph glyph-name="second" unicode="&#x2033;" 
d="M303 811h153l-71 -265h-131zM498 811h148l-76 -265h-141z" />
    <glyph glyph-name="uni203B" unicode="&#x203b;" 
d="M554 407l226 -225l-104 -103l-225 226l-226 -226l-102 103l226 225l-226 226l103 103l225 -226l224 226l104 -103zM451 605q-41 0 -69 24.5t-28 68.5q0 41 30 67t67 26q38 0 68 -26t30 -67q0 -44 -28.5 -68.5t-69.5 -24.5zM451 22q-41 0 -69 24.5t-28 68.5q0 41 30 67
t67 26q38 0 68 -26t30 -67q0 -44 -28.5 -68.5t-69.5 -24.5zM169 316q-42 0 -70 24.5t-28 67.5q0 42 30 68t68 26t68 -26t30 -68q0 -43 -28.5 -67.5t-69.5 -24.5zM731 316q-42 0 -70 24.5t-28 67.5q0 42 29.5 68t68.5 26q37 0 67.5 -26t30.5 -68q0 -43 -28.5 -67.5
t-69.5 -24.5z" />
    <glyph glyph-name="uni2074" unicode="&#x2074;" 
d="M153 698l-29 -75h29v75zM136 816h131v-193h16h12t27 3v-98q-9 -2 -16.5 -2.5t-13.5 -0.5q-5 -1 -8.5 -0.5t-4.5 0.5h-12v-61h-117v61h-128v72z" />
    <glyph glyph-name="uni207F" unicode="&#x207f;" 
d="M40 463v352h120v-17q15 11 30.5 16.5t36.5 6.5h8q52 0 76.5 -35.5t24.5 -89.5v-233h-119v192q0 39 -8 48.5t-19 9.5q-9 -1 -15 -5.5t-15 -13.5v-231h-120z" />
    <glyph glyph-name="uni2081" unicode="&#x2081;" 
d="M89 191l-59 -4v111q30 4 51.5 14.5t32.5 32.5h117v-351h-142v197z" />
    <glyph glyph-name="uni2082" unicode="&#x2082;" 
d="M36 -6v73q18 17 32.5 30t26.5 25q13 12 24.5 24.5t25.5 27.5q20 22 28 36t9 26q0 8 -5 11t-10 3q-9 -2 -17.5 -11.5t-14.5 -32.5l-104 35q13 54 45.5 85t86.5 33q42 1 75.5 -14.5t51.5 -47.5q15 -28 11.5 -67t-21.5 -69q-8 -13 -15.5 -22.5t-15.5 -17.5l-14.5 -14.5
l-15.5 -15.5h22q9 0 23.5 1t43.5 7v-96q-26 -6 -53.5 -7.5t-43.5 -1.5h-175z" />
    <glyph glyph-name="uni2083" unicode="&#x2083;" 
d="M123 135l-6 80q36 1 50.5 7.5t17.5 18.5q1 9 -5 16t-18 7q-11 0 -24 -7t-26 -25l-79 48q21 35 53 55.5t74 23.5q40 2 72.5 -11.5t51.5 -46.5q15 -29 11 -63t-28 -52q29 -20 37.5 -53t-0.5 -62q-14 -44 -58.5 -67t-104.5 -13q-43 6 -75.5 31t-48.5 71l88 39q11 -24 24 -33
t28 -9q13 -1 23 5t11 18q0 11 -6.5 18.5t-19.5 8.5q-7 0 -17 -0.5t-25 -4.5z" />
    <glyph glyph-name="uni2084" unicode="&#x2084;" 
d="M153 228l-29 -75h29v75zM136 346h131v-193h16h12t27 3v-98q-9 -2 -16.5 -2.5t-13.5 -0.5q-5 -1 -8.5 -0.5t-4.5 0.5h-12v-61h-117v61h-128v72z" />
    <glyph glyph-name="uni20A9" unicode="&#x20a9;" 
d="M547 778l37 -272h56l14 272h175l-31 -272h78v-160h-95l-35 -310h-202l-49 310h-90l-49 -310h-192l-39 310h-101v160h81l-34 272h175l14 -272h56l37 272h194zM606 346l17 -122h3l6 122h-26zM469 506l-15 99h-7l-16 -99h38zM269 346l6 -122h3l16 122h-25z" />
    <glyph glyph-name="uni2103" unicode="&#x2103;" 
d="M260 370q0 114 44.5 190.5t121.5 124.5q22 13 52.5 22t63.5 13t65 3.5t59 -6.5q45 -9 90 -36t93 -78l-101 -105q-46 51 -97 61t-91 0q-26 -7 -51 -22.5t-44 -39.5t-30.5 -56t-11.5 -71q0 -40 12.5 -73t33.5 -58q20 -25 44.5 -40t47.5 -19q46 -9 99 3t88 60l101 -107
q-46 -53 -90.5 -79t-92.5 -35q-27 -6 -59 -6.5t-65 3.5t-63.5 12.5t-52.5 22.5q-77 48 -121.5 124t-44.5 192zM192 587q-57 0 -94.5 32.5t-37.5 93.5q0 57 40 91.5t92 34.5q51 0 91.5 -34.5t40.5 -91.5q0 -61 -37.5 -93.5t-94.5 -32.5zM192 683q13 0 22 9t9 21q0 11 -8 20.5
t-23 9.5t-23 -9.5t-8 -20.5q0 -12 8.5 -21t22.5 -9z" />
    <glyph glyph-name="uni2109" unicode="&#x2109;" 
d="M180 587q-57 0 -94.5 32.5t-37.5 93.5q0 57 40 91.5t92 34.5q51 0 91.5 -34.5t40.5 -91.5q0 -61 -37.5 -93.5t-94.5 -32.5zM180 683q13 0 22 9t9 21q0 11 -8 20.5t-23 9.5t-23 -9.5t-8 -20.5q0 -12 8.5 -21t22.5 -9zM360 36v742h501v-160h-322v-145h144q54 0 88.5 1.5
t70.5 6.5v-155q-34 -9 -86.5 -10.5t-94.5 -1.5h-122v-278h-179z" />
    <glyph glyph-name="uni2113" unicode="&#x2113;" 
d="M425 400q-3 -46 1 -87.5t14 -79.5q26 36 41 80t21 95q10 93 4 130.5t-20 40.5q-21 3 -38 -34.5t-23 -144.5zM163 188q34 0 65.5 1t49.5 8q-13 39 -21.5 102.5t-5.5 121.5q1 37 5 69t12 61q7 30 20 59.5t33 62.5q27 45 70 69.5t90 28.5q22 1 48 -4t50 -19
q24 -13 44.5 -35.5t31.5 -54.5q13 -41 18.5 -90.5t2.5 -102.5t-16 -107t-37 -102q-15 -30 -31 -52.5t-34 -40.5q-17 -19 -36.5 -35t-40.5 -33l7 -10q31 13 61 35.5t53 53.5l100 -108q-36 -62 -87.5 -88.5t-107.5 -26.5q-58 -1 -102.5 21t-77.5 71q-17 -9 -41 -13t-44 -4h-54
z" />
    <glyph glyph-name="uni2116" unicode="&#x2116;" 
d="M178 397v-361h-148v742h169l69 -416v416h147v-408q4 49 16.5 91.5t35.5 72.5q22 31 55 48.5t78 17.5q52 0 87.5 -22t58.5 -60q22 -38 32 -91t11 -116q0 -33 -3 -61.5t-7 -52.5h91v-181h-144v61q-24 -28 -56 -41.5t-70 -13.5q-77 0 -125.5 59t-59.5 174v-219h-151z
M600 442q-24 0 -32.5 -34t-8.5 -97q0 -66 9 -98.5t32 -32.5q21 0 31 32.5t10 98.5q0 63 -8.5 97t-32.5 34z" />
    <glyph glyph-name="uni2121" unicode="&#x2121;" 
d="M20 778h351v-164h-111v-578h-144v578h-96v164zM291 308q0 138 53.5 218t155.5 80q57 0 96 -24t63 -65t34.5 -95.5t10.5 -115.5l-4 -55h-268q0 -42 25 -68t67 -26q30 0 52.5 12t37.5 35l77 -92q-32 -48 -75 -72t-98 -24q-108 0 -169 78.5t-58 213.5zM579 375
q-1 39 -22 63.5t-47 24.5q-31 0 -52 -27t-21 -61h142zM735 793h144v-757h-144v757z" />
    <glyph glyph-name="trademark" unicode="&#x2122;" 
d="M40 778h351v-131h-107v-331h-141v331h-103v131zM561 316l-45 276h-3l-2 -276h-125l29 462h147l60 -298h1l61 298h147l29 -462h-125l-2 276h-3l-55 -276h-114z" />
    <glyph glyph-name="Omega" unicode="&#x2126;" horiz-adv-x="763" 
d="M606 36h-182v297h4q61 11 93 49.5t32 103.5t-46.5 109.5t-125.5 44.5q-80 0 -126 -44.5t-46 -109.5t31.5 -103.5t93.5 -49.5h4v-297h-298v151h130v35q-57 31 -91.5 95.5t-34.5 158.5q0 65 21 123t63 101q42 44 105 69.5t148 25.5q84 0 147 -25.5t105 -69.5
q42 -43 63.5 -101t21.5 -123q0 -94 -35 -158.5t-91 -95.5v-35h40q14 0 37 0.5t50 4.5v-148q-24 -5 -49.5 -6.5t-63.5 -1.5z" />
    <glyph glyph-name="uni212B" unicode="&#x212b;" 
d="M449 518l-71 -203h138zM452 678q13 0 22 9t9 21q0 11 -8 20.5t-23 9.5t-23 -9.5t-8 -20.5q0 -12 8.5 -21t22.5 -9zM789 35h-178l-55 136h-218l-51 -136h-177l235 583q-15 16 -23 38.5t-8 51.5t11 53.5t31 41.5q19 17 44 27t52 10t51.5 -10t44.5 -27q19 -17 30.5 -41.5
t11.5 -53.5q0 -33 -10.5 -57.5t-28.5 -40.5z" />
    <glyph glyph-name="onethird" unicode="&#x2153;" 
d="M83 642l-52 -4v121q30 4 51.5 14.5t32.5 32.5h118v-471h-150v307zM133 45l397 777l136 -65l-396 -777zM630 188l-8 103q53 2 71 11.5t21 29.5q1 13 -9.5 21t-29.5 8q-18 0 -32.5 -10.5t-26.5 -33.5l-110 50q25 48 64 78t90 34q54 3 105 -15.5t71 -63.5q8 -19 10 -41
t-1 -42t-11 -37.5t-20 -26.5q15 -9 25.5 -27t15.5 -39q5 -22 4 -45t-8 -42q-21 -57 -76 -86t-130 -17q-54 8 -94.5 39.5t-61.5 90.5l110 59q9 -30 26 -46.5t40 -19.5q20 -3 37 3.5t20 27.5q2 15 -9.5 29t-35.5 13q-5 -1 -10 -1t-11 -1q-5 0 -11.5 -1t-14.5 -2z" />
    <glyph glyph-name="twothirds" unicode="&#x2154;" 
d="M207 32l148 333q-27 -5 -54 -6.5t-45 -1.5h-225v90q24 22 42.5 39.5t35.5 33.5l32 32t34 37q28 31 38.5 49.5t8.5 33.5q-1 15 -10 22t-18 7q-15 -1 -28 -14.5t-19 -41.5l-122 40q17 69 57.5 107.5t107.5 41.5q53 1 97.5 -23.5t62.5 -62.5q16 -36 11.5 -80.5t-31.5 -86.5
q-23 -35 -42.5 -58t-45.5 -47h47q16 0 36 1t48 7v-80l189 424l135 -58l-163 -366q24 33 57 52.5t74 22.5q54 3 105 -15.5t71 -63.5q8 -19 10 -41t-1 -42t-11 -37.5t-20 -26.5q15 -9 25.5 -27t15.5 -39q5 -22 4 -45t-8 -42q-21 -57 -76 -86t-130 -17q-54 8 -94.5 39.5
t-61.5 90.5l110 59q9 -30 26 -46.5t40 -19.5q20 -3 37 3.5t20 27.5q2 15 -9.5 29t-35.5 13q-5 -1 -10 -1t-11 -1q-5 0 -11.5 -1t-14.5 -2l-8 103q53 2 71 11.5t21 29.5q1 13 -9.5 21t-29.5 8q-18 0 -32.5 -10.5t-26.5 -33.5l-105 47l-173 -390z" />
    <glyph glyph-name="oneeighth" unicode="&#x215b;" 
d="M79 642l-52 -4v121q30 4 51.5 14.5t32.5 32.5h118v-471h-150v307zM160 23l326 808l141 -52l-325 -808zM676 -9q-65 0 -115 27.5t-64 86.5q-14 54 6.5 93.5t50.5 53.5q-28 23 -36.5 64.5t3.5 76.5q15 42 56.5 66t98.5 24t98.5 -24t56.5 -66q12 -35 3 -76.5t-36 -64.5
q29 -14 49.5 -53.5t7.5 -93.5q-15 -59 -65 -86.5t-114 -27.5zM676 299q17 0 29.5 9t12.5 27q0 17 -13.5 26t-28.5 9q-16 0 -29 -9t-13 -26q0 -18 12 -27t30 -9zM676 107q19 0 33.5 11.5t14.5 29.5q0 21 -15 32.5t-33 11.5q-19 0 -33.5 -11.5t-14.5 -32.5q0 -18 14 -29.5
t34 -11.5z" />
    <glyph glyph-name="threeeighths" unicode="&#x215c;" 
d="M702 -9q-63 0 -112 27.5t-63 86.5q-14 54 6.5 93.5t49.5 53.5q-27 23 -35.5 64.5t3.5 76.5q14 42 54.5 66t96.5 24q55 0 95.5 -24t55.5 -66q12 -35 3.5 -76.5t-35.5 -64.5q28 -14 48.5 -53.5t7.5 -93.5q-15 -59 -63.5 -86.5t-111.5 -27.5zM702 299q16 0 28.5 9t12.5 27
q0 17 -13 26t-28 9t-28 -9t-13 -26q0 -18 12 -27t29 -9zM702 107q18 0 32.5 11.5t14.5 29.5q0 21 -14.5 32.5t-32.5 11.5t-32.5 -11.5t-14.5 -32.5q0 -18 14 -29.5t33 -11.5zM204 36l367 789l134 -59l-366 -789zM159 543l-8 103q51 2 69 11.5t21 29.5q1 13 -9.5 21t-29.5 8
q-16 0 -30.5 -10.5t-25.5 -33.5l-108 50q24 48 62 78t89 34q51 3 101.5 -15.5t69.5 -63.5q8 -19 10 -41t-1 -42t-11 -37.5t-19 -26.5q15 -9 25 -27t15 -39q5 -22 4 -45t-8 -42q-21 -57 -74.5 -86t-126.5 -17q-54 8 -93 39.5t-60 90.5l108 59q9 -30 25.5 -46.5t39.5 -19.5
q18 -3 34.5 3.5t19.5 27.5q2 15 -9 29t-35 13q-5 -1 -9.5 -1t-9.5 -1q-5 0 -11.5 -1t-14.5 -2z" />
    <glyph glyph-name="fiveeighths" unicode="&#x215d;" 
d="M340 410q-27 -33 -68.5 -49t-92.5 -12q-52 3 -87 23t-62 64l91 85q18 -23 36 -35t35 -12q18 -1 33.5 6.5t21.5 31.5q4 19 -7.5 35.5t-34.5 22.5q-17 3 -33 -3.5t-25 -21.5l-104 29l24 251h276v-118h-153l-3 -42q30 8 68 2t68 -27q30 -22 44 -67.5t3 -94.5
q-4 -18 -11.5 -36t-18.5 -32zM702 -9q-63 0 -112 27.5t-63 86.5q-14 54 6.5 93.5t49.5 53.5q-27 23 -35.5 64.5t3.5 76.5q14 42 54.5 66t96.5 24q55 0 95.5 -24t55.5 -66q12 -35 3.5 -76.5t-35.5 -64.5q28 -14 48.5 -53.5t7.5 -93.5q-15 -59 -63.5 -86.5t-111.5 -27.5z
M702 299q16 0 28.5 9t12.5 27q0 17 -13 26t-28 9t-28 -9t-13 -26q0 -18 12 -27t29 -9zM702 107q18 0 32.5 11.5t14.5 29.5q0 21 -14.5 32.5t-32.5 11.5t-32.5 -11.5t-14.5 -32.5q0 -18 14 -29.5t33 -11.5zM196 36l367 789l134 -59l-366 -789z" />
    <glyph glyph-name="seveneighths" unicode="&#x215e;" 
d="M150 36l367 789l137 -59l-366 -789zM672 -9q-65 0 -115 27.5t-64 86.5q-14 54 6.5 93.5t50.5 53.5q-28 23 -36.5 64.5t3.5 76.5q15 42 56.5 66t98.5 24t98.5 -24t56.5 -66q12 -35 3 -76.5t-36 -64.5q29 -14 49.5 -53.5t7.5 -93.5q-15 -59 -65 -86.5t-114 -27.5zM672 299
q17 0 29.5 9t12.5 27q0 17 -13.5 26t-28.5 9q-16 0 -29 -9t-13 -26q0 -18 12 -27t30 -9zM672 107q19 0 33.5 11.5t14.5 29.5q0 21 -15 32.5t-33 11.5q-19 0 -33.5 -11.5t-14.5 -32.5q0 -18 14 -29.5t34 -11.5zM112 380q5 48 16 94.5t26 88.5q14 42 30.5 77t33.5 60v7h-186
v118h349v-88q-28 -38 -49 -75.5t-37 -80.5q-16 -44 -28 -96t-21 -117z" />
    <glyph glyph-name="uni2160" unicode="&#x2160;" 
d="M361 778h178v-742h-178v742z" />
    <glyph glyph-name="uni2161" unicode="&#x2161;" 
d="M195 778h173v-742h-173v742zM531 777h173v-742h-173v742z" />
    <glyph glyph-name="uni2162" unicode="&#x2162;" 
d="M133 778h168v-742h-168v742zM364 777h168v-742h-168v742zM599 777h168v-742h-168v742z" />
    <glyph glyph-name="uni2163" unicode="&#x2163;" 
d="M380 778l139 -489l139 489h187l-235 -742h-182l-204 644v-644h-173v742h329z" />
    <glyph glyph-name="uni2164" unicode="&#x2164;" 
d="M359 36l-240 742h192l139 -489l139 489h192l-240 -742h-182z" />
    <glyph glyph-name="uni2165" unicode="&#x2165;" 
d="M845 778v-742h-173v631l-200 -632h-182l-235 742h187l139 -489l139 489h152v1h173z" />
    <glyph glyph-name="uni2166" unicode="&#x2166;" 
d="M630 778v-742h-153v494l-90 -495h-182l-135 742h157l69 -519l69 519h112v1h153zM830 778v-742h-153v742h153z" />
    <glyph glyph-name="uni2167" unicode="&#x2167;" 
d="M682 778v-742h-133v742h133zM852 778v-742h-133v742h133zM512 778v-742h-133v539l-80 -539h-142l-110 742h132l49 -519l49 519h235z" />
    <glyph glyph-name="uni2168" unicode="&#x2168;" 
d="M223 61l181 346l-181 363v-709zM425 778l106 -230l107 230h204l-196 -371l204 -371h-205l-114 230l-115 -230h-366v742h375z" />
    <glyph glyph-name="uni2169" unicode="&#x2169;" 
d="M109 778h211l131 -230l132 230h209l-221 -371l229 -371h-210l-139 230l-140 -230h-211l219 371z" />
    <glyph glyph-name="uni2170" unicode="&#x2170;" 
d="M361 586h178v-550h-178v550zM539 644h-178v134h178v-134z" />
    <glyph glyph-name="uni2171" unicode="&#x2171;" 
d="M218 586h173v-550h-173v550zM391 644h-173v134h173v-134zM508 586h173v-550h-173v550zM681 644h-173v134h173v-134z" />
    <glyph glyph-name="uni2172" unicode="&#x2172;" 
d="M136 586h163v-550h-163v550zM299 644h-163v134h163v-134zM371 586h163v-550h-163v550zM534 644h-163v134h163v-134zM601 586h163v-550h-163v550zM764 644h-163v134h163v-134z" />
    <glyph glyph-name="uni2173" unicode="&#x2173;" 
d="M277 644h-173v134h173v-134zM417 586l94 -312l99 312h186l-211 -550h-152l-156 422v-422h-173v550h313z" />
    <glyph glyph-name="uni2174" unicode="&#x2174;" 
d="M164 586h187l99 -312l99 312h186l-211 -550h-152z" />
    <glyph glyph-name="uni2175" unicode="&#x2175;" 
d="M623 644v134h173v-134h-173zM796 586v-550h-173v422l-156 -422h-152l-211 550h186l99 -312l94 312h313z" />
    <glyph glyph-name="uni2176" unicode="&#x2176;" 
d="M468 644v134h148v-134h-148zM821 586v-550h-148v550h148zM673 644v134h148v-134h-148zM616 586v-550h-148v396l-96 -396h-152l-141 550h156l59 -312l54 312h268z" />
    <glyph glyph-name="uni2177" unicode="&#x2177;" 
d="M368 644v134h129v-134h-129zM668 586v-550h-128v550h128zM540 644v134h128v-134h-128zM836 586v-550h-128v550h128zM708 644v134h128v-134h-128zM497 586v-550h-129v370l-66 -370h-132l-106 550h126l44 -362l39 362h224z" />
    <glyph glyph-name="uni2178" unicode="&#x2178;" 
d="M97 586h173v-541l150 265l-150 275h190l72 -154l72 154h185l-155 -275l169 -275h-188l-83 146l-83 -146h-185l1 1h-168v550zM270 644h-173v134h173v-134z" />
    <glyph glyph-name="uni2179" unicode="&#x2179;" 
d="M157 586h200l92 -154l92 154h195l-175 -275l189 -275h-198l-103 146l-103 -146h-195l186 275z" />
    <glyph glyph-name="arrowleft" unicode="&#x2190;" 
d="M73 377l253 307l120 -105l-104 -122h484v-160h-484l104 -122l-120 -105z" />
    <glyph glyph-name="arrowup" unicode="&#x2191;" 
d="M450 814l307 -253l-107 -120l-115 102v-507h-170v507l-115 -102l-107 120z" />
    <glyph glyph-name="arrowright" unicode="&#x2192;" 
d="M826 377l-253 -307l-120 105l104 122h-484v160h484l-104 122l120 105z" />
    <glyph glyph-name="arrowdown" unicode="&#x2193;" 
d="M450 0l-307 253l107 120l115 -102v507h170v-507l115 102l107 -120z" />
    <glyph glyph-name="arrowboth" unicode="&#x2194;" 
d="M623 297h-346l94 -127l-120 -100l-213 307l213 307l120 -100l-94 -127h346l-94 127l120 100l213 -307l-213 -307l-120 100z" />
    <glyph glyph-name="arrowupdn" unicode="&#x2195;" 
d="M365 573l-115 -102l-107 120l307 253l307 -253l-107 -120l-115 102v-337l115 102l107 -120l-307 -253l-307 253l107 120l115 -102v337z" />
    <glyph glyph-name="uni2196" unicode="&#x2196;" 
d="M128 803l401 -10l-15 -160l-135 7l441 -525l-66 -54l-65 -55l-440 525l-18 -134l-152 13z" />
    <glyph glyph-name="uni2197" unicode="&#x2197;" 
d="M771 803l49 -393l-152 -13l-18 134l-440 -525l-65 55l-66 54l441 525l-135 -7l-15 160z" />
    <glyph glyph-name="uni2198" unicode="&#x2198;" 
d="M771 7l-401 10l15 160l135 -7l-441 525l66 54l65 55l440 -525l18 134l152 -13z" />
    <glyph glyph-name="uni2199" unicode="&#x2199;" 
d="M128 7l-49 393l152 13l18 -134l440 525l65 -55l66 -54l-441 -525l135 7l15 -160z" />
    <glyph glyph-name="arrowdblright" unicode="&#x21d2;" 
d="M655 377l-42 60h-540v125h451l-61 87l130 75l233 -347l-233 -347l-130 75l61 87h-451v125h539z" />
    <glyph glyph-name="arrowdblboth" unicode="&#x21d4;" 
d="M700 377l-42 59h-417l-41 -59l43 -61h414zM570 561l-62 88l130 75l233 -347l-233 -347l-130 75l60 86h-237l61 -86l-130 -75l-233 347l233 347l130 -75l-62 -88h240z" />
    <glyph glyph-name="universal" unicode="&#x2200;" 
d="M807 778l-281 -742h-157l-277 742h193l56 -155h216l56 155h194zM451 253l60 210h-124z" />
    <glyph glyph-name="partialdiff" unicode="&#x2202;" horiz-adv-x="990" 
d="M397 207q9 0 18.5 3.5t20.5 11.5q9 5 19 13t19 19q3 5 7 10t7 10q4 5 7.5 10t6.5 11q3 5 5 9.5t4 8.5t3 8t3 7q-12 -2 -22.5 -3.5t-20.5 -4.5q-14 -5 -23.5 -10t-18.5 -12q-10 -7 -18.5 -15t-14.5 -17q-8 -12 -10.5 -22.5t-2.5 -22.5v-9.5t1 -2.5q0 -2 2 -2h8zM353 423
h-121q30 48 59.5 85.5t58.5 62.5q28 22 63 35t76 13q21 0 40 -5.5t37 -14.5q16 -10 30 -21.5t26 -26.5q11 -15 19.5 -31.5t14.5 -34.5q5 -19 8.5 -38t3.5 -37q0 -36 -6.5 -67.5t-18.5 -61.5q-13 -32 -30.5 -57.5t-37.5 -46.5q-22 -23 -46 -40.5t-49 -30.5q-26 -13 -53 -19.5
t-54 -6.5q-15 0 -28 2.5t-24 10.5q-14 6 -24.5 14.5t-17.5 19.5q-9 9 -16.5 21t-10.5 25q-6 12 -7.5 24t-1.5 26q0 28 6 53.5t19 46.5q12 19 28 35t37 31q19 12 41.5 21.5t48.5 16.5q23 5 48 8t51 4q-2 14 -4.5 24.5t-7.5 15.5q-6 6 -16 8.5t-22 2.5q-16 0 -29.5 -3
t-25.5 -9q-13 -8 -29.5 -21t-34.5 -34z" />
    <glyph glyph-name="existential" unicode="&#x2203;" 
d="M169 620v158h566v-742h-389q-43 0 -96 2.5t-86 11.5v155q17 -3 34 -5t35 -3q19 -2 40.5 -2.5t49.5 -0.5h237v137h-372v155l372 -1v135h-391z" />
    <glyph glyph-name="gradient" unicode="&#x2207;" 
d="M310 660l164 -320l163 320h-327zM450 14l-376 763h751z" />
    <glyph glyph-name="element" unicode="&#x2208;" 
d="M387 75q-71 0 -126.5 24.5t-93.5 68.5q-39 44 -59 104.5t-20 132.5q0 71 20 131.5t59 104.5q38 44 93.5 69t126.5 25h424v-140h-410q-57 0 -95.5 -34.5t-44.5 -85.5h550v-140h-550q6 -51 44.5 -85.5t95.5 -34.5h410v-140h-424z" />
    <glyph glyph-name="suchthat" unicode="&#x220b;" 
d="M512 75h-424v140h410q57 0 95 34.5t45 85.5h-550v140h550q-7 51 -45 85.5t-95 34.5h-410v140h424q70 0 125.5 -25t93.5 -69q39 -44 59.5 -104.5t20.5 -131.5q0 -72 -20.5 -132.5t-59.5 -104.5q-38 -44 -93.5 -68.5t-125.5 -24.5z" />
    <glyph glyph-name="product" unicode="&#x220f;" 
d="M388 36h-275v140h58v462h-58v140h673v-140h-58v-462h58v-140h-275v140h57v462h-237v-462h57v-140z" />
    <glyph glyph-name="summation" unicode="&#x2211;" 
d="M410 407l-260 330v41h600v-145h-327l175 -226l-175 -226h327v-145h-600v41z" />
    <glyph glyph-name="radical" unicode="&#x221a;" 
d="M174 91l94 333h168l48 -143l90 476h151l-123 -701h-171l-71 183l-30 -148h-156z" />
    <glyph glyph-name="proportional" unicode="&#x221d;" 
d="M755 447q-17 19 -43 28.5t-51 7.5q-37 -5 -63 -36t-40 -82q-15 -57 -49.5 -113.5t-82.5 -82.5q-20 -11 -45.5 -17t-52.5 -6q-28 -1 -55 3t-48 13q-50 20 -87 70t-43 120q-7 63 11.5 117t63.5 96q34 30 78.5 45t83.5 12q49 -3 92.5 -27.5t67.5 -63.5l0.5 1t1.5 2
q33 45 70 65t93 23q41 3 81 -12t69 -39zM436 421q-29 40 -54 56.5t-53 16.5q-18 0 -35.5 -8.5t-30.5 -23.5t-20 -34.5t-5 -41.5q3 -50 24 -72.5t55 -24.5q30 -4 58 20t44 67q3 11 7.5 22t9.5 23zM668 292q18 0 42 6t44 29l60 -127q-28 -30 -69 -42t-83 -12q-40 0 -80.5 14.5
t-73.5 43.5l60 115q27 -14 54.5 -21.5t45.5 -5.5z" />
    <glyph glyph-name="infinity" unicode="&#x221e;" 
d="M257 288q30 -3 57.5 20.5t43.5 67.5q1 5 3 10.5t5 10.5q2 6 4 11.5t4 11.5q-24 40 -50.5 57t-54.5 17q-37 0 -64 -31.5t-27 -76.5q-1 -42 22 -68.5t57 -29.5zM436 535q30 38 70.5 61t90.5 26q82 3 134.5 -29.5t85.5 -98.5q21 -44 23 -88.5t-9 -83.5t-30 -70t-39 -47
q-36 -31 -71.5 -45t-89.5 -11q-54 2 -95.5 27t-68.5 60q-15 -21 -32.5 -39t-38.5 -28q-39 -22 -97 -23.5t-105 16.5q-51 19 -87 69.5t-42 119.5q-7 63 11 117.5t63 96.5q35 30 78.5 45t82.5 12q51 -3 92 -25.5t74 -61.5zM491 348q20 -33 47 -50.5t63 -17.5q36 -1 66 27
t30 79q0 58 -30.5 80t-66.5 22t-60.5 -34.5t-42.5 -88.5q-1 -3 -2 -5t-1 -4l-2 -4t-1 -4z" />
    <glyph glyph-name="angle" unicode="&#x2220;" 
d="M92 92l518 744l138 -93l-388 -568h447v-160h-715v77z" />
    <glyph glyph-name="uni2225" unicode="&#x2225;" 
d="M479 15v782h170v-782h-170zM250 15v782h170v-782h-170z" />
    <glyph glyph-name="logicaland" unicode="&#x2227;" 
d="M450 820l387 -784h-160l-226 464l-227 -464h-161z" />
    <glyph glyph-name="logicalor" unicode="&#x2228;" 
d="M450 -7l-387 784h161l227 -464l226 464h160z" />
    <glyph glyph-name="intersection" unicode="&#x2229;" 
d="M450 647q-52 -4 -85 -22t-52 -44q-19 -27 -26 -57.5t-7 -58.5v-430h-165v463q0 70 25.5 125.5t70.5 93.5q45 39 106 59.5t133 20.5q71 0 132 -20.5t106 -59.5q45 -38 71 -93.5t26 -125.5v-463h-165v430q0 28 -7.5 58.5t-26.5 57.5q-19 26 -52 44t-84 22z" />
    <glyph glyph-name="union" unicode="&#x222a;" 
d="M450 165q51 3 84 21t52 44q19 27 26.5 57.5t7.5 59.5v430h165v-463q0 -71 -26 -126.5t-71 -93.5q-45 -39 -106 -59t-132 -20q-72 0 -133 20t-106 59q-45 38 -70.5 93.5t-25.5 126.5v463h165v-430q0 -29 7 -59.5t26 -57.5q19 -26 52 -44t85 -21z" />
    <glyph glyph-name="integral" unicode="&#x222b;" 
d="M378 358q-4 70 -0.5 135t12.5 116q14 81 45.5 126.5t73.5 61.5q24 9 54 6.5t45 -11.5q22 -12 34.5 -33.5t9.5 -51.5q-3 -22 -18 -44t-48 -25q-18 -3 -38.5 0t-28.5 14l4 -9q1 -20 3 -45t5 -70q3 -47 4.5 -88.5t-0.5 -94.5q-2 -25 -4.5 -54.5t-6.5 -59.5t-10.5 -58.5
t-14.5 -50.5q-20 -51 -45.5 -79.5t-58.5 -40.5q-27 -8 -53 -5t-43 12q-17 7 -31 25t-15 39q-2 21 5.5 44t35.5 38q20 11 45.5 10t34.5 -7v-8q8 34 7.5 84t-3.5 124z" />
    <glyph glyph-name="uni222C" unicode="&#x222c;" 
d="M227 358q-4 70 -0.5 135t12.5 116q14 81 45.5 126.5t73.5 61.5q24 9 54 6.5t45 -11.5q22 -12 34.5 -33.5t9.5 -51.5q-3 -22 -18 -44t-48 -25q-18 -3 -38.5 0t-28.5 14l4 -9q1 -20 3 -45t5 -70q3 -47 4.5 -88.5t-0.5 -94.5q-2 -25 -4.5 -54.5t-6.5 -59.5t-10.5 -58.5
t-14.5 -50.5q-20 -51 -45.5 -79.5t-58.5 -40.5q-27 -8 -53 -5t-43 12q-17 7 -31 25t-15 39q-2 21 5.5 44t35.5 38q20 11 45.5 10t34.5 -7v-8q8 34 7.5 84t-3.5 124zM522 358q-4 70 -0.5 135t12.5 116q14 81 45.5 126.5t73.5 61.5q24 9 54 6.5t45 -11.5q22 -12 34.5 -33.5
t9.5 -51.5q-3 -22 -18 -44t-48 -25q-18 -3 -38.5 0t-28.5 14l4 -9q1 -20 3 -45t5 -70q3 -47 4.5 -88.5t-0.5 -94.5q-2 -25 -4.5 -54.5t-6.5 -59.5t-10.5 -58.5t-14.5 -50.5q-20 -51 -45.5 -79.5t-58.5 -40.5q-27 -8 -53 -5t-43 12q-17 7 -31 25t-15 39q-2 21 5.5 44t35.5 38
q20 11 45.5 10t34.5 -7v-8q8 34 7.5 84t-3.5 124z" />
    <glyph glyph-name="uni222E" unicode="&#x222e;" 
d="M378 358q-3 33 -3 66t2 63q-24 -12 -36.5 -33t-12.5 -53q0 -33 13.5 -54t38.5 -33q-1 10 -1.5 21t-0.5 23zM391 615q15 78 46 122t72 60q24 9 54 6.5t45 -11.5q22 -12 34.5 -33.5t9.5 -51.5q-3 -22 -18 -44t-48 -25q-18 -3 -38.5 0t-28.5 14l4 -9v-7.5v-6.5
q0 -4 0.5 -7.5t1.5 -6.5q92 -17 141 -75t49 -139q0 -38 -14 -73t-39 -64q-26 -29 -63 -49.5t-83 -28.5q-4 -18 -8 -34.5t-9 -29.5q-20 -51 -45.5 -79.5t-58.5 -40.5q-27 -8 -53 -5t-43 12q-17 7 -31 25t-15 39q-2 21 5.5 44t35.5 38q20 11 45.5 10t34.5 -7v-8q2 9 3.5 18.5
t2.5 21.5q-84 21 -131.5 80.5t-47.5 130.5q0 81 48.5 139t141.5 75zM533 490q2 -35 2.5 -69t-0.5 -76q-1 -4 -1 -8v-8q-1 -4 -1 -8v-8q26 11 40.5 33t14.5 55q0 34 -14 55.5t-41 33.5z" />
    <glyph glyph-name="therefore" unicode="&#x2234;" 
d="M450 511q-43 0 -71.5 25t-28.5 71q0 43 30.5 69.5t69.5 26.5t69.5 -26.5t30.5 -69.5q0 -46 -29 -71t-71 -25zM231 121q-43 0 -71.5 25t-28.5 71q0 43 30.5 69.5t69.5 26.5t70 -26.5t31 -69.5q0 -46 -29 -71t-72 -25zM669 121q-44 0 -72.5 25t-28.5 71q0 43 30.5 69.5
t70.5 26.5q39 0 69.5 -26.5t30.5 -69.5q0 -46 -29 -71t-71 -25z" />
    <glyph glyph-name="uni2235" unicode="&#x2235;" 
d="M450 293q42 0 71 -25.5t29 -70.5q0 -44 -30.5 -70t-69.5 -26t-69.5 26t-30.5 70q0 45 28.5 70.5t71.5 25.5zM669 683q42 0 71 -25.5t29 -70.5q0 -44 -30.5 -70t-69.5 -26q-40 0 -70.5 26t-30.5 70q0 45 28.5 70.5t72.5 25.5zM231 683q43 0 72 -25.5t29 -70.5
q0 -44 -31 -70t-70 -26t-69.5 26t-30.5 70q0 45 28.5 70.5t71.5 25.5z" />
    <glyph glyph-name="similar" unicode="&#x223c;" 
d="M521 770q14 0 19.5 8.5t8.5 26.5l4 28l137 -39l-2 -29q-9 -72 -39.5 -106.5t-72.5 -35.5q-37 -3 -64 5t-55 24q-26 13 -45 18t-30 2q-12 -3 -18 -11t-10 -25l-7 -29l-137 38l4 29q9 66 32.5 100t59.5 46q33 9 61 6t56 -17q13 -7 26.5 -14t26.5 -13q12 -6 24 -9.5t21 -2.5
z" />
    <glyph glyph-name="uni223D" unicode="&#x223d;" 
d="M257 288q30 -3 57.5 20.5t43.5 67.5q15 43 33.5 84.5t43.5 73.5q32 45 68.5 65t93.5 23q82 4 134.5 -29t85.5 -99q21 -44 23 -88.5t-9 -83.5t-30 -70t-39 -47q-36 -31 -71.5 -43.5t-89.5 -12.5q-53 0 -86.5 13t-65.5 41l59 109q26 -18 50.5 -26t42.5 -6q36 3 66 29t30 77
q0 58 -30.5 80t-66.5 22t-60.5 -34.5t-42.5 -88.5q-9 -28 -21.5 -57.5t-28.5 -55.5q-16 -27 -36.5 -49t-44.5 -34q-20 -11 -46 -17t-53 -6q-28 -1 -55 3t-48 13q-50 20 -86.5 70t-42.5 119q-7 63 11 117.5t63 96.5q35 30 78.5 45t82.5 12q28 -2 48 -5.5t36 -9.5
q17 -7 32.5 -17t36.5 -25l-60 -107q-25 20 -44.5 28t-49.5 8q-19 0 -36.5 -8.5t-30.5 -23.5t-20 -34.5t-4 -41.5q3 -50 24 -72.5t55 -25.5z" />
    <glyph glyph-name="uni2252" unicode="&#x2252;" 
d="M271 612q-41 0 -68 23.5t-27 66.5q0 40 29 65t66 25q36 0 65.5 -25t29.5 -65q0 -43 -27.5 -66.5t-67.5 -23.5zM155 576h589v-143h-589v143zM155 379h589v-145h-589v145zM629 21q-41 0 -68 23.5t-27 66.5q0 40 29 65t66 25q36 0 65.5 -25t29.5 -65q0 -43 -27.5 -66.5
t-67.5 -23.5z" />
    <glyph glyph-name="notequal" unicode="&#x2260;" horiz-adv-x="602" 
d="M41 606h211l43 226l184 -30l-37 -196h118v-153h-146l-19 -99h165v-155h-194l-40 -219l-185 30l35 189h-135v155h164l19 99h-183v153z" />
    <glyph glyph-name="equivalence" unicode="&#x2261;" 
d="M124 684h651v-135h-651v135zM124 304h651v-135h-651v135zM124 494h651v-135h-651v135z" />
    <glyph glyph-name="lessequal" unicode="&#x2264;" horiz-adv-x="850" 
d="M260 513l464 -160l-41 -149l-596 217v184l596 207l41 -149zM69 168h671v-145h-671v145z" />
    <glyph glyph-name="greaterequal" unicode="&#x2265;" horiz-adv-x="850" 
d="M550 513l-464 150l41 149l596 -207v-184l-596 -217l-41 149zM741 168v-145h-671v145h671z" />
    <glyph glyph-name="uni226A" unicode="&#x226a;" 
d="M66 374v50l382 401l111 -101l-306 -325l304 -328l-110 -98zM351 373v50l372 391l111 -106l-301 -310l299 -313l-110 -103z" />
    <glyph glyph-name="uni226B" unicode="&#x226b;" 
d="M834 374l-381 -401l-110 98l304 328l-306 325l111 101l382 -401v-50zM549 373l-371 -391l-110 103l299 313l-301 310l111 106l372 -391v-50z" />
    <glyph glyph-name="propersubset" unicode="&#x2282;" 
d="M258 405q3 -52 21 -86t44 -54q27 -20 57.5 -27.5t59.5 -7.5h371v-150h-404q-71 0 -129.5 24t-100.5 67t-65.5 102.5t-23.5 131.5q0 71 23.5 130.5t65.5 102.5t100.5 67.5t129.5 24.5h404v-150h-371q-29 0 -59.5 -8t-57.5 -28q-26 -20 -44 -54t-21 -85z" />
    <glyph glyph-name="propersuperset" unicode="&#x2283;" 
d="M641 405q-4 51 -22 85t-44 54q-27 20 -57.5 28t-58.5 8h-371v150h404q70 0 128.5 -24.5t100.5 -67.5t66 -102.5t24 -130.5q0 -72 -24 -131.5t-66 -102.5t-100.5 -67t-128.5 -24h-404v150h371q28 0 58.5 7.5t57.5 27.5q26 20 44 54t22 86z" />
    <glyph glyph-name="reflexsubset" unicode="&#x2286;" 
d="M811 185v-150h-711v150h711zM258 528q0 -54 44 -74.5t131 -20.5h378v-155h-394q-156 0 -242.5 61t-86.5 189q0 123 86.5 186.5t242.5 63.5h394v-155h-378q-87 0 -131 -21t-44 -74z" />
    <glyph glyph-name="reflexsuperset" unicode="&#x2287;" 
d="M88 185h711v-150h-711v150zM641 528q0 53 -44.5 74t-130.5 21h-378v155h394q156 0 242.5 -63.5t86.5 -186.5q0 -128 -86.5 -189t-242.5 -61h-394v155h378q86 0 130.5 20.5t44.5 74.5z" />
    <glyph glyph-name="uni2299" unicode="&#x2299;" 
d="M450 796q91 0 163.5 -28t123.5 -79q51 -52 78.5 -124t27.5 -160q0 -89 -27.5 -161t-78.5 -123q-51 -52 -123.5 -79.5t-163.5 -27.5q-92 0 -164.5 27.5t-123.5 79.5q-51 51 -78 123t-27 161q0 88 27 160t78 124q51 51 123.5 79t164.5 28zM450 685q-135 0 -211 -75
t-76 -205q0 -131 76 -205.5t211 -74.5t211 74.5t76 205.5q0 130 -76 205t-211 75zM450 605q89 0 144 -54.5t55 -145.5q0 -92 -55 -146t-144 -54q-90 0 -144.5 54t-54.5 146q0 91 54.5 145.5t144.5 54.5z" />
    <glyph glyph-name="perpendicular" unicode="&#x22a5;" 
d="M82 175h280v602h175v-602h280v-160h-735v160z" />
    <glyph glyph-name="uni2312" unicode="&#x2312;" 
d="M450 529q-82 0 -138 -51.5t-72 -152.5l-164 30q9 78 40 140t80 105q48 43 112.5 66t141.5 23q76 0 140.5 -23t112.5 -66q49 -43 80 -105t41 -140l-164 -30q-17 101 -73 152.5t-137 51.5z" />
    <glyph glyph-name="uni2460" unicode="&#x2460;" 
d="M381 481l-52 -4v121q30 4 51.5 14.5t32.5 32.5h118v-471h-150v307zM450 842q100 0 178.5 -33t133.5 -91q54 -59 83 -139t29 -174q0 -95 -29 -175t-83 -138q-55 -59 -133.5 -91.5t-178.5 -32.5q-101 0 -179.5 32.5t-133.5 91.5q-54 58 -82.5 138t-28.5 175q0 94 28.5 174
t82.5 139q55 58 133.5 91t179.5 33zM450 711q-67 0 -121 -22.5t-93 -62.5q-38 -40 -59 -96.5t-21 -124.5q0 -69 21 -125.5t59 -96.5q39 -40 93 -62t121 -22q66 0 120 22t93 62q38 40 59.5 96.5t21.5 125.5q0 68 -21.5 124.5t-59.5 96.5q-39 40 -93 62.5t-120 22.5z" />
    <glyph glyph-name="uni2461" unicode="&#x2461;" 
d="M282 171v90q24 22 42.5 39.5t35.5 33.5l32 32t34 37q28 31 38.5 49.5t8.5 33.5q-1 15 -10 22t-18 7q-15 -1 -28 -14.5t-19 -41.5l-122 40q17 69 57.5 107.5t107.5 41.5q53 1 97.5 -23.5t62.5 -62.5q16 -36 12.5 -85t-27.5 -87q-12 -18 -22 -31t-21 -24q-10 -12 -21 -22.5
t-24 -22.5h42q16 0 36 1t48 7v-116q-29 -6 -62.5 -8.5t-54.5 -2.5h-225zM450 842q100 0 178.5 -33t133.5 -91q54 -59 83 -139t29 -174q0 -95 -29 -175t-83 -138q-55 -59 -133.5 -91.5t-178.5 -32.5q-101 0 -179.5 32.5t-133.5 91.5q-54 58 -82.5 138t-28.5 175
q0 94 28.5 174t82.5 139q55 58 133.5 91t179.5 33zM450 711q-67 0 -121 -22.5t-93 -62.5q-38 -40 -59 -96.5t-21 -124.5q0 -69 21 -125.5t59 -96.5q39 -40 93 -62t121 -22q66 0 120 22t93 62q38 40 59.5 96.5t21.5 125.5q0 68 -21.5 124.5t-59.5 96.5q-39 40 -93 62.5
t-120 22.5z" />
    <glyph glyph-name="uni2462" unicode="&#x2462;" 
d="M405 358l-8 103q53 2 71 11.5t21 29.5q1 13 -9.5 21t-29.5 8q-18 0 -32.5 -10.5t-26.5 -33.5l-110 50q25 48 64 78t90 34q54 3 105 -15.5t71 -63.5q8 -19 10 -41t-1 -42t-11 -37.5t-20 -26.5q15 -9 25.5 -27t15.5 -39q5 -22 4 -45t-8 -42q-21 -57 -76 -86t-130 -17
q-54 8 -94.5 39.5t-61.5 90.5l110 59q9 -30 26 -46.5t40 -19.5q20 -3 37 3.5t20 27.5q2 15 -9.5 29t-35.5 13q-5 -1 -10 -1t-11 -1q-5 0 -11.5 -1t-14.5 -2zM450 842q100 0 178.5 -33t133.5 -91q54 -59 83 -139t29 -174q0 -95 -29 -175t-83 -138q-55 -59 -133.5 -91.5
t-178.5 -32.5q-101 0 -179.5 32.5t-133.5 91.5q-54 58 -82.5 138t-28.5 175q0 94 28.5 174t82.5 139q55 58 133.5 91t179.5 33zM450 711q-67 0 -121 -22.5t-93 -62.5q-38 -40 -59 -96.5t-21 -124.5q0 -69 21 -125.5t59 -96.5q39 -40 93 -62t121 -22q66 0 120 22t93 62
q38 40 59.5 96.5t21.5 125.5q0 68 -21.5 124.5t-59.5 96.5q-39 40 -93 62.5t-120 22.5z" />
    <glyph glyph-name="uni2463" unicode="&#x2463;" 
d="M427 487l-49 -117h49v117zM402 641h164v-271h28h17.5t27.5 3v-120q-9 -2 -16.5 -2.5t-13.5 -0.5q-7 -1 -11.5 -0.5t-6.5 0.5h-25v-82h-142v82h-184v89zM450 842q100 0 178.5 -33t133.5 -91q54 -59 83 -139t29 -174q0 -95 -29 -175t-83 -138q-55 -59 -133.5 -91.5
t-178.5 -32.5q-101 0 -179.5 32.5t-133.5 91.5q-54 58 -82.5 138t-28.5 175q0 94 28.5 174t82.5 139q55 58 133.5 91t179.5 33zM450 711q-67 0 -121 -22.5t-93 -62.5q-38 -40 -59 -96.5t-21 -124.5q0 -69 21 -125.5t59 -96.5q39 -40 93 -62t121 -22q66 0 120 22t93 62
q38 40 59.5 96.5t21.5 125.5q0 68 -21.5 124.5t-59.5 96.5q-39 40 -93 62.5t-120 22.5z" />
    <glyph glyph-name="uni2464" unicode="&#x2464;" 
d="M439 472q32 8 70.5 2t69.5 -27q33 -24 46.5 -74.5t-1.5 -101.5q-19 -62 -71 -91t-122 -24q-53 3 -90.5 25t-61.5 67l95 71q18 -23 35.5 -33t34.5 -10q20 -1 35.5 9t21.5 34q4 19 -8 35.5t-36 22.5q-17 3 -33.5 -3.5t-25.5 -21.5l-106 29l25 251h282v-118h-157zM450 842
q100 0 178.5 -33t133.5 -91q54 -59 83 -139t29 -174q0 -95 -29 -175t-83 -138q-55 -59 -133.5 -91.5t-178.5 -32.5q-101 0 -179.5 32.5t-133.5 91.5q-54 58 -82.5 138t-28.5 175q0 94 28.5 174t82.5 139q55 58 133.5 91t179.5 33zM450 711q-67 0 -121 -22.5t-93 -62.5
q-38 -40 -59 -96.5t-21 -124.5q0 -69 21 -125.5t59 -96.5q39 -40 93 -62t121 -22q66 0 120 22t93 62q38 40 59.5 96.5t21.5 125.5q0 68 -21.5 124.5t-59.5 96.5q-39 40 -93 62.5t-120 22.5z" />
    <glyph glyph-name="uni2465" unicode="&#x2465;" 
d="M407 335q-3 -22 8 -37.5t33 -17.5q20 -3 35.5 8t18.5 32q3 19 -8.5 35.5t-33.5 19.5q-21 2 -35.5 -8t-17.5 -32zM284 288q-9 42 -4.5 81.5t19.5 84.5q15 43 38 95t57 106l129 -27q-18 -33 -34.5 -70t-27.5 -72v-9q24 3 55 -3t56 -24q34 -25 50 -72t1 -100
q-18 -60 -67 -90.5t-127 -21.5q-58 6 -96.5 38.5t-48.5 83.5zM450 842q100 0 178.5 -33t133.5 -91q54 -59 83 -139t29 -174q0 -95 -29 -175t-83 -138q-55 -59 -133.5 -91.5t-178.5 -32.5q-101 0 -179.5 32.5t-133.5 91.5q-54 58 -82.5 138t-28.5 175q0 94 28.5 174t82.5 139
q55 58 133.5 91t179.5 33zM450 711q-67 0 -121 -22.5t-93 -62.5q-38 -40 -59 -96.5t-21 -124.5q0 -69 21 -125.5t59 -96.5q39 -40 93 -62t121 -22q66 0 120 22t93 62q38 40 59.5 96.5t21.5 125.5q0 68 -21.5 124.5t-59.5 96.5q-39 40 -93 62.5t-120 22.5z" />
    <glyph glyph-name="uni2466" unicode="&#x2466;" 
d="M355 173q5 48 16 94.5t26 88.5q14 42 30.5 77t33.5 60v7h-186v118h349v-88q-28 -38 -49 -75.5t-37 -80.5q-16 -44 -28 -96t-21 -117zM450 842q100 0 178.5 -33t133.5 -91q54 -59 83 -139t29 -174q0 -95 -29 -175t-83 -138q-55 -59 -133.5 -91.5t-178.5 -32.5
q-101 0 -179.5 32.5t-133.5 91.5q-54 58 -82.5 138t-28.5 175q0 94 28.5 174t82.5 139q55 58 133.5 91t179.5 33zM450 711q-67 0 -121 -22.5t-93 -62.5q-38 -40 -59 -96.5t-21 -124.5q0 -69 21 -125.5t59 -96.5q39 -40 93 -62t121 -22q66 0 120 22t93 62q38 40 59.5 96.5
t21.5 125.5q0 68 -21.5 124.5t-59.5 96.5q-39 40 -93 62.5t-120 22.5z" />
    <glyph glyph-name="uni2467" unicode="&#x2467;" 
d="M450 842q100 0 178.5 -33t133.5 -91q54 -59 83 -139t29 -174q0 -95 -29 -175t-83 -138q-55 -59 -133.5 -91.5t-178.5 -32.5q-101 0 -179.5 32.5t-133.5 91.5q-54 58 -82.5 138t-28.5 175q0 94 28.5 174t82.5 139q55 58 133.5 91t179.5 33zM450 711q-67 0 -121 -22.5
t-93 -62.5q-38 -40 -59 -96.5t-21 -124.5q0 -69 21 -125.5t59 -96.5q39 -40 93 -62t121 -22q66 0 120 22t93 62q38 40 59.5 96.5t21.5 125.5q0 68 -21.5 124.5t-59.5 96.5q-39 40 -93 62.5t-120 22.5zM450 161q-65 0 -115 27.5t-64 86.5q-14 54 6.5 93.5t50.5 53.5
q-28 23 -36.5 64.5t3.5 76.5q15 42 56.5 66t98.5 24t98.5 -24t56.5 -66q12 -35 3 -76.5t-36 -64.5q29 -14 49.5 -53.5t7.5 -93.5q-15 -59 -65 -86.5t-114 -27.5zM450 469q17 0 29.5 9t12.5 27q0 17 -13.5 26t-28.5 9q-16 0 -29 -9t-13 -26q0 -18 12 -27t30 -9zM450 277
q19 0 33.5 11.5t14.5 29.5q0 21 -15 32.5t-33 11.5q-19 0 -33.5 -11.5t-14.5 -32.5q0 -18 14 -29.5t34 -11.5z" />
    <glyph glyph-name="uni2468" unicode="&#x2468;" 
d="M450 842q100 0 178.5 -33t133.5 -91q54 -59 83 -139t29 -174q0 -95 -29 -175t-83 -138q-55 -59 -133.5 -91.5t-178.5 -32.5q-101 0 -179.5 32.5t-133.5 91.5q-54 58 -82.5 138t-28.5 175q0 94 28.5 174t82.5 139q55 58 133.5 91t179.5 33zM450 711q-67 0 -121 -22.5
t-93 -62.5q-38 -40 -59 -96.5t-21 -124.5q0 -69 21 -125.5t59 -96.5q39 -40 93 -62t121 -22q66 0 120 22t93 62q38 40 59.5 96.5t21.5 125.5q0 68 -21.5 124.5t-59.5 96.5q-39 40 -93 62.5t-120 22.5zM504 471q3 21 -8.5 36.5t-32.5 18.5q-21 2 -36 -8.5t-18 -31.5
q-4 -20 7.5 -36.5t34.5 -18.5q21 -3 35.5 7t17.5 33zM625 518q10 -42 5.5 -82t-18.5 -84q-15 -44 -37 -94t-55 -107l-131 22q18 33 36 72t30 75v9q-24 -3 -58 3t-59 24q-15 10 -28 28t-20 41q-8 23 -9 49.5t7 53.5q17 59 67 90t129 22q49 -6 88.5 -38.5t52.5 -83.5z" />
    <glyph glyph-name="uni2469" unicode="&#x2469;" 
d="M251 481l-47 -4v107q-24 -36 -36 -82t-12 -97q0 -69 21 -125.5t59 -96.5q39 -40 93 -62t121 -22q66 0 120 22t93 62q38 40 59.5 96.5t21.5 125.5q0 68 -21.5 124.5t-59.5 96.5q-39 40 -93 62.5t-120 22.5q-78 0 -138 -29.5t-98 -81.5q26 4 42.5 14t26.5 31h93v-471h-125
v307zM450 842q100 0 178.5 -33t133.5 -91q54 -59 83 -139t29 -174q0 -95 -29 -175t-83 -138q-55 -59 -133.5 -91.5t-178.5 -32.5q-101 0 -179.5 32.5t-133.5 91.5q-54 58 -82.5 138t-28.5 175q0 94 28.5 174t82.5 139q55 58 133.5 91t179.5 33zM540 167q-33 0 -60.5 10
t-46.5 37t-29.5 73.5t-10.5 119.5q0 70 10.5 116.5t29.5 73.5q20 28 47 39t60 11q32 0 59 -11t47 -39q19 -27 30 -73.5t11 -116.5q0 -73 -11 -119.5t-30 -73.5t-46 -37t-60 -10zM540 281q14 0 21.5 24.5t7.5 101.5q0 78 -6 102t-23 24q-18 0 -23.5 -24t-5.5 -102
q0 -77 7 -101.5t22 -24.5z" />
    <glyph glyph-name="uni246A" unicode="&#x246a;" 
d="M276 481l-42 -4v121q30 4 46.5 14.5t27.5 32.5h103v-471h-135v307zM450 842q100 0 178.5 -33t133.5 -91q54 -59 83 -139t29 -174q0 -95 -29 -175t-83 -138q-55 -59 -133.5 -91.5t-178.5 -32.5q-101 0 -179.5 32.5t-133.5 91.5q-54 58 -82.5 138t-28.5 175q0 94 28.5 174
t82.5 139q55 58 133.5 91t179.5 33zM450 711q-67 0 -121 -22.5t-93 -62.5q-38 -40 -59 -96.5t-21 -124.5q0 -69 21 -125.5t59 -96.5q39 -40 93 -62t121 -22q66 0 120 22t93 62q38 40 59.5 96.5t21.5 125.5q0 68 -21.5 124.5t-59.5 96.5q-39 40 -93 62.5t-120 22.5zM501 481
l-42 -4v121q30 4 46.5 14.5t27.5 32.5h103v-471h-135v307z" />
    <glyph glyph-name="uni246B" unicode="&#x246b;" 
d="M251 481l-42 -4v115q-26 -38 -39.5 -85.5t-13.5 -101.5q0 -69 21 -125.5t59 -96.5q39 -40 93 -62t121 -22q63 0 115.5 20t91.5 59q-20 -4 -39.5 -5.5t-32.5 -1.5h-179v90q19 22 32.5 37.5t25.5 29.5q11 14 22 29t25 36q22 33 30 55.5t7 37.5t-8 22t-14 7
q-12 -1 -22 -14.5t-15 -41.5l-98 40q14 69 51 107.5t91 41.5q42 1 76.5 -22t50.5 -60q15 -36 10 -85.5t-20 -85.5t-30 -61t-36 -49h28q12 0 28 1t39 7v-92q30 39 47.5 90.5t17.5 113.5q0 68 -21.5 124.5t-59.5 96.5q-39 40 -93 62.5t-120 22.5q-78 0 -138 -29.5t-99 -82.5
q28 4 43.5 14.5t26.5 31.5h93v-471h-125v307zM450 842q100 0 178.5 -33t133.5 -91q54 -59 83 -139t29 -174q0 -95 -29 -175t-83 -138q-55 -59 -133.5 -91.5t-178.5 -32.5q-101 0 -179.5 32.5t-133.5 91.5q-54 58 -82.5 138t-28.5 175q0 94 28.5 174t82.5 139q55 58 133.5 91
t179.5 33z" />
    <glyph glyph-name="uni246C" unicode="&#x246c;" 
d="M256 481l-52 -4v107q-24 -36 -36 -82t-12 -97q0 -69 21 -125.5t59 -96.5q39 -40 93 -62t121 -22q66 0 120 22t93 62q38 40 59.5 96.5t21.5 125.5q0 68 -21.5 124.5t-59.5 96.5q-39 40 -93 62.5t-120 22.5q-78 0 -138 -29.5t-98 -81.5q27 4 45.5 14t28.5 31h93v-471h-125
v307zM450 842q100 0 178.5 -33t133.5 -91q54 -59 83 -139t29 -174q0 -95 -29 -175t-83 -138q-55 -59 -133.5 -91.5t-178.5 -32.5q-101 0 -179.5 32.5t-133.5 91.5q-54 58 -82.5 138t-28.5 175q0 94 28.5 174t82.5 139q55 58 133.5 91t179.5 33zM490 360l-6 99q37 1 56.5 12
t19.5 31q0 14 -9 23t-24 9q-14 0 -28 -10t-24 -25l-70 64q23 39 52 60.5t70 25.5q42 3 82 -16.5t58 -62.5q15 -36 6.5 -80.5t-33.5 -66.5q31 -21 41.5 -65t0.5 -82q-16 -57 -60 -86t-104 -23q-37 3 -68.5 24t-53.5 58l72 82q13 -19 25.5 -29t30.5 -11q15 -2 27.5 5.5
t15.5 24.5q2 18 -10.5 30.5t-32.5 10.5z" />
    <glyph glyph-name="uni246D" unicode="&#x246d;" 
d="M256 481l-52 -4v107q-24 -36 -36 -82t-12 -97q0 -69 21 -125.5t59 -96.5q39 -40 93 -62t121 -22q66 0 120 22t93 62q38 40 59.5 96.5t21.5 125.5q0 70 -22.5 127.5t-62.5 98.5v-104h-115l-4 -42q29 1 62 -9.5t57 -34.5q23 -24 32.5 -63.5t-2.5 -89.5q-15 -62 -60 -91
t-93 -28q-42 0 -72 11.5t-52 35.5l60 99q12 -11 28.5 -17t30.5 -6q17 0 29.5 10.5t15.5 29.5q3 18 -4.5 34t-26.5 22q-13 3 -26.5 -1.5t-23.5 -19.5l-81 27l20 251h210q-38 31 -87.5 48.5t-106.5 17.5q-78 0 -138 -29.5t-98 -81.5q27 4 45.5 14t28.5 31h88v-471h-120v307z
M450 842q100 0 178.5 -33t133.5 -91q54 -59 83 -139t29 -174q0 -95 -29 -175t-83 -138q-55 -59 -133.5 -91.5t-178.5 -32.5q-101 0 -179.5 32.5t-133.5 91.5q-54 58 -82.5 138t-28.5 175q0 94 28.5 174t82.5 139q55 58 133.5 91t179.5 33z" />
    <glyph glyph-name="uni246E" unicode="&#x246e;" 
d="M256 481l-52 -4v107q-24 -36 -36 -82t-12 -97q0 -69 21 -125.5t59 -96.5q39 -40 93 -62t121 -22q61 0 112 18.5t90 54.5h-119v87h-133v89l105 297h139q-38 31 -87.5 48.5t-106.5 17.5q-78 0 -138 -29.5t-98 -81.5q27 4 45.5 14t28.5 31h88v-471h-120v307zM450 842
q100 0 178.5 -33t133.5 -91q54 -59 83 -139t29 -174q0 -95 -29 -175t-83 -138q-55 -59 -133.5 -91.5t-178.5 -32.5q-101 0 -179.5 32.5t-133.5 91.5q-54 58 -82.5 138t-28.5 175q0 94 28.5 174t82.5 139q55 58 133.5 91t179.5 33zM655 175q42 40 65.5 98.5t23.5 131.5
q0 72 -23.5 130.5t-65.5 99.5v-256h23h11t20 3v-120q-8 -2 -13 -2.5t-9 -0.5q-4 -1 -7 -0.5t-5 0.5h-20v-84zM540 501l-39 -122h39v122z" />
    <glyph glyph-name="uni246F" unicode="&#x246f;" horiz-adv-x="724" 
d="M702 383q0 -36 -7 -68.5t-20 -62.5q-14 -32 -32 -59t-40 -49q-24 -24 -51 -42t-57 -30q-32 -14 -64.5 -20t-66.5 -6q-36 0 -69.5 6t-63.5 20q-32 12 -59.5 30t-50.5 42q-24 22 -42.5 49t-31.5 59q-14 30 -20.5 62.5t-6.5 68.5q0 35 6.5 68t20.5 65q13 30 31.5 57t42.5 51
q23 22 50.5 40.5t59.5 32.5q30 12 63.5 19t69.5 7q34 0 66.5 -7t64.5 -19q30 -14 57 -32.5t51 -40.5q22 -24 40 -51t32 -57q13 -32 20 -65t7 -68zM224 176v347l-60 -42v60l70 49h49v-414h-59zM508 316q0 14 -2.5 27.5t-6.5 27.5q-6 12 -16.5 19t-26.5 7q-9 0 -16.5 -2.5
t-11.5 -5.5q-6 -5 -10 -10t-6 -11q-3 -8 -5 -15t-2 -14q-2 -9 -2 -16.5v-13.5v-17t2 -15q0 -9 2 -17t5 -15t7 -12.5t10 -8.5q5 -5 12.5 -7t17.5 -2q15 0 25 7.5t15 22.5q4 14 6.5 32t2.5 39zM469 446q9 0 19 -2t19 -5q8 -4 15.5 -10t15.5 -13q6 -9 11 -19.5t10 -23.5
q3 -14 5.5 -31t2.5 -37q0 -14 -1.5 -27.5t-4.5 -25.5q-3 -14 -8.5 -25t-11.5 -20q-7 -10 -15.5 -17.5t-18.5 -12.5q-11 -6 -23.5 -9t-27.5 -3q-17 0 -30.5 3t-23.5 9q-11 5 -19 12.5t-14 16.5t-10 20t-6 24q-3 12 -4.5 25t-1.5 27l-4 77l4 81q0 12 1.5 25t4.5 26q2 12 6 23
t10 21q6 9 14 17t19 14q10 5 23.5 8t30.5 3q23 0 42.5 -7.5t34.5 -20.5q15 -15 21.5 -34t6.5 -43h-60q0 11 -3 21.5t-9 19.5t-14.5 13.5t-18.5 4.5q-15 0 -25.5 -7.5t-15.5 -21.5q-6 -15 -9 -42t-3 -66q5 8 12 14t16 11q8 3 17.5 5t20.5 2zM645 386q0 28 -6 55.5t-16 54.5
q-12 25 -27.5 47.5t-33.5 42.5q-20 19 -42.5 34.5t-47.5 27.5q-27 11 -54.5 17t-57.5 6t-57 -6t-52 -17q-27 -12 -49.5 -27.5t-41.5 -34.5q-20 -20 -35.5 -42.5t-25.5 -47.5q-12 -27 -17.5 -54.5t-5.5 -55.5q0 -30 5.5 -58t17.5 -53q10 -27 25.5 -50t35.5 -42
q19 -21 41.5 -36.5t49.5 -25.5q25 -12 52 -17.5t57 -5.5t57.5 5.5t54.5 17.5q25 10 47.5 25.5t42.5 36.5q18 19 33.5 42t27.5 50q10 25 16 53t6 58z" />
    <glyph glyph-name="uni2470" unicode="&#x2470;" horiz-adv-x="724" 
d="M702 383q0 -36 -7 -68.5t-20 -62.5q-14 -32 -32 -59t-40 -49q-24 -24 -51 -42t-57 -30q-32 -14 -64.5 -20t-66.5 -6q-36 0 -69.5 6t-63.5 20q-32 12 -59.5 30t-50.5 42q-24 22 -42.5 49t-31.5 59q-14 30 -20.5 62.5t-6.5 68.5q0 35 6.5 68t20.5 65q13 30 31.5 57t42.5 51
q23 22 50.5 40.5t59.5 32.5q30 12 63.5 19t69.5 7q34 0 66.5 -7t64.5 -19q30 -14 57 -32.5t51 -40.5q22 -24 40 -51t32 -57q13 -32 20 -65t7 -68zM224 176v347l-60 -42v60l70 49h49v-414h-59zM547 593v-52l-109 -365h-67l113 362h-155v55h218zM645 386q0 28 -6 55.5
t-16 54.5q-12 25 -27.5 47.5t-33.5 42.5q-20 19 -42.5 34.5t-47.5 27.5q-27 11 -54.5 17t-57.5 6t-57 -6t-52 -17q-27 -12 -49.5 -27.5t-41.5 -34.5q-20 -20 -35.5 -42.5t-25.5 -47.5q-12 -27 -17.5 -54.5t-5.5 -55.5q0 -30 5.5 -58t17.5 -53q10 -27 25.5 -50t35.5 -42
q19 -21 41.5 -36.5t49.5 -25.5q25 -12 52 -17.5t57 -5.5t57.5 5.5t54.5 17.5q25 10 47.5 25.5t42.5 36.5q18 19 33.5 42t27.5 50q10 25 16 53t6 58z" />
    <glyph glyph-name="uni2471" unicode="&#x2471;" horiz-adv-x="724" 
d="M702 383q0 -36 -7 -68.5t-20 -62.5q-14 -32 -32 -59t-40 -49q-24 -24 -51 -42t-57 -30q-32 -14 -64.5 -20t-66.5 -6q-36 0 -69.5 6t-63.5 20q-32 12 -59.5 30t-50.5 42q-24 22 -42.5 49t-31.5 59q-14 30 -20.5 62.5t-6.5 68.5q0 35 6.5 68t20.5 65q13 30 31.5 57t42.5 51
q23 22 50.5 40.5t59.5 32.5q30 12 63.5 19t69.5 7q34 0 66.5 -7t64.5 -19q30 -14 57 -32.5t51 -40.5q22 -24 40 -51t32 -57q13 -32 20 -65t7 -68zM224 176v347l-60 -42v60l70 49h49v-414h-59zM452 368q-10 0 -17.5 -2t-11.5 -5q-6 -5 -10 -9.5t-7 -10.5t-4.5 -12.5
t-1.5 -12.5q-1 -8 -1 -15v-13q0 -14 3 -26.5t9 -23.5q6 -12 16 -17.5t25 -5.5q14 0 24.5 5.5t16.5 17.5q5 11 8 23.5t3 26.5q0 3 -0.5 6t-0.5 7v7v8q-1 6 -2.5 12.5t-4.5 12.5t-7 10.5t-8 9.5q-6 3 -13 5t-16 2zM487 394q21 -3 36.5 -13t24.5 -25q7 -17 11.5 -33.5
t4.5 -34.5q0 -30 -7.5 -52.5t-20.5 -37.5q-15 -17 -36 -25t-48 -8q-29 0 -50 8t-34 25q-15 15 -21.5 37.5t-6.5 52.5q0 18 3 34.5t10 32.5q6 15 19 24.5t34 14.5q-17 4 -28 13.5t-17 23.5q-8 12 -11 27.5t-3 33.5q0 24 6.5 43t21.5 34q13 13 32 20.5t45 7.5q24 0 43.5 -7.5
t34.5 -20.5q13 -15 20.5 -34t7.5 -43q0 -18 -4.5 -34t-12.5 -29q-9 -15 -22.5 -23.5t-31.5 -11.5zM452 551q-12 0 -21 -4.5t-15 -13.5q-7 -9 -10 -19.5t-3 -21.5v-11.5t2 -11.5q0 -6 2.5 -12t5.5 -11q2 -6 5.5 -10t9.5 -7q4 -4 10 -5.5t14 -1.5q7 0 13 1.5t12 5.5q4 3 7.5 7
t6.5 10q2 5 4 11l4 12q0 3 0.5 5.5t0.5 5.5t0.5 6t0.5 6q0 11 -3 21.5t-9 19.5q-7 9 -16 13.5t-21 4.5zM645 386q0 28 -6 55.5t-16 54.5q-12 25 -27.5 47.5t-33.5 42.5q-20 19 -42.5 34.5t-47.5 27.5q-27 11 -54.5 17t-57.5 6t-57 -6t-52 -17q-27 -12 -49.5 -27.5
t-41.5 -34.5q-20 -20 -35.5 -42.5t-25.5 -47.5q-12 -27 -17.5 -54.5t-5.5 -55.5q0 -30 5.5 -58t17.5 -53q10 -27 25.5 -50t35.5 -42q19 -21 41.5 -36.5t49.5 -25.5q25 -12 52 -17.5t57 -5.5t57.5 5.5t54.5 17.5q25 10 47.5 25.5t42.5 36.5q18 19 33.5 42t27.5 50
q10 25 16 53t6 58z" />
    <glyph glyph-name="uni2472" unicode="&#x2472;" horiz-adv-x="724" 
d="M702 383q0 -36 -7 -68.5t-20 -62.5q-14 -32 -32 -59t-40 -49q-24 -24 -51 -42t-57 -30q-32 -14 -64.5 -20t-66.5 -6q-36 0 -69.5 6t-63.5 20q-32 12 -59.5 30t-50.5 42q-24 22 -42.5 49t-31.5 59q-14 30 -20.5 62.5t-6.5 68.5q0 35 6.5 68t20.5 65q13 30 31.5 57t42.5 51
q23 22 50.5 40.5t59.5 32.5q30 12 63.5 19t69.5 7q34 0 66.5 -7t64.5 -19q30 -14 57 -32.5t51 -40.5q22 -24 40 -51t32 -57q13 -32 20 -65t7 -68zM224 176v347l-60 -42v60l70 49h49v-414h-59zM452 386q16 0 27 6.5t16 20.5q4 12 6.5 26.5t2.5 31.5q0 3 -0.5 6t-0.5 6
q0 4 -0.5 7.5t-0.5 7.5q-2 6 -4 13t-4 13q-4 6 -8 10.5t-8 9.5q-6 3 -12.5 5t-13.5 2q-9 0 -16.5 -2t-11.5 -5q-6 -5 -9.5 -9.5t-6.5 -10.5t-5 -13t-2 -13q-2 -8 -2 -14.5v-12.5q0 -17 2 -31.5t7 -26.5q4 -14 15 -20.5t29 -6.5zM438 337q-8 0 -15.5 1t-15.5 4q-9 1 -17 5.5
t-15 11.5q-8 7 -14.5 17t-10.5 24q-6 12 -8 29t-2 38q0 18 2 33t8 28q4 12 10 21.5t14 17.5q7 7 16.5 13t20.5 10q9 3 19.5 5t21.5 2q16 0 29.5 -3t24.5 -8q9 -6 17.5 -14t14.5 -17q6 -10 10.5 -21t7.5 -23l4 -26t4 -25v-158q-2 -14 -4 -27t-4 -25q-3 -13 -7.5 -24
t-10.5 -20t-14.5 -16.5t-17.5 -12.5q-11 -6 -24.5 -9t-29.5 -3q-24 0 -43.5 7.5t-32.5 22.5q-15 14 -21 35t-4 48h55q0 -13 2.5 -24t8.5 -20q5 -10 14 -14.5t21 -4.5q18 0 28.5 9.5t15.5 29.5q3 18 5.5 46.5t2.5 67.5q-6 -9 -12.5 -15t-14.5 -9q-9 -4 -19 -5.5t-20 -1.5z
M645 386q0 28 -6 55.5t-16 54.5q-12 25 -27.5 47.5t-33.5 42.5q-20 19 -42.5 34.5t-47.5 27.5q-27 11 -54.5 17t-57.5 6t-57 -6t-52 -17q-27 -12 -49.5 -27.5t-41.5 -34.5q-20 -20 -35.5 -42.5t-25.5 -47.5q-12 -27 -17.5 -54.5t-5.5 -55.5q0 -30 5.5 -58t17.5 -53
q10 -27 25.5 -50t35.5 -42q19 -21 41.5 -36.5t49.5 -25.5q25 -12 52 -17.5t57 -5.5t57.5 5.5t54.5 17.5q25 10 47.5 25.5t42.5 36.5q18 19 33.5 42t27.5 50q10 25 16 53t6 58z" />
    <glyph glyph-name="uni2473" unicode="&#x2473;" horiz-adv-x="724" 
d="M702 383q0 -36 -7 -68.5t-20 -62.5q-14 -32 -32 -59t-40 -49q-24 -24 -51 -42t-57 -30q-32 -14 -64.5 -20t-66.5 -6q-36 0 -69.5 6t-63.5 20q-32 12 -59.5 30t-50.5 42q-24 22 -42.5 49t-31.5 59q-14 30 -20.5 62.5t-6.5 68.5q0 35 6.5 68t20.5 65q13 30 31.5 57t42.5 51
q23 22 50.5 40.5t59.5 32.5q30 12 63.5 19t69.5 7q34 0 66.5 -7t64.5 -19q30 -14 57 -32.5t51 -40.5q22 -24 40 -51t32 -57q13 -32 20 -65t7 -68zM593 464v-148q-2 -12 -3.5 -24t-3.5 -22q-3 -12 -7 -22t-9 -19q-6 -9 -13.5 -16t-16.5 -12q-10 -6 -22 -8.5t-27 -2.5
q-17 0 -30 2.5t-22 8.5q-11 5 -18.5 12t-13.5 16t-10 19t-5 22q-3 10 -4.5 22t-1.5 24l-4 74l4 74q0 12 1 24t4 24q1 11 4.5 21.5t9.5 19.5t14 16t19 13q9 5 22.5 8t30.5 3q15 0 27 -3t22 -8q9 -6 16.5 -13t13.5 -16q5 -9 9 -19.5t7 -21.5q2 -12 3.5 -24t3.5 -24zM445 285
q2 -12 5.5 -20t9.5 -14q4 -6 11.5 -9t19.5 -3q7 0 13.5 3t12.5 9q4 6 8 14t7 20l4 46v48q0 39 -1.5 69.5t-4.5 51.5q-3 20 -13 30.5t-26 10.5q-20 0 -30.5 -10.5t-13.5 -30.5q-3 -21 -4.5 -51.5t-1.5 -69.5v-48zM266 407q7 12 12.5 23.5t9.5 22.5q3 9 4.5 20.5t1.5 25.5
q0 10 -3 18.5t-7 14.5q-6 6 -14 9t-18 3q-14 0 -22.5 -4.5t-11.5 -13.5q-5 -10 -6.5 -21.5t-1.5 -23.5h-57q-3 24 2 44t19 37q12 15 31 23t43 8q25 0 45 -6t34 -18q12 -13 19 -32.5t7 -44.5q0 -18 -2.5 -32.5t-6.5 -26.5l-12.5 -25t-13.5 -25l-102 -130h144v-53h-210v50z
M645 386q0 28 -6 55.5t-16 54.5q-12 25 -27.5 47.5t-33.5 42.5q-20 19 -42.5 34.5t-47.5 27.5q-27 11 -54.5 17t-57.5 6t-57 -6t-52 -17q-27 -12 -49.5 -27.5t-41.5 -34.5q-20 -20 -35.5 -42.5t-25.5 -47.5q-12 -27 -17.5 -54.5t-5.5 -55.5q0 -30 5.5 -58t17.5 -53
q10 -27 25.5 -50t35.5 -42q19 -21 41.5 -36.5t49.5 -25.5q25 -12 52 -17.5t57 -5.5t57.5 5.5t54.5 17.5q25 10 47.5 25.5t42.5 36.5q18 19 33.5 42t27.5 50q10 25 16 53t6 58z" />
    <glyph glyph-name="uni2474" unicode="&#x2474;" 
d="M374 487l-58 -4v133q33 5 57.5 16.5t36.5 35.5h132v-517h-168v336zM15 407q0 123 32.5 233t100.5 194l118 -56q-56 -81 -84.5 -178.5t-28.5 -192.5q0 -96 26.5 -185t86.5 -186l-118 -56q-68 83 -100.5 193t-32.5 234zM885 407q0 -124 -33 -234t-100 -193l-118 56
q59 97 86 186t27 185q0 95 -29 192.5t-84 178.5l118 56q67 -84 100 -194t33 -233z" />
    <glyph glyph-name="uni2475" unicode="&#x2475;" 
d="M265 147v100q26 24 47 43t39 37q18 17 35 35t37 41q30 33 41.5 52.5t9.5 36.5q-1 18 -11 25.5t-19 7.5q-16 -1 -30.5 -16t-20.5 -46l-135 44q19 77 63.5 119t118.5 45q57 1 105.5 -26t68.5 -69q18 -39 14.5 -93t-30.5 -95q-13 -19 -24 -33.5t-23 -26.5q-11 -13 -23.5 -25
t-26.5 -25h46q18 0 40 1.5t53 8.5v-128q-32 -7 -69 -10t-61 -3h-245zM15 407q0 123 32.5 233t100.5 194l118 -56q-56 -81 -84.5 -178.5t-28.5 -192.5q0 -96 26.5 -185t86.5 -186l-118 -56q-68 83 -100.5 193t-32.5 234zM885 407q0 -124 -33 -234t-100 -193l-118 56
q59 97 86 186t27 185q0 95 -29 192.5t-84 178.5l118 56q67 -84 100 -194t33 -233z" />
    <glyph glyph-name="uni2476" unicode="&#x2476;" 
d="M400 354l-9 112q57 3 76.5 13t22.5 32q1 15 -9.5 23.5t-31.5 8.5q-19 0 -35.5 -11.5t-29.5 -36.5l-121 55q27 53 70 86t99 37q29 2 58.5 -2t55.5 -15q27 -11 47.5 -28.5t31.5 -41.5q9 -21 11 -45t-1 -46q-4 -23 -12.5 -41.5t-21.5 -28.5q17 -10 28 -29.5t17 -43.5
q5 -23 3.5 -48t-8.5 -46q-22 -63 -82.5 -95t-141.5 -19q-60 9 -105 43.5t-68 99.5l121 65q10 -33 29 -51t45 -21q20 -4 38 3.5t23 29.5q2 17 -10.5 33t-38.5 13q-5 -1 -10.5 -1t-11.5 -1q-6 0 -13 -1t-16 -2zM15 407q0 123 32.5 233t100.5 194l118 -56q-56 -81 -84.5 -178.5
t-28.5 -192.5q0 -96 26.5 -185t86.5 -186l-118 -56q-68 83 -100.5 193t-32.5 234zM885 407q0 -124 -33 -234t-100 -193l-118 56q59 97 86 186t27 185q0 95 -29 192.5t-84 178.5l118 56q67 -84 100 -194t33 -233z" />
    <glyph glyph-name="uni2477" unicode="&#x2477;" 
d="M426 495l-55 -127h55v127zM399 664h178v-296h31h19t30 3v-132q-10 -2 -18.5 -3t-14.5 -1q-7 -1 -12 -0.5t-8 0.5h-27v-90h-154v90h-204v98zM15 407q0 123 32.5 233t100.5 194l118 -56q-56 -81 -84.5 -178.5t-28.5 -192.5q0 -96 26.5 -185t86.5 -186l-118 -56
q-68 83 -100.5 193t-32.5 234zM885 407q0 -124 -33 -234t-100 -193l-118 56q59 97 86 186t27 185q0 95 -29 192.5t-84 178.5l118 56q67 -84 100 -194t33 -233z" />
    <glyph glyph-name="uni2478" unicode="&#x2478;" 
d="M436 480q35 8 76.5 1.5t76.5 -30.5q36 -25 51.5 -80t-1.5 -112q-21 -68 -78 -100t-133 -26q-59 3 -100 27.5t-68 73.5l105 79q19 -26 38.5 -36.5t39.5 -11.5t37 10t23 38q5 21 -8 39t-39 25q-18 3 -36 -4t-29 -24l-116 32l27 275h309v-130h-172zM15 407q0 123 32.5 233
t100.5 194l118 -56q-56 -81 -84.5 -178.5t-28.5 -192.5q0 -96 26.5 -185t86.5 -186l-118 -56q-68 83 -100.5 193t-32.5 234zM885 407q0 -124 -33 -234t-100 -193l-118 56q59 97 86 186t27 185q0 95 -29 192.5t-84 178.5l118 56q67 -84 100 -194t33 -233z" />
    <glyph glyph-name="uni2479" unicode="&#x2479;" 
d="M402 329q-3 -24 8.5 -41.5t36.5 -19.5q20 -3 37 9t21 35q3 21 -9.5 39.5t-36.5 21.5q-23 2 -38.5 -9t-18.5 -35zM266 277q-9 46 -4 89.5t20 91.5q16 48 42 105t63 117l141 -30q-20 -37 -38.5 -77.5t-29.5 -78.5v-11q25 3 59.5 -3.5t61.5 -25.5q38 -28 56 -78.5t1 -109.5
q-19 -66 -73.5 -100t-138.5 -23q-64 6 -106.5 41.5t-53.5 92.5zM15 407q0 123 32.5 233t100.5 194l118 -56q-56 -81 -84.5 -178.5t-28.5 -192.5q0 -96 26.5 -185t86.5 -186l-118 -56q-68 83 -100.5 193t-32.5 234zM885 407q0 -124 -33 -234t-100 -193l-118 56q59 97 86 186
t27 185q0 95 -29 192.5t-84 178.5l118 56q67 -84 100 -194t33 -233z" />
    <glyph glyph-name="uni247A" unicode="&#x247a;" 
d="M346 152q5 52 17 103.5t28 97.5q16 45 33.5 83.5t35.5 66.5v7h-203v130h383v-96q-30 -41 -53 -82.5t-41 -89.5q-18 -47 -31.5 -104.5t-23.5 -129.5zM15 407q0 123 32.5 233t100.5 194l118 -56q-56 -81 -84.5 -178.5t-28.5 -192.5q0 -96 26.5 -185t86.5 -186l-118 -56
q-68 83 -100.5 193t-32.5 234zM885 407q0 -124 -33 -234t-100 -193l-118 56q59 97 86 186t27 185q0 95 -29 192.5t-84 178.5l118 56q67 -84 100 -194t33 -233z" />
    <glyph glyph-name="uni247B" unicode="&#x247b;" 
d="M449 137q-71 0 -126 30t-70 96q-15 60 7 102.5t55 56.5q-30 26 -39.5 71.5t3.5 84.5q16 47 62 73t108 26q61 0 107 -26t63 -73q12 -39 3 -84.5t-39 -71.5q32 -14 54.5 -56.5t7.5 -102.5q-15 -66 -70.5 -96t-125.5 -30zM449 475q18 0 32 9.5t14 29.5q0 19 -14.5 28.5
t-31.5 9.5q-18 0 -32 -9.5t-14 -28.5q0 -20 13.5 -29.5t32.5 -9.5zM449 265q21 0 36.5 12.5t15.5 32.5q0 23 -16 35.5t-36 12.5q-21 0 -36.5 -12.5t-15.5 -35.5q0 -20 15.5 -32.5t36.5 -12.5zM15 407q0 123 32.5 233t100.5 194l118 -56q-56 -81 -84.5 -178.5t-28.5 -192.5
q0 -96 26.5 -185t86.5 -186l-118 -56q-68 83 -100.5 193t-32.5 234zM885 407q0 -124 -33 -234t-100 -193l-118 56q59 97 86 186t27 185q0 95 -29 192.5t-84 178.5l118 56q67 -84 100 -194t33 -233z" />
    <glyph glyph-name="uni247C" unicode="&#x247c;" 
d="M507 477q3 24 -9 41t-36 20q-21 2 -38 -10t-20 -34q-4 -22 9 -40.5t37 -20.5q22 -3 38 8t19 36zM641 529q11 -46 5.5 -90t-20.5 -91q-17 -48 -41 -103.5t-60 -118.5l-143 24q19 36 39.5 79.5t32.5 82.5v11q-26 -4 -63.5 3t-64.5 26q-17 11 -31 31t-22 45q-8 24 -9.5 53
t7.5 59q18 65 73.5 99.5t140.5 23.5q54 -6 97.5 -41.5t58.5 -92.5zM15 407q0 123 32.5 233t100.5 194l118 -56q-56 -81 -84.5 -178.5t-28.5 -192.5q0 -96 26.5 -185t86.5 -186l-118 -56q-68 83 -100.5 193t-32.5 234zM885 407q0 -124 -33 -234t-100 -193l-118 56
q59 97 86 186t27 185q0 95 -29 192.5t-84 178.5l118 56q67 -84 100 -194t33 -233z" />
    <glyph glyph-name="uni247D" unicode="&#x247d;" 
d="M231 487l-52 -4v107q-14 -46 -20 -92t-6 -91q0 -96 26.5 -185t86.5 -186l-118 -56q-68 83 -100.5 193t-32.5 234q0 123 32.5 233t100.5 194l118 -56q-26 -37 -45.5 -77.5t-33.5 -82.5q30 4 49 15.5t30 34.5h103v-517h-138v336zM547 143q-36 0 -65.5 11t-50.5 41
q-21 29 -32 80.5t-11 131.5q0 77 11 128t32 81t50.5 42.5t65.5 12.5t66 -12.5t51 -42.5q22 -30 34 -81t12 -128q0 -80 -12 -131.5t-33 -80.5q-22 -30 -52 -41t-66 -11zM547 269q15 0 24 27t9 111q0 43 -1.5 70t-5.5 42t-10.5 20.5t-15.5 5.5q-10 0 -16 -5.5t-9 -20.5
q-4 -15 -5 -42t-1 -70q0 -84 7.5 -111t23.5 -27zM885 407q0 -124 -33 -234t-100 -193l-118 56q59 97 86 186t27 185q0 95 -29 192.5t-84 178.5l118 56q67 -84 100 -194t33 -233z" />
    <glyph glyph-name="uni247E" unicode="&#x247e;" 
d="M260 487l-47 -4v133q33 5 51.5 16.5t30.5 35.5h113v-517h-148v336zM506 487l-46 -4v133q33 5 51 16.5t30 35.5h114v-517h-149v336zM15 407q0 123 32.5 233t100.5 194l118 -56q-56 -81 -84.5 -178.5t-28.5 -192.5q0 -96 26.5 -185t86.5 -186l-118 -56q-68 83 -100.5 193
t-32.5 234zM885 407q0 -124 -33 -234t-100 -193l-118 56q59 97 86 186t27 185q0 95 -29 192.5t-84 178.5l118 56q67 -84 100 -194t33 -233z" />
    <glyph glyph-name="uni247F" unicode="&#x247f;" 
d="M231 487l-46 -4v128q-16 -51 -24 -102.5t-8 -101.5q0 -96 26.5 -185t86.5 -186l-118 -56q-68 83 -100.5 193t-32.5 234q0 123 32.5 233t100.5 194l118 -56q-26 -37 -46 -78t-33 -84q33 5 50 16.5t29 35.5h103v-517h-138v336zM402 147v100q20 24 34.5 41.5t27.5 32.5
q12 16 24 32.5t28 39.5q24 35 33 58.5t8 40.5q-1 18 -9 25.5t-15 7.5q-13 -1 -24.5 -16t-16.5 -46l-106 44q15 77 54.5 119t99.5 45q46 1 84 -24t56 -66q16 -40 11 -94t-22 -92q-17 -41 -33.5 -68t-39.5 -54h31q14 0 31.5 1.5t42.5 7.5v-114q23 60 34.5 118t11.5 121
q0 95 -29 192.5t-84 178.5l118 56q67 -84 100 -194t33 -233q0 -124 -33 -234t-100 -193l-118 56q19 31 35 62t28 61q-25 -6 -53 -9t-46 -3h-196z" />
    <glyph glyph-name="uni2480" unicode="&#x2480;" 
d="M236 487l-57 -4v107q-14 -46 -20 -92t-6 -91q0 -96 26.5 -185t86.5 -186l-118 -56q-68 83 -100.5 193t-32.5 234q0 123 32.5 233t100.5 194l118 -56q-26 -37 -45.5 -77.5t-33.5 -82.5q30 4 51.5 15.5t32.5 34.5h103v-517h-138v336zM493 356l-8 107q42 1 63 13.5t21 33.5
q0 15 -10 25.5t-26 10.5q-15 0 -30.5 -11t-26.5 -28l-76 71q26 42 57 66t76 29q47 3 90.5 -18t63.5 -69q8 -20 9.5 -43.5t-2.5 -45.5q-4 -23 -13.5 -42.5t-23.5 -31.5q17 -11 28.5 -29.5t17.5 -40.5t6 -45.5t-5 -43.5q-18 -63 -66.5 -95.5t-114.5 -25.5q-42 4 -75 27t-57 64
l76 91q15 -22 28.5 -32.5t33.5 -12.5q17 -2 31 6.5t17 26.5q3 20 -11 33.5t-37 11.5zM885 407q0 -124 -33 -234t-100 -193l-118 56q59 97 86 186t27 185q0 95 -29 192.5t-84 178.5l118 56q67 -84 100 -194t33 -233z" />
    <glyph glyph-name="uni2481" unicode="&#x2481;" 
d="M235 487l-57 -4v103q-13 -45 -19 -90t-6 -89q0 -96 26.5 -185t86.5 -186l-118 -56q-68 83 -100.5 193t-32.5 234q0 123 32.5 233t100.5 194l118 -56q-26 -37 -45.5 -77.5t-33.5 -82.5q30 5 51 16t33 34h96v-517h-132v336zM547 509l-43 -132h43v132zM508 668h165v-291h26
h11.5t22.5 3v-108q6 33 10 66t4 69q0 95 -29 192.5t-84 178.5l118 56q67 -84 100 -194t33 -233q0 -124 -33 -234t-100 -193l-118 56q33 55 56 107t37 104q-7 -2 -12 -2.5t-9 -0.5q-3 0 -6 0.5t-5 0.5h-22v-96h-135v96h-143v97z" />
    <glyph glyph-name="uni2482" unicode="&#x2482;" 
d="M236 487l-58 -4v103q-13 -45 -19 -90t-6 -89q0 -96 26.5 -185t86.5 -186l-118 -56q-68 83 -100.5 193t-32.5 234q0 123 32.5 233t100.5 194l118 -56q-26 -37 -45.5 -77.5t-33.5 -82.5q30 5 51 16t33 34h97v-517h-132v336zM547 492q32 2 68.5 -10t62.5 -39
q25 -26 35.5 -68.5t-2.5 -97.5q-17 -69 -66 -100.5t-102 -30.5q-47 0 -79 12.5t-57 38.5l64 110q13 -12 31.5 -19t33.5 -7q19 0 33 11.5t18 33.5q3 20 -5.5 37.5t-29.5 24.5q-15 3 -29.5 -3t-24.5 -22l-89 31l22 274h247v-129h-127zM885 407q0 -124 -33 -234t-100 -193
l-118 56q59 97 86 186t27 185q0 95 -29 192.5t-84 178.5l118 56q67 -84 100 -194t33 -233z" />
    <glyph glyph-name="uni2483" unicode="&#x2483;" horiz-adv-x="724" 
d="M224 172v348l-60 -43v61l70 48h49v-414h-59zM508 313q0 13 -2.5 27t-6.5 28q-6 12 -16.5 19t-26.5 7q-9 0 -16.5 -2.5t-11.5 -5.5q-6 -5 -10 -10.5t-6 -11.5q-3 -8 -5 -15t-2 -14q-2 -8 -2 -15.5v-14.5v-17t2 -15q0 -9 2 -17t5 -14q3 -8 7 -13.5t10 -8.5q5 -5 12.5 -7
t17.5 -2q15 0 25 7.5t15 22.5q4 14 6.5 32t2.5 40zM469 442q9 0 19 -1.5t19 -4.5q8 -4 15.5 -10t15.5 -13q6 -9 11 -20t10 -24q3 -14 5.5 -31t2.5 -36q0 -15 -1.5 -28t-4.5 -25q-3 -14 -8.5 -25t-11.5 -20q-7 -11 -15.5 -18.5t-18.5 -12.5q-11 -6 -23.5 -9t-27.5 -3
q-17 0 -30.5 3t-23.5 9q-11 5 -19 12.5t-14 17.5q-6 9 -10 20t-6 24q-3 12 -4.5 24.5t-1.5 26.5l-4 78l4 81q0 12 1.5 25t4.5 26q2 12 6 22.5t10 20.5q6 9 14 17t19 14q10 5 23.5 8t30.5 3q23 0 42.5 -7t34.5 -20q15 -15 21.5 -34.5t6.5 -43.5h-60q0 12 -3 22.5t-9 19.5
t-14.5 13.5t-18.5 4.5q-15 0 -25.5 -7.5t-15.5 -21.5q-6 -15 -9 -42t-3 -66q5 7 12 13t16 11q8 3 17.5 5t20.5 2zM704 383q0 -29 -3 -54t-7 -47q-6 -24 -12.5 -44.5t-13.5 -38.5q-9 -18 -17.5 -34.5t-17.5 -29.5q-10 -15 -19 -26.5t-18 -20.5h-53q25 35 43 71t29 73
q9 36 14 73.5t5 77.5q0 37 -5 75t-14 77q-11 37 -29 73t-43 70h53q9 -10 18 -22t19 -25q9 -15 17.5 -31t17.5 -34q7 -18 13.5 -39t12.5 -43q4 -24 7 -49t3 -52zM181 88h-55q-9 9 -17.5 20.5t-17.5 26.5q-10 13 -19 29.5t-16 34.5q-8 18 -14.5 38.5t-10.5 44.5q-6 22 -8.5 47
t-2.5 54q0 27 2.5 52t8.5 49q4 22 10.5 43t14.5 39q7 18 16 34t19 31q9 13 17.5 25t17.5 22h55q-27 -34 -45 -70t-27 -73q-10 -39 -14.5 -77t-4.5 -75q0 -40 5 -77.5t16 -73.5q9 -37 26.5 -73t43.5 -71z" />
    <glyph glyph-name="uni2484" unicode="&#x2484;" horiz-adv-x="724" 
d="M224 172v348l-60 -43v61l70 48h49v-414h-59zM547 590v-52l-109 -366h-67l113 362h-155v56h218zM704 383q0 -29 -3 -54t-7 -47q-6 -24 -12.5 -44.5t-13.5 -38.5q-9 -18 -17.5 -34.5t-17.5 -29.5q-10 -15 -19 -26.5t-18 -20.5h-53q25 35 43 71t29 73q9 36 14 73.5t5 77.5
q0 37 -5 75t-14 77q-11 37 -29 73t-43 70h53q9 -10 18 -22t19 -25q9 -15 17.5 -31t17.5 -34q7 -18 13.5 -39t12.5 -43q4 -24 7 -49t3 -52zM181 88h-55q-9 9 -17.5 20.5t-17.5 26.5q-10 13 -19 29.5t-16 34.5q-8 18 -14.5 38.5t-10.5 44.5q-6 22 -8.5 47t-2.5 54q0 27 2.5 52
t8.5 49q4 22 10.5 43t14.5 39q7 18 16 34t19 31q9 13 17.5 25t17.5 22h55q-27 -34 -45 -70t-27 -73q-10 -39 -14.5 -77t-4.5 -75q0 -40 5 -77.5t16 -73.5q9 -37 26.5 -73t43.5 -71z" />
    <glyph glyph-name="uni2485" unicode="&#x2485;" horiz-adv-x="724" 
d="M224 172v348l-60 -43v61l70 48h49v-414h-59zM452 366q-10 0 -17.5 -2.5t-11.5 -5.5q-6 -5 -10 -9.5t-7 -10.5t-4.5 -13t-1.5 -13q-1 -8 -1 -14.5v-12.5q0 -14 3 -26.5t9 -23.5q6 -12 16 -18t25 -6q14 0 24.5 6t16.5 18q5 11 8 23.5t3 26.5q0 3 -0.5 6t-0.5 6v7.5v7.5
q-1 6 -2.5 13t-4.5 13t-7 10.5t-8 9.5q-6 3 -13 5.5t-16 2.5zM487 390q21 -3 36.5 -12.5t24.5 -24.5q7 -17 11.5 -33.5t4.5 -34.5q0 -30 -7.5 -53t-20.5 -38q-15 -17 -36 -25t-48 -8q-29 0 -50 8t-34 25q-15 15 -21.5 38t-6.5 53q0 18 3 34.5t10 32.5q6 15 19 24t34 14
q-17 4 -28 13.5t-17 23.5q-8 12 -11 27.5t-3 33.5q0 24 6.5 43.5t21.5 34.5q13 13 32 20t45 7q24 0 43.5 -7t34.5 -20q13 -15 20.5 -34.5t7.5 -43.5q0 -18 -4.5 -33.5t-12.5 -28.5q-9 -15 -22.5 -24t-31.5 -12zM452 548q-12 0 -21 -4.5t-15 -13.5q-7 -9 -10 -19.5t-3 -22.5
v-11.5t2 -11.5q0 -6 2.5 -12t5.5 -11q2 -6 5.5 -10t9.5 -7q4 -4 10 -5.5t14 -1.5q7 0 13 1.5t12 5.5q4 3 7.5 7t6.5 10q2 5 4 11l4 12q0 3 0.5 5.5t0.5 5.5t0.5 6t0.5 6q0 12 -3 22.5t-9 19.5q-7 9 -16 13.5t-21 4.5zM704 383q0 -29 -3 -54t-7 -47q-6 -24 -12.5 -44.5
t-13.5 -38.5q-9 -18 -17.5 -34.5t-17.5 -29.5q-10 -15 -19 -26.5t-18 -20.5h-53q25 35 43 71t29 73q9 36 14 73.5t5 77.5q0 37 -5 75t-14 77q-11 37 -29 73t-43 70h53q9 -10 18 -22t19 -25q9 -15 17.5 -31t17.5 -34q7 -18 13.5 -39t12.5 -43q4 -24 7 -49t3 -52zM181 88h-55
q-9 9 -17.5 20.5t-17.5 26.5q-10 13 -19 29.5t-16 34.5q-8 18 -14.5 38.5t-10.5 44.5q-6 22 -8.5 47t-2.5 54q0 27 2.5 52t8.5 49q4 22 10.5 43t14.5 39q7 18 16 34t19 31q9 13 17.5 25t17.5 22h55q-27 -34 -45 -70t-27 -73q-10 -39 -14.5 -77t-4.5 -75q0 -40 5 -77.5
t16 -73.5q9 -37 26.5 -73t43.5 -71z" />
    <glyph glyph-name="uni2486" unicode="&#x2486;" horiz-adv-x="724" 
d="M224 172v348l-60 -43v61l70 48h49v-414h-59zM452 383q16 0 27 6t16 20q4 12 6.5 26.5t2.5 31.5q0 6 -1 13t-1 15q-2 6 -4 13t-4 13q-4 5 -8 9.5t-8 9.5q-6 3 -12.5 5.5t-13.5 2.5q-9 0 -16.5 -2.5t-11.5 -5.5q-6 -5 -9.5 -9.5t-6.5 -9.5q-3 -6 -5 -13t-2 -13
q-2 -8 -2 -15v-13q0 -17 2 -31.5t7 -26.5q4 -14 15 -20t29 -6zM438 333q-8 0 -15.5 1t-15.5 4q-9 1 -17 5.5t-15 12.5q-8 6 -14.5 16t-10.5 24q-6 12 -8 29.5t-2 38.5q0 17 2 32t8 28q4 12 10 21.5t14 18.5q7 7 16.5 12.5t20.5 9.5q9 3 19.5 5t21.5 2q16 0 29.5 -3t24.5 -8
q9 -6 17.5 -14t14.5 -17q6 -10 10.5 -20.5t7.5 -22.5l4 -26t4 -25v-159q-2 -14 -4 -26.5t-4 -24.5q-3 -13 -7.5 -24t-10.5 -20q-6 -10 -14.5 -17.5t-17.5 -12.5q-11 -6 -24.5 -9t-29.5 -3q-24 0 -43.5 7.5t-32.5 22.5q-15 15 -21 35.5t-4 47.5h55q0 -12 2.5 -23t8.5 -20
q5 -11 14 -15.5t21 -4.5q18 0 28.5 9.5t15.5 29.5q3 18 5.5 47.5t2.5 68.5q-6 -10 -12.5 -16.5t-14.5 -9.5q-9 -4 -19 -5.5t-20 -1.5zM704 383q0 -29 -3 -54t-7 -47q-6 -24 -12.5 -44.5t-13.5 -38.5q-9 -18 -17.5 -34.5t-17.5 -29.5q-10 -15 -19 -26.5t-18 -20.5h-53
q25 35 43 71t29 73q9 36 14 73.5t5 77.5q0 37 -5 75t-14 77q-11 37 -29 73t-43 70h53q9 -10 18 -22t19 -25q9 -15 17.5 -31t17.5 -34q7 -18 13.5 -39t12.5 -43q4 -24 7 -49t3 -52zM181 88h-55q-9 9 -17.5 20.5t-17.5 26.5q-10 13 -19 29.5t-16 34.5q-8 18 -14.5 38.5
t-10.5 44.5q-6 22 -8.5 47t-2.5 54q0 27 2.5 52t8.5 49q4 22 10.5 43t14.5 39q7 18 16 34t19 31q9 13 17.5 25t17.5 22h55q-27 -34 -45 -70t-27 -73q-10 -39 -14.5 -77t-4.5 -75q0 -40 5 -77.5t16 -73.5q9 -37 26.5 -73t43.5 -71z" />
    <glyph glyph-name="uni2487" unicode="&#x2487;" horiz-adv-x="724" 
d="M593 460v-147q-2 -13 -3.5 -25t-3.5 -22q-3 -12 -7 -22t-9 -19q-6 -9 -13.5 -16t-16.5 -11q-10 -6 -22 -8.5t-27 -2.5q-17 0 -30 2.5t-22 8.5q-11 4 -18.5 11t-13.5 16t-10 19t-5 22q-3 10 -4.5 22t-1.5 25l-4 73l4 74q0 12 1 24t4 24q1 11 4.5 21.5t9.5 19.5t14 16.5
t19 13.5q9 5 22.5 8t30.5 3q15 0 27 -3t22 -8q9 -6 16.5 -13.5t13.5 -16.5q5 -9 9 -19.5t7 -21.5q2 -12 3.5 -24t3.5 -24zM445 281q2 -11 5.5 -19t9.5 -14q4 -7 11.5 -10t19.5 -3q7 0 13.5 3t12.5 10q4 6 8 14t7 19l4 46v49q0 39 -1.5 69t-4.5 51t-13 31.5t-26 10.5
q-20 0 -30.5 -10.5t-13.5 -31.5t-4.5 -51t-1.5 -69v-49zM266 404q7 12 12.5 23.5t9.5 21.5q3 9 4.5 20.5t1.5 25.5q0 10 -3 18.5t-7 15.5q-6 6 -14 9t-18 3q-14 0 -22.5 -5t-11.5 -14q-5 -10 -6.5 -21.5t-1.5 -23.5h-57q-3 24 2 44.5t19 37.5q12 15 31 23t43 8q25 0 45 -6.5
t34 -18.5q12 -13 19 -32.5t7 -44.5q0 -18 -2.5 -32.5t-6.5 -26.5l-12.5 -25t-13.5 -25l-102 -129h144v-53h-210v49zM704 383q0 -29 -3 -54t-7 -47q-6 -24 -12.5 -44.5t-13.5 -38.5q-9 -18 -17.5 -34.5t-17.5 -29.5q-10 -15 -19 -26.5t-18 -20.5h-53q25 35 43 71t29 73
q9 36 14 73.5t5 77.5q0 37 -5 75t-14 77q-11 37 -29 73t-43 70h53q9 -10 18 -22t19 -25q9 -15 17.5 -31t17.5 -34q7 -18 13.5 -39t12.5 -43q4 -24 7 -49t3 -52zM181 88h-55q-9 9 -17.5 20.5t-17.5 26.5q-10 13 -19 29.5t-16 34.5q-8 18 -14.5 38.5t-10.5 44.5q-6 22 -8.5 47
t-2.5 54q0 27 2.5 52t8.5 49q4 22 10.5 43t14.5 39q7 18 16 34t19 31q9 13 17.5 25t17.5 22h55q-27 -34 -45 -70t-27 -73q-10 -39 -14.5 -77t-4.5 -75q0 -40 5 -77.5t16 -73.5q9 -37 26.5 -73t43.5 -71z" />
    <glyph glyph-name="uni249C" unicode="&#x249c;" 
d="M497 189v31q-13 -18 -36 -26.5t-52 -8.5q-80 0 -133 58t-50 163q2 52 17.5 93.5t40.5 69.5t57.5 42.5t70.5 13.5q30 -2 50 -11t35 -27v30h148v-428h-148zM432 318q24 0 39.5 16.5t21.5 44.5v2.5v5.5t0.5 5.5t0.5 4.5q0 43 -18 70t-43 27q-21 1 -41 -22t-20 -65
t17.5 -65.5t42.5 -23.5zM15 407q0 123 32.5 233t100.5 194l118 -56q-56 -81 -84.5 -178.5t-28.5 -192.5q0 -96 26.5 -185t86.5 -186l-118 -56q-68 83 -100.5 193t-32.5 234zM885 407q0 -124 -33 -234t-100 -193l-118 56q59 97 86 186t27 185q0 95 -29 192.5t-84 178.5
l118 56q67 -84 100 -194t33 -233z" />
    <glyph glyph-name="uni249D" unicode="&#x249d;" 
d="M497 122q-30 0 -53.5 10t-37.5 25v-30h-148v570h148v-163q18 11 37 18.5t54 9.5q40 1 72.5 -14.5t56.5 -45.5q23 -29 36.5 -71t14.5 -91q1 -105 -50.5 -162t-129.5 -56zM465 253q26 -3 48 19.5t22 70.5q0 42 -21 64.5t-42 22.5q-27 0 -44.5 -27.5t-17.5 -69.5
q0 -30 16 -54t39 -26zM15 407q0 123 32.5 233t100.5 194l118 -56q-56 -81 -84.5 -178.5t-28.5 -192.5q0 -96 26.5 -185t86.5 -186l-118 -56q-68 83 -100.5 193t-32.5 234zM885 407q0 -124 -33 -234t-100 -193l-118 56q59 97 86 186t27 185q0 95 -29 192.5t-84 178.5l118 56
q67 -84 100 -194t33 -233z" />
    <glyph glyph-name="uni249E" unicode="&#x249e;" 
d="M465 493q-27 -1 -50.5 -24t-23.5 -62t22.5 -62t51.5 -23q25 0 45 8.5t49 32.5l68 -118q-38 -36 -75.5 -51.5t-85.5 -15.5q-48 -1 -89.5 14.5t-71.5 44.5q-31 30 -48 72.5t-17 97.5q0 51 16.5 93.5t46.5 72.5t71.5 47t91.5 17q48 0 85.5 -15.5t75.5 -51.5l-68 -118
q-29 24 -49 32.5t-45 8.5zM15 407q0 123 32.5 233t100.5 194l118 -56q-56 -81 -84.5 -178.5t-28.5 -192.5q0 -96 26.5 -185t86.5 -186l-118 -56q-68 83 -100.5 193t-32.5 234zM885 407q0 -124 -33 -234t-100 -193l-118 56q59 97 86 186t27 185q0 95 -29 192.5t-84 178.5
l118 56q67 -84 100 -194t33 -233z" />
    <glyph glyph-name="uni249F" unicode="&#x249f;" 
d="M402 122q-33 -1 -66 13t-60 42q-26 28 -42 69t-15 94q0 49 15 91t41 71q25 30 59.5 45.5t75.5 14.5q24 -2 45 -10t37 -23v164h148v-566h-148v30q-19 -18 -39.5 -26.5t-50.5 -8.5zM431 253q26 2 41.5 26t15.5 54q0 50 -18.5 73.5t-45.5 23.5q-21 0 -39.5 -22.5
t-18.5 -64.5q0 -48 19.5 -70t45.5 -20zM15 407q0 123 32.5 233t100.5 194l118 -56q-56 -81 -84.5 -178.5t-28.5 -192.5q0 -96 26.5 -185t86.5 -186l-118 -56q-68 83 -100.5 193t-32.5 234zM885 407q0 -124 -33 -234t-100 -193l-118 56q59 97 86 186t27 185q0 95 -29 192.5
t-84 178.5l118 56q67 -84 100 -194t33 -233z" />
    <glyph glyph-name="uni24A0" unicode="&#x24a0;" 
d="M247 397q0 105 54 171t147 67q47 -1 83.5 -18.5t60.5 -48.5q25 -30 37.5 -72t12.5 -91l-3 -53h-241q0 -12 18 -26t42 -15q33 -3 57.5 2.5t51.5 23.5l55 -102q-41 -33 -78 -43.5t-91 -10.5q-38 0 -75 13t-66 40q-30 27 -47.5 67.5t-17.5 95.5zM505 463q-3 21 -18 32.5
t-33 11.5q-21 0 -35 -13t-14 -31h100zM15 407q0 123 32.5 233t100.5 194l118 -56q-56 -81 -84.5 -178.5t-28.5 -192.5q0 -96 26.5 -185t86.5 -186l-118 -56q-68 83 -100.5 193t-32.5 234zM885 407q0 -124 -33 -234t-100 -193l-118 56q59 97 86 186t27 185q0 95 -29 192.5
t-84 178.5l118 56q67 -84 100 -194t33 -233z" />
    <glyph glyph-name="uni24A1" unicode="&#x24a1;" 
d="M309 515h57v73q0 60 25 89t80 29h94v-127h-35q-11 0 -15 -6t-4 -12v-46h58v-134h-58v-273h-145v273h-57v134zM15 407q0 123 32.5 233t100.5 194l118 -56q-56 -81 -84.5 -178.5t-28.5 -192.5q0 -96 26.5 -185t86.5 -186l-118 -56q-68 83 -100.5 193t-32.5 234zM885 407
q0 -124 -33 -234t-100 -193l-118 56q59 97 86 186t27 185q0 95 -29 192.5t-84 178.5l118 56q67 -84 100 -194t33 -233z" />
    <glyph glyph-name="uni24A2" unicode="&#x24a2;" 
d="M444 400q28 0 43 17.5t15 47.5q0 41 -17.5 59.5t-41.5 21.5q-21 1 -41 -16t-21 -59q-2 -39 17 -55.5t46 -15.5zM654 348q0 -56 -15.5 -103.5t-60.5 -83.5q-34 -27 -76.5 -35t-87.5 -5q-33 1 -77 10.5t-81 26.5l49 122q43 -21 80.5 -29t70.5 2q18 4 32 19.5t16 36.5
q-23 -19 -46.5 -23.5t-51.5 -3.5q-36 0 -67.5 11t-54.5 33t-35 56.5t-10 83.5q4 107 59.5 158t130.5 47q27 -2 46.5 -12.5t28.5 -21.5v26h150v-315zM15 407q0 123 32.5 233t100.5 194l118 -56q-56 -81 -84.5 -178.5t-28.5 -192.5q0 -96 26.5 -185t86.5 -186l-118 -56
q-68 83 -100.5 193t-32.5 234zM885 407q0 -124 -33 -234t-100 -193l-118 56q59 97 86 186t27 185q0 95 -29 192.5t-84 178.5l118 56q67 -84 100 -194t33 -233z" />
    <glyph glyph-name="uni24A3" unicode="&#x24a3;" 
d="M265 119v577h150v-158q-3 -3 1.5 -3t13.5 2t21.5 4.5t25.5 4.5h9q75 0 115 -50.5t40 -119.5v-257h-150v204q0 54 -9 68t-28 13q-14 -2 -23.5 -6.5t-15.5 -11.5v-267h-150zM15 407q0 123 32.5 233t100.5 194l118 -56q-56 -81 -84.5 -178.5t-28.5 -192.5q0 -96 26.5 -185
t86.5 -186l-118 -56q-68 83 -100.5 193t-32.5 234zM885 407q0 -124 -33 -234t-100 -193l-118 56q59 97 86 186t27 185q0 95 -29 192.5t-84 178.5l118 56q67 -84 100 -194t33 -233z" />
    <glyph glyph-name="uni24A4" unicode="&#x24a4;" 
d="M368 511h161v-385h-161v385zM529 558h-161v130h161v-130zM15 407q0 123 32.5 233t100.5 194l118 -56q-56 -81 -84.5 -178.5t-28.5 -192.5q0 -96 26.5 -185t86.5 -186l-118 -56q-68 83 -100.5 193t-32.5 234zM885 407q0 -124 -33 -234t-100 -193l-118 56q59 97 86 186
t27 185q0 95 -29 192.5t-84 178.5l118 56q67 -84 100 -194t33 -233z" />
    <glyph glyph-name="uni24A5" unicode="&#x24a5;" 
d="M555 570h-161v130h161v-130zM555 228q0 -57 -18.5 -93.5t-57.5 -53.5q-31 -14 -75.5 -12t-81.5 14l6 128q26 -9 37.5 -11t14.5 0q9 3 11.5 12.5t2.5 32.5v278h161v-295zM15 407q0 123 32.5 233t100.5 194l118 -56q-56 -81 -84.5 -178.5t-28.5 -192.5q0 -96 26.5 -185
t86.5 -186l-118 -56q-68 83 -100.5 193t-32.5 234zM885 407q0 -124 -33 -234t-100 -193l-118 56q59 97 86 186t27 185q0 95 -29 192.5t-84 178.5l118 56q67 -84 100 -194t33 -233z" />
    <glyph glyph-name="uni24A6" unicode="&#x24a6;" 
d="M405 262v-136h-149v562h149v-252l85 117h179l-147 -190l150 -237h-174l-81 147zM15 407q0 123 32.5 233t100.5 194l118 -56q-56 -81 -84.5 -178.5t-28.5 -192.5q0 -96 26.5 -185t86.5 -186l-118 -56q-68 83 -100.5 193t-32.5 234zM885 407q0 -124 -33 -234t-100 -193
l-118 56q59 97 86 186t27 185q0 95 -29 192.5t-84 178.5l118 56q67 -84 100 -194t33 -233z" />
    <glyph glyph-name="uni24A7" unicode="&#x24a7;" 
d="M366 688h166v-563h-166v563zM15 407q0 123 32.5 233t100.5 194l118 -56q-56 -81 -84.5 -178.5t-28.5 -192.5q0 -96 26.5 -185t86.5 -186l-118 -56q-68 83 -100.5 193t-32.5 234zM885 407q0 -124 -33 -234t-100 -193l-118 56q59 97 86 186t27 185q0 95 -29 192.5
t-84 178.5l118 56q67 -84 100 -194t33 -233z" />
    <glyph glyph-name="uni24A8" unicode="&#x24a8;" 
d="M195 178v449h140v-25q9 7 16 13t14 10q8 4 17 6.5t23 4.5h13q30 0 47 -14.5t27 -37.5q22 23 42 37.5t44 14.5h13q57 0 87 -44.5t30 -117.5v-288q19 55 29 109.5t10 111.5q0 95 -29 192.5t-84 178.5l118 56q67 -84 100 -194t33 -233q0 -124 -33 -234t-100 -193l-118 56
q22 36 39.5 71.5t31.5 70.5h-135v239q0 49 -5.5 62t-16.5 13q-8 0 -14.5 -5t-10.5 -12v-297h-136v230q0 54 -5.5 69t-18.5 15q-8 0 -14.5 -5t-13.5 -13v-296h-140zM15 407q0 123 32.5 233t100.5 194l118 -56q-56 -81 -84.5 -178.5t-28.5 -192.5q0 -60 10 -116t32 -113
q13 -35 30.5 -70.5t40.5 -71.5l-118 -56q-68 83 -100.5 193t-32.5 234z" />
    <glyph glyph-name="uni24A9" unicode="&#x24a9;" 
d="M255 178v449h150v-30q13 18 41.5 27t53.5 11h13q75 0 107.5 -48t32.5 -123v-286h-147v228q0 55 -15.5 71t-34.5 15q-17 -3 -27.5 -10t-23.5 -21v-283h-150zM15 407q0 123 32.5 233t100.5 194l118 -56q-56 -81 -84.5 -178.5t-28.5 -192.5q0 -96 26.5 -185t86.5 -186
l-118 -56q-68 83 -100.5 193t-32.5 234zM885 407q0 -124 -33 -234t-100 -193l-118 56q59 97 86 186t27 185q0 95 -29 192.5t-84 178.5l118 56q67 -84 100 -194t33 -233z" />
    <glyph glyph-name="uni24AA" unicode="&#x24aa;" 
d="M448 309q33 0 53.5 24.5t20.5 73.5q0 51 -21.5 74.5t-52.5 23.5q-32 0 -53 -23.5t-21 -74.5q0 -49 20.5 -73.5t53.5 -24.5zM448 174q-105 0 -161.5 60t-56.5 173q0 105 57 169t161 64q103 0 160.5 -64t57.5 -169q0 -113 -56.5 -173t-161.5 -60zM15 407q0 123 32.5 233
t100.5 194l118 -56q-56 -81 -84.5 -178.5t-28.5 -192.5q0 -96 26.5 -185t86.5 -186l-118 -56q-68 83 -100.5 193t-32.5 234zM885 407q0 -124 -33 -234t-100 -193l-118 56q59 97 86 186t27 185q0 95 -29 192.5t-84 178.5l118 56q67 -84 100 -194t33 -233z" />
    <glyph glyph-name="uni24AB" unicode="&#x24ab;" 
d="M489 209q-30 0 -48.5 6.5t-29.5 18.5v-125h-148v534h148v-24q15 14 46 23.5t65 6.5q30 -3 58 -19t51 -45q22 -29 36 -69.5t15 -91.5q0 -52 -15 -92t-41 -67q-26 -28 -61.5 -42t-75.5 -14zM473 342q25 -3 44.5 18.5t19.5 67.5q0 42 -19 65t-41 23q-27 0 -44.5 -28.5
t-17.5 -70.5q0 -27 16.5 -50.5t41.5 -24.5zM15 407q0 123 32.5 233t100.5 194l118 -56q-56 -81 -84.5 -178.5t-28.5 -192.5q0 -96 26.5 -185t86.5 -186l-118 -56q-68 83 -100.5 193t-32.5 234zM885 407q0 -124 -33 -234t-100 -193l-118 56q59 97 86 186t27 185
q0 95 -29 192.5t-84 178.5l118 56q67 -84 100 -194t33 -233z" />
    <glyph glyph-name="uni24AC" unicode="&#x24ac;" 
d="M407 209q-80 0 -132.5 56t-50.5 159q0 51 14 92.5t39 71.5q25 29 58.5 45t74.5 16q33 -2 51.5 -8t35.5 -18v20h148v-534h-148v127q-16 -17 -38 -22t-52 -5zM434 342q24 1 41.5 24.5t17.5 50.5q0 42 -18.5 70.5t-45.5 28.5q-22 0 -40 -23t-18 -65q0 -46 18.5 -67t44.5 -19
zM15 407q0 123 32.5 233t100.5 194l118 -56q-56 -81 -84.5 -178.5t-28.5 -192.5q0 -96 26.5 -185t86.5 -186l-118 -56q-68 83 -100.5 193t-32.5 234zM885 407q0 -124 -33 -234t-100 -193l-118 56q59 97 86 186t27 185q0 95 -29 192.5t-84 178.5l118 56q67 -84 100 -194
t33 -233z" />
    <glyph glyph-name="uni24AD" unicode="&#x24ad;" 
d="M631 625v-171h-17q-33 0 -65 -9.5t-59 -30.5v-243h-169v449h169v-43q29 22 56.5 33t65.5 15h19zM15 407q0 123 32.5 233t100.5 194l118 -56q-56 -81 -84.5 -178.5t-28.5 -192.5q0 -96 26.5 -185t86.5 -186l-118 -56q-68 83 -100.5 193t-32.5 234zM885 407
q0 -124 -33 -234t-100 -193l-118 56q59 97 86 186t27 185q0 95 -29 192.5t-84 178.5l118 56q67 -84 100 -194t33 -233z" />
    <glyph glyph-name="uni24AE" unicode="&#x24ae;" 
d="M529 178q-31 -10 -65.5 -9.5t-73.5 7.5q-28 6 -60.5 21.5t-66.5 40.5l58 116q44 -26 76.5 -39.5t58.5 -16.5q12 -2 15 9.5t-8 18.5q-10 4 -23.5 9.5t-29.5 11.5q-16 7 -34 16t-35 23q-30 22 -48.5 64.5t-1.5 96.5q13 39 50 67.5t97 31.5q48 1 92 -15.5t92 -55.5l-78 -111
q-39 24 -60.5 32.5t-39.5 10.5q-11 1 -13 -10.5t6 -15.5q8 -6 21 -12.5l29 -14.5q16 -7 32.5 -15.5t32.5 -16.5q41 -20 60 -54t14 -79q-6 -45 -32 -72.5t-65 -38.5zM15 407q0 123 32.5 233t100.5 194l118 -56q-56 -81 -84.5 -178.5t-28.5 -192.5q0 -96 26.5 -185t86.5 -186
l-118 -56q-68 83 -100.5 193t-32.5 234zM885 407q0 -124 -33 -234t-100 -193l-118 56q59 97 86 186t27 185q0 95 -29 192.5t-84 178.5l118 56q67 -84 100 -194t33 -233z" />
    <glyph glyph-name="uni24AF" unicode="&#x24af;" 
d="M506 299q-2 -23 14.5 -30t46.5 7l21 -136q-35 -18 -83 -22t-83 9q-40 15 -57.5 52t-17.5 90v157h-72v140h72v137h159v-137h75v-140h-75v-127zM15 407q0 123 32.5 233t100.5 194l118 -56q-56 -81 -84.5 -178.5t-28.5 -192.5q0 -96 26.5 -185t86.5 -186l-118 -56
q-68 83 -100.5 193t-32.5 234zM885 407q0 -124 -33 -234t-100 -193l-118 56q59 97 86 186t27 185q0 95 -29 192.5t-84 178.5l118 56q67 -84 100 -194t33 -233z" />
    <glyph glyph-name="uni24B0" unicode="&#x24b0;" 
d="M641 616v-449h-149v24q-21 -17 -51.5 -25t-57.5 -8h-10q-50 0 -83 36t-33 102v320h149v-252q0 -42 9.5 -53t25.5 -10q12 0 28.5 7t22.5 17v291h149zM15 407q0 123 32.5 233t100.5 194l118 -56q-56 -81 -84.5 -178.5t-28.5 -192.5q0 -96 26.5 -185t86.5 -186l-118 -56
q-68 83 -100.5 193t-32.5 234zM885 407q0 -124 -33 -234t-100 -193l-118 56q59 97 86 186t27 185q0 95 -29 192.5t-84 178.5l118 56q67 -84 100 -194t33 -233z" />
    <glyph glyph-name="uni24B1" unicode="&#x24b1;" 
d="M226 601h159l64 -241l64 241h159l-152 -429h-144zM15 407q0 123 32.5 233t100.5 194l118 -56q-56 -81 -84.5 -178.5t-28.5 -192.5q0 -96 26.5 -185t86.5 -186l-118 -56q-68 83 -100.5 193t-32.5 234zM885 407q0 -124 -33 -234t-100 -193l-118 56q59 97 86 186t27 185
q0 95 -29 192.5t-84 178.5l118 56q67 -84 100 -194t33 -233z" />
    <glyph glyph-name="uni24B2" unicode="&#x24b2;" 
d="M449 355l-48 -179h-130l-89 418q-14 -47 -20.5 -94.5t-6.5 -92.5q0 -96 26.5 -185t86.5 -186l-120 -56q-68 83 -100.5 193t-32.5 234q0 123 32.5 233t100.5 194l120 -56q-27 -39 -47.5 -82.5t-35.5 -88.5h125l32 -262l47 262h119l48 -262l31 262h127q-15 45 -35 88.5
t-47 82.5l120 56q67 -84 100 -194t33 -233q0 -124 -33 -234t-100 -193l-120 56q59 97 86 186t27 185q0 47 -7.5 95t-20.5 95l-90 -421h-130z" />
    <glyph glyph-name="uni24B3" unicode="&#x24b3;" 
d="M225 621h170l55 -116l54 116h168l-131 -229l137 -220h-169l-59 110l-60 -110h-167l135 220zM15 407q0 123 32.5 233t100.5 194l118 -56q-56 -81 -84.5 -178.5t-28.5 -192.5q0 -96 26.5 -185t86.5 -186l-118 -56q-68 83 -100.5 193t-32.5 234zM885 407q0 -124 -33 -234
t-100 -193l-118 56q59 97 86 186t27 185q0 95 -29 192.5t-84 178.5l118 56q67 -84 100 -194t33 -233z" />
    <glyph glyph-name="uni24B4" unicode="&#x24b4;" 
d="M376 286l-150 336h167l60 -164l53 164h165l-204 -512l-144 43zM15 407q0 123 32.5 233t100.5 194l118 -56q-56 -81 -84.5 -178.5t-28.5 -192.5q0 -96 26.5 -185t86.5 -186l-118 -56q-68 83 -100.5 193t-32.5 234zM885 407q0 -124 -33 -234t-100 -193l-118 56
q59 97 86 186t27 185q0 95 -29 192.5t-84 178.5l118 56q67 -84 100 -194t33 -233z" />
    <glyph glyph-name="uni24B5" unicode="&#x24b5;" 
d="M463 171h-182v66l145 249h-140v134h327v-56l-140 -258h28q25 0 52 0.5t63 6.5v-133q-17 -4 -36.5 -6t-40.5 -3h-40.5h-35.5zM15 407q0 123 32.5 233t100.5 194l118 -56q-56 -81 -84.5 -178.5t-28.5 -192.5q0 -96 26.5 -185t86.5 -186l-118 -56q-68 83 -100.5 193
t-32.5 234zM885 407q0 -124 -33 -234t-100 -193l-118 56q59 97 86 186t27 185q0 95 -29 192.5t-84 178.5l118 56q67 -84 100 -194t33 -233z" />
    <glyph glyph-name="uni24B6" unicode="&#x24b6;" horiz-adv-x="724" 
d="M702 383q0 -36 -7 -68.5t-20 -62.5q-14 -32 -32 -59t-40 -49q-24 -24 -51 -42t-57 -30q-32 -14 -64.5 -20t-66.5 -6q-36 0 -69.5 6t-63.5 20q-32 12 -59.5 30t-50.5 42q-24 22 -42.5 49t-31.5 59q-14 30 -20.5 62.5t-6.5 68.5q0 35 6.5 68t20.5 65q13 30 31.5 57t42.5 51
q23 22 50.5 40.5t59.5 32.5q30 12 63.5 19t69.5 7q34 0 66.5 -7t64.5 -19q30 -14 57 -32.5t51 -40.5q22 -24 40 -51t32 -57q13 -32 20 -65t7 -68zM403 611l151 -418h-70l-32 103h-175l-32 -103h-67l147 418h78zM294 348h140l-70 210zM645 386q0 28 -6 55.5t-16 54.5
q-12 25 -27.5 47.5t-33.5 42.5q-20 19 -42.5 34.5t-47.5 27.5q-27 11 -54.5 17t-57.5 6t-57 -6t-52 -17q-27 -12 -49.5 -27.5t-41.5 -34.5q-20 -20 -35.5 -42.5t-25.5 -47.5q-12 -27 -17.5 -54.5t-5.5 -55.5q0 -30 5.5 -58t17.5 -53q10 -27 25.5 -50t35.5 -42
q19 -21 41.5 -36.5t49.5 -25.5q25 -12 52 -17.5t57 -5.5t57.5 5.5t54.5 17.5q25 10 47.5 25.5t42.5 36.5q18 19 33.5 42t27.5 50q10 25 16 53t6 58z" />
    <glyph glyph-name="uni24B7" unicode="&#x24b7;" horiz-adv-x="724" 
d="M702 383q0 -36 -7 -68.5t-20 -62.5q-14 -32 -32 -59t-40 -49q-24 -24 -51 -42t-57 -30q-32 -14 -64.5 -20t-66.5 -6q-36 0 -69.5 6t-63.5 20q-32 12 -59.5 30t-50.5 42q-24 22 -42.5 49t-31.5 59q-14 30 -20.5 62.5t-6.5 68.5q0 35 6.5 68t20.5 65q13 30 31.5 57t42.5 51
q23 22 50.5 40.5t59.5 32.5q30 12 63.5 19t69.5 7q34 0 66.5 -7t64.5 -19q30 -14 57 -32.5t51 -40.5q22 -24 40 -51t32 -57q13 -32 20 -65t7 -68zM388 228q24 0 40.5 5t26.5 17q9 10 13.5 21.5t4.5 24.5q0 21 -7.5 35.5t-22.5 22.5q-16 6 -35 10t-40 4h-60v-140h80zM392 422
q15 0 27.5 4.5t21.5 13.5t13.5 21t4.5 27q0 12 -4.5 21.5t-12.5 17.5q-9 6 -22.5 10t-31.5 4h-80v-119h84zM441 394q24 -3 42.5 -11t30.5 -20q10 -14 16 -30.5t6 -36.5q0 -21 -4 -37.5t-11 -28.5q-8 -12 -17 -21t-18 -14q-12 -7 -23 -11t-23 -5q-13 -2 -24 -2.5t-20 -0.5
h-151v417h151q24 0 41.5 -3t28.5 -8q10 -6 18.5 -14t16.5 -17q6 -10 10 -18.5t6 -15.5q0 -5 0.5 -8t0.5 -6t0.5 -5t0.5 -3q0 -21 -4.5 -37t-11.5 -28q-9 -14 -24.5 -23t-37.5 -13zM645 386q0 28 -6 55.5t-16 54.5q-12 25 -27.5 47.5t-33.5 42.5q-20 19 -42.5 34.5
t-47.5 27.5q-27 11 -54.5 17t-57.5 6t-57 -6t-52 -17q-27 -12 -49.5 -27.5t-41.5 -34.5q-20 -20 -35.5 -42.5t-25.5 -47.5q-12 -27 -17.5 -54.5t-5.5 -55.5q0 -30 5.5 -58t17.5 -53q10 -27 25.5 -50t35.5 -42q19 -21 41.5 -36.5t49.5 -25.5q25 -12 52 -17.5t57 -5.5
t57.5 5.5t54.5 17.5q25 10 47.5 25.5t42.5 36.5q18 19 33.5 42t27.5 50q10 25 16 53t6 58z" />
    <glyph glyph-name="uni24B8" unicode="&#x24b8;" horiz-adv-x="724" 
d="M702 383q0 -36 -7 -68.5t-20 -62.5q-14 -32 -32 -59t-40 -49q-24 -24 -51 -42t-57 -30q-32 -14 -64.5 -20t-66.5 -6q-36 0 -69.5 6t-63.5 20q-32 12 -59.5 30t-50.5 42q-24 22 -42.5 49t-31.5 59q-14 30 -20.5 62.5t-6.5 68.5q0 35 6.5 68t20.5 65q13 30 31.5 57t42.5 51
q23 22 50.5 40.5t59.5 32.5q30 12 63.5 19t69.5 7q34 0 66.5 -7t64.5 -19q30 -14 57 -32.5t51 -40.5q22 -24 40 -51t32 -57q13 -32 20 -65t7 -68zM421 530q-6 4 -13 7.5t-14 6.5q-5 0 -8.5 1t-6.5 1q-4 1 -6.5 1.5t-4.5 0.5q-18 0 -30.5 -3.5t-18.5 -9.5l-12.5 -12.5
t-5.5 -6.5q-5 -12 -7.5 -22t-3.5 -19q-2 -10 -2.5 -20.5t-0.5 -22.5v-105q0 -20 1.5 -35.5t4.5 -25.5q3 -12 7.5 -20.5t10.5 -12.5q5 -6 11.5 -10t14.5 -5q6 -2 14 -2.5t17 -0.5h7.5t10.5 2q5 0 11 3t12 8q6 3 11 10t10 16q3 8 5.5 20t2.5 28h63q0 -26 -4 -45.5t-11 -32.5
q-9 -14 -18 -24.5t-19 -16.5q-12 -7 -23 -11t-21 -4q-12 -2 -20 -2.5t-14 -0.5q-11 0 -23 0.5t-24 2.5q-14 0 -26 5t-22 14q-12 7 -21.5 19.5t-15.5 29.5q-8 16 -11.5 39.5t-3.5 55.5v115q0 44 10 74.5t31 47.5q20 16 47.5 24.5t62.5 8.5q33 0 57 -9t39 -26q14 -18 20.5 -42
t5.5 -53h-66q0 4 -0.5 8.5t-0.5 8.5v8.5v9.5q-2 7 -4 13t-5 11zM645 386q0 28 -6 55.5t-16 54.5q-12 25 -27.5 47.5t-33.5 42.5q-20 19 -42.5 34.5t-47.5 27.5q-27 11 -54.5 17t-57.5 6t-57 -6t-52 -17q-27 -12 -49.5 -27.5t-41.5 -34.5q-20 -20 -35.5 -42.5t-25.5 -47.5
q-12 -27 -17.5 -54.5t-5.5 -55.5q0 -30 5.5 -58t17.5 -53q10 -27 25.5 -50t35.5 -42q19 -21 41.5 -36.5t49.5 -25.5q25 -12 52 -17.5t57 -5.5t57.5 5.5t54.5 17.5q25 10 47.5 25.5t42.5 36.5q18 19 33.5 42t27.5 50q10 25 16 53t6 58z" />
    <glyph glyph-name="uni24B9" unicode="&#x24b9;" horiz-adv-x="724" 
d="M702 383q0 -36 -7 -68.5t-20 -62.5q-14 -32 -32 -59t-40 -49q-24 -24 -51 -42t-57 -30q-32 -14 -64.5 -20t-66.5 -6q-36 0 -69.5 6t-63.5 20q-32 12 -59.5 30t-50.5 42q-24 22 -42.5 49t-31.5 59q-14 30 -20.5 62.5t-6.5 68.5q0 35 6.5 68t20.5 65q13 30 31.5 57t42.5 51
q23 22 50.5 40.5t59.5 32.5q30 12 63.5 19t69.5 7q34 0 66.5 -7t64.5 -19q30 -14 57 -32.5t51 -40.5q22 -24 40 -51t32 -57q13 -32 20 -65t7 -68zM360 228q30 0 51.5 6t33.5 20q12 12 18 36.5t6 60.5v78q0 30 -5.5 52t-15.5 35q-12 12 -28.5 18.5t-37.5 6.5h-74v-313h52z
M388 593q21 0 39.5 -4t35.5 -10q15 -8 27.5 -20t21.5 -29q3 -7 5.5 -15.5t5.5 -17.5q0 -6 1 -11l2 -10q1 -6 2 -11t2 -9q0 -11 0.5 -20.5t1.5 -16.5v-14.5v-7.5q0 -33 -1.5 -59.5t-3.5 -45.5q-3 -21 -9 -36.5t-14 -27.5q-9 -14 -23 -23.5t-32 -15.5q-20 -7 -44 -10t-52 -3
h-108v417h143zM645 386q0 28 -6 55.5t-16 54.5q-12 25 -27.5 47.5t-33.5 42.5q-20 19 -42.5 34.5t-47.5 27.5q-27 11 -54.5 17t-57.5 6t-57 -6t-52 -17q-27 -12 -49.5 -27.5t-41.5 -34.5q-20 -20 -35.5 -42.5t-25.5 -47.5q-12 -27 -17.5 -54.5t-5.5 -55.5q0 -30 5.5 -58
t17.5 -53q10 -27 25.5 -50t35.5 -42q19 -21 41.5 -36.5t49.5 -25.5q25 -12 52 -17.5t57 -5.5t57.5 5.5t54.5 17.5q25 10 47.5 25.5t42.5 36.5q18 19 33.5 42t27.5 50q10 25 16 53t6 58z" />
    <glyph glyph-name="uni24BA" unicode="&#x24ba;" horiz-adv-x="724" 
d="M702 383q0 -36 -7 -68.5t-20 -62.5q-14 -32 -32 -59t-40 -49q-24 -24 -51 -42t-57 -30q-32 -14 -64.5 -20t-66.5 -6q-36 0 -69.5 6t-63.5 20q-32 12 -59.5 30t-50.5 42q-24 22 -42.5 49t-31.5 59q-14 30 -20.5 62.5t-6.5 68.5q0 35 6.5 68t20.5 65q13 30 31.5 57t42.5 51
q23 22 50.5 40.5t59.5 32.5q30 12 63.5 19t69.5 7q34 0 66.5 -7t64.5 -19q30 -14 57 -32.5t51 -40.5q22 -24 40 -51t32 -57q13 -32 20 -65t7 -68zM252 593h239v-55h-176v-120h165v-52h-165v-138h179v-56h-242v421zM645 386q0 28 -6 55.5t-16 54.5q-12 25 -27.5 47.5
t-33.5 42.5q-20 19 -42.5 34.5t-47.5 27.5q-27 11 -54.5 17t-57.5 6t-57 -6t-52 -17q-27 -12 -49.5 -27.5t-41.5 -34.5q-20 -20 -35.5 -42.5t-25.5 -47.5q-12 -27 -17.5 -54.5t-5.5 -55.5q0 -30 5.5 -58t17.5 -53q10 -27 25.5 -50t35.5 -42q19 -21 41.5 -36.5t49.5 -25.5
q25 -12 52 -17.5t57 -5.5t57.5 5.5t54.5 17.5q25 10 47.5 25.5t42.5 36.5q18 19 33.5 42t27.5 50q10 25 16 53t6 58z" />
    <glyph glyph-name="uni24BB" unicode="&#x24bb;" horiz-adv-x="724" 
d="M702 383q0 -36 -7 -68.5t-20 -62.5q-14 -32 -32 -59t-40 -49q-24 -24 -51 -42t-57 -30q-32 -14 -64.5 -20t-66.5 -6q-36 0 -69.5 6t-63.5 20q-32 12 -59.5 30t-50.5 42q-24 22 -42.5 49t-31.5 59q-14 30 -20.5 62.5t-6.5 68.5q0 35 6.5 68t20.5 65q13 30 31.5 57t42.5 51
q23 22 50.5 40.5t59.5 32.5q30 12 63.5 19t69.5 7q34 0 66.5 -7t64.5 -19q30 -14 57 -32.5t51 -40.5q22 -24 40 -51t32 -57q13 -32 20 -65t7 -68zM255 579h232v-52h-169v-123h159v-56h-159v-187h-63v418zM645 386q0 28 -6 55.5t-16 54.5q-12 25 -27.5 47.5t-33.5 42.5
q-20 19 -42.5 34.5t-47.5 27.5q-27 11 -54.5 17t-57.5 6t-57 -6t-52 -17q-27 -12 -49.5 -27.5t-41.5 -34.5q-20 -20 -35.5 -42.5t-25.5 -47.5q-12 -27 -17.5 -54.5t-5.5 -55.5q0 -30 5.5 -58t17.5 -53q10 -27 25.5 -50t35.5 -42q19 -21 41.5 -36.5t49.5 -25.5
q25 -12 52 -17.5t57 -5.5t57.5 5.5t54.5 17.5q25 10 47.5 25.5t42.5 36.5q18 19 33.5 42t27.5 50q10 25 16 53t6 58z" />
    <glyph glyph-name="uni24BC" unicode="&#x24bc;" horiz-adv-x="724" 
d="M702 383q0 -36 -7 -68.5t-20 -62.5q-14 -32 -32 -59t-40 -49q-24 -24 -51 -42t-57 -30q-32 -14 -64.5 -20t-66.5 -6q-36 0 -69.5 6t-63.5 20q-32 12 -59.5 30t-50.5 42q-24 22 -42.5 49t-31.5 59q-14 30 -20.5 62.5t-6.5 68.5q0 35 6.5 68t20.5 65q13 30 31.5 57t42.5 51
q23 22 50.5 40.5t59.5 32.5q30 12 63.5 19t69.5 7q34 0 66.5 -7t64.5 -19q30 -14 57 -32.5t51 -40.5q22 -24 40 -51t32 -57q13 -32 20 -65t7 -68zM360 551q-2 0 -4.5 -0.5t-4.5 -0.5q-3 0 -5.5 -0.5t-5.5 -0.5q-8 -2 -15 -4.5t-13 -5.5q-8 -5 -14.5 -11.5t-10.5 -15.5
q-6 -9 -8 -21t-2 -27v-133q0 -36 5 -58.5t17 -32.5q10 -12 25.5 -17t35.5 -5q14 0 26.5 1.5t23.5 4.5q9 3 16 5.5t12 5.5v116h-85v53h148v-204q-15 -9 -31 -15t-32 -10q-17 -6 -36.5 -8t-41.5 -2q-37 0 -64.5 9.5t-45.5 29.5q-19 19 -28 50.5t-9 76.5v133q0 30 9 55.5
t28 45.5q18 19 45.5 29t64.5 10q36 0 63.5 -7.5t46.5 -22.5q18 -16 26.5 -40t7.5 -57h-66q0 18 -4.5 32t-12.5 24q-9 9 -24.5 13.5t-36.5 4.5zM645 386q0 28 -6 55.5t-16 54.5q-12 25 -27.5 47.5t-33.5 42.5q-20 19 -42.5 34.5t-47.5 27.5q-27 11 -54.5 17t-57.5 6t-57 -6
t-52 -17q-27 -12 -49.5 -27.5t-41.5 -34.5q-20 -20 -35.5 -42.5t-25.5 -47.5q-12 -27 -17.5 -54.5t-5.5 -55.5q0 -30 5.5 -58t17.5 -53q10 -27 25.5 -50t35.5 -42q19 -21 41.5 -36.5t49.5 -25.5q25 -12 52 -17.5t57 -5.5t57.5 5.5t54.5 17.5q25 10 47.5 25.5t42.5 36.5
q18 19 33.5 42t27.5 50q10 25 16 53t6 58z" />
    <glyph glyph-name="uni24BD" unicode="&#x24bd;" horiz-adv-x="724" 
d="M702 383q0 -36 -7 -68.5t-20 -62.5q-14 -32 -32 -59t-40 -49q-24 -24 -51 -42t-57 -30q-32 -14 -64.5 -20t-66.5 -6q-36 0 -69.5 6t-63.5 20q-32 12 -59.5 30t-50.5 42q-24 22 -42.5 49t-31.5 59q-14 30 -20.5 62.5t-6.5 68.5q0 35 6.5 68t20.5 65q13 30 31.5 57t42.5 51
q23 22 50.5 40.5t59.5 32.5q30 12 63.5 19t69.5 7q34 0 66.5 -7t64.5 -19q30 -14 57 -32.5t51 -40.5q22 -24 40 -51t32 -57q13 -32 20 -65t7 -68zM645 386q0 28 -6 55.5t-16 54.5q-12 25 -27.5 47.5t-33.5 42.5q-20 19 -42.5 34.5t-47.5 27.5q-27 11 -54.5 17t-57.5 6
t-57 -6t-52 -17q-27 -12 -49.5 -27.5t-41.5 -34.5q-20 -20 -35.5 -42.5t-25.5 -47.5q-12 -27 -17.5 -54.5t-5.5 -55.5q0 -30 5.5 -58t17.5 -53q10 -27 25.5 -50t35.5 -42q19 -21 41.5 -36.5t49.5 -25.5q25 -12 52 -17.5t57 -5.5t57.5 5.5t54.5 17.5q25 10 47.5 25.5
t42.5 36.5q18 19 33.5 42t27.5 50q10 25 16 53t6 58zM227 593h63v-175h155v175h63v-417h-63v190h-155v-190h-63v417z" />
    <glyph glyph-name="uni24BE" unicode="&#x24be;" horiz-adv-x="724" 
d="M702 383q0 -36 -7 -68.5t-20 -62.5q-14 -32 -32 -59t-40 -49q-24 -24 -51 -42t-57 -30q-32 -14 -64.5 -20t-66.5 -6q-36 0 -69.5 6t-63.5 20q-32 12 -59.5 30t-50.5 42q-24 22 -42.5 49t-31.5 59q-14 30 -20.5 62.5t-6.5 68.5q0 35 6.5 68t20.5 65q13 30 31.5 57t42.5 51
q23 22 50.5 40.5t59.5 32.5q30 12 63.5 19t69.5 7q34 0 66.5 -7t64.5 -19q30 -14 57 -32.5t51 -40.5q22 -24 40 -51t32 -57q13 -32 20 -65t7 -68zM645 386q0 28 -6 55.5t-16 54.5q-12 25 -27.5 47.5t-33.5 42.5q-20 19 -42.5 34.5t-47.5 27.5q-27 11 -54.5 17t-57.5 6
t-57 -6t-52 -17q-27 -12 -49.5 -27.5t-41.5 -34.5q-20 -20 -35.5 -42.5t-25.5 -47.5q-12 -27 -17.5 -54.5t-5.5 -55.5q0 -30 5.5 -58t17.5 -53q10 -27 25.5 -50t35.5 -42q19 -21 41.5 -36.5t49.5 -25.5q25 -12 52 -17.5t57 -5.5t57.5 5.5t54.5 17.5q25 10 47.5 25.5
t42.5 36.5q18 19 33.5 42t27.5 50q10 25 16 53t6 58zM333 169v428h59v-428h-59z" />
    <glyph glyph-name="uni24BF" unicode="&#x24bf;" horiz-adv-x="724" 
d="M702 383q0 -36 -7 -68.5t-20 -62.5q-14 -32 -32 -59t-40 -49q-24 -24 -51 -42t-57 -30q-32 -14 -64.5 -20t-66.5 -6q-36 0 -69.5 6t-63.5 20q-32 12 -59.5 30t-50.5 42q-24 22 -42.5 49t-31.5 59q-14 30 -20.5 62.5t-6.5 68.5q0 35 6.5 68t20.5 65q13 30 31.5 57t42.5 51
q23 22 50.5 40.5t59.5 32.5q30 12 63.5 19t69.5 7q34 0 66.5 -7t64.5 -19q30 -14 57 -32.5t51 -40.5q22 -24 40 -51t32 -57q13 -32 20 -65t7 -68zM287 281q0 -12 2 -23t8 -20q4 -11 15 -15.5t28 -4.5q10 0 18.5 1.5t15.5 6.5q6 3 11 8t8 13q3 6 4.5 14t3.5 17q0 9 1 18t1 20
v277h63v-312q0 -3 -0.5 -6t-0.5 -7t-0.5 -8t-0.5 -8q-2 -10 -5.5 -19.5t-8.5 -18.5q-6 -11 -15.5 -19.5t-21.5 -14.5q-14 -8 -32 -11.5t-41 -3.5q-12 0 -24.5 2t-27.5 7q-16 4 -27.5 12.5t-18.5 20.5q-9 12 -14 24t-5 26q-2 12 -2.5 25t-0.5 27h67v-28zM645 386
q0 28 -6 55.5t-16 54.5q-12 25 -27.5 47.5t-33.5 42.5q-20 19 -42.5 34.5t-47.5 27.5q-27 11 -54.5 17t-57.5 6t-57 -6t-52 -17q-27 -12 -49.5 -27.5t-41.5 -34.5q-20 -20 -35.5 -42.5t-25.5 -47.5q-12 -27 -17.5 -54.5t-5.5 -55.5q0 -30 5.5 -58t17.5 -53q10 -27 25.5 -50
t35.5 -42q19 -21 41.5 -36.5t49.5 -25.5q25 -12 52 -17.5t57 -5.5t57.5 5.5t54.5 17.5q25 10 47.5 25.5t42.5 36.5q18 19 33.5 42t27.5 50q10 25 16 53t6 58z" />
    <glyph glyph-name="uni24C0" unicode="&#x24c0;" horiz-adv-x="724" 
d="M702 383q0 -36 -7 -68.5t-20 -62.5q-14 -32 -32 -59t-40 -49q-24 -24 -51 -42t-57 -30q-32 -14 -64.5 -20t-66.5 -6q-36 0 -69.5 6t-63.5 20q-32 12 -59.5 30t-50.5 42q-24 22 -42.5 49t-31.5 59q-14 30 -20.5 62.5t-6.5 68.5q0 35 6.5 68t20.5 65q13 30 31.5 57t42.5 51
q23 22 50.5 40.5t59.5 32.5q30 12 63.5 19t69.5 7q34 0 66.5 -7t64.5 -19q30 -14 57 -32.5t51 -40.5q22 -24 40 -51t32 -57q13 -32 20 -65t7 -68zM287 386v-214h-63v418h63v-179l158 179h70l-168 -186l179 -232h-81zM645 386q0 28 -6 55.5t-16 54.5q-12 25 -27.5 47.5
t-33.5 42.5q-20 19 -42.5 34.5t-47.5 27.5q-27 11 -54.5 17t-57.5 6t-57 -6t-52 -17q-27 -12 -49.5 -27.5t-41.5 -34.5q-20 -20 -35.5 -42.5t-25.5 -47.5q-12 -27 -17.5 -54.5t-5.5 -55.5q0 -30 5.5 -58t17.5 -53q10 -27 25.5 -50t35.5 -42q19 -21 41.5 -36.5t49.5 -25.5
q25 -12 52 -17.5t57 -5.5t57.5 5.5t54.5 17.5q25 10 47.5 25.5t42.5 36.5q18 19 33.5 42t27.5 50q10 25 16 53t6 58z" />
    <glyph glyph-name="uni24C1" unicode="&#x24c1;" horiz-adv-x="724" 
d="M702 383q0 -36 -7 -68.5t-20 -62.5q-14 -32 -32 -59t-40 -49q-24 -24 -51 -42t-57 -30q-32 -14 -64.5 -20t-66.5 -6q-36 0 -69.5 6t-63.5 20q-32 12 -59.5 30t-50.5 42q-24 22 -42.5 49t-31.5 59q-14 30 -20.5 62.5t-6.5 68.5q0 35 6.5 68t20.5 65q13 30 31.5 57t42.5 51
q23 22 50.5 40.5t59.5 32.5q30 12 63.5 19t69.5 7q34 0 66.5 -7t64.5 -19q30 -14 57 -32.5t51 -40.5q22 -24 40 -51t32 -57q13 -32 20 -65t7 -68zM270 604h59v-365h168v-52h-227v417zM645 386q0 28 -6 55.5t-16 54.5q-12 25 -27.5 47.5t-33.5 42.5q-20 19 -42.5 34.5
t-47.5 27.5q-27 11 -54.5 17t-57.5 6t-57 -6t-52 -17q-27 -12 -49.5 -27.5t-41.5 -34.5q-20 -20 -35.5 -42.5t-25.5 -47.5q-12 -27 -17.5 -54.5t-5.5 -55.5q0 -30 5.5 -58t17.5 -53q10 -27 25.5 -50t35.5 -42q19 -21 41.5 -36.5t49.5 -25.5q25 -12 52 -17.5t57 -5.5
t57.5 5.5t54.5 17.5q25 10 47.5 25.5t42.5 36.5q18 19 33.5 42t27.5 50q10 25 16 53t6 58z" />
    <glyph glyph-name="uni24C2" unicode="&#x24c2;" horiz-adv-x="724" 
d="M702 383q0 -36 -7 -68.5t-20 -62.5q-14 -32 -32 -59t-40 -49q-24 -24 -51 -42t-57 -30q-32 -14 -64.5 -20t-66.5 -6q-36 0 -69.5 6t-63.5 20q-32 12 -59.5 30t-50.5 42q-24 22 -42.5 49t-31.5 59q-14 30 -20.5 62.5t-6.5 68.5q0 35 6.5 68t20.5 65q13 30 31.5 57t42.5 51
q23 22 50.5 40.5t59.5 32.5q30 12 63.5 19t69.5 7q34 0 66.5 -7t64.5 -19q30 -14 57 -32.5t51 -40.5q22 -24 40 -51t32 -57q13 -32 20 -65t7 -68zM645 386q0 28 -6 55.5t-16 54.5q-12 25 -27.5 47.5t-33.5 42.5q-20 19 -42.5 34.5t-47.5 27.5q-27 11 -54.5 17t-57.5 6
t-57 -6t-52 -17q-27 -12 -49.5 -27.5t-41.5 -34.5q-20 -20 -35.5 -42.5t-25.5 -47.5q-12 -27 -17.5 -54.5t-5.5 -55.5q0 -30 5.5 -58t17.5 -53q10 -27 25.5 -50t35.5 -42q19 -21 41.5 -36.5t49.5 -25.5q25 -12 52 -17.5t57 -5.5t57.5 5.5t54.5 17.5q25 10 47.5 25.5
t42.5 36.5q18 19 33.5 42t27.5 50q10 25 16 53t6 58zM242 169h-61v428h102l77 -334l78 334h105v-428h-63v369l-92 -369h-59l-87 369v-369z" />
    <glyph glyph-name="uni24C3" unicode="&#x24c3;" horiz-adv-x="724" 
d="M702 383q0 -36 -7 -68.5t-20 -62.5q-14 -32 -32 -59t-40 -49q-24 -24 -51 -42t-57 -30q-32 -14 -64.5 -20t-66.5 -6q-36 0 -69.5 6t-63.5 20q-32 12 -59.5 30t-50.5 42q-24 22 -42.5 49t-31.5 59q-14 30 -20.5 62.5t-6.5 68.5q0 35 6.5 68t20.5 65q13 30 31.5 57t42.5 51
q23 22 50.5 40.5t59.5 32.5q30 12 63.5 19t69.5 7q34 0 66.5 -7t64.5 -19q30 -14 57 -32.5t51 -40.5q22 -24 40 -51t32 -57q13 -32 20 -65t7 -68zM645 386q0 28 -6 55.5t-16 54.5q-12 25 -27.5 47.5t-33.5 42.5q-20 19 -42.5 34.5t-47.5 27.5q-27 11 -54.5 17t-57.5 6
t-57 -6t-52 -17q-27 -12 -49.5 -27.5t-41.5 -34.5q-20 -20 -35.5 -42.5t-25.5 -47.5q-12 -27 -17.5 -54.5t-5.5 -55.5q0 -30 5.5 -58t17.5 -53q10 -27 25.5 -50t35.5 -42q19 -21 41.5 -36.5t49.5 -25.5q25 -12 52 -17.5t57 -5.5t57.5 5.5t54.5 17.5q25 10 47.5 25.5
t42.5 36.5q18 19 33.5 42t27.5 50q10 25 16 53t6 58zM466 590h56v-418h-84l-179 355v-355h-56v418h84l179 -351v351z" />
    <glyph glyph-name="uni24C4" unicode="&#x24c4;" horiz-adv-x="724" 
d="M702 383q0 -36 -7 -68.5t-20 -62.5q-14 -32 -32 -59t-40 -49q-24 -24 -51 -42t-57 -30q-32 -14 -64.5 -20t-66.5 -6q-36 0 -69.5 6t-63.5 20q-32 12 -59.5 30t-50.5 42q-24 22 -42.5 49t-31.5 59q-14 30 -20.5 62.5t-6.5 68.5q0 35 6.5 68t20.5 65q13 30 31.5 57t42.5 51
q23 22 50.5 40.5t59.5 32.5q30 12 63.5 19t69.5 7q34 0 66.5 -7t64.5 -19q30 -14 57 -32.5t51 -40.5q22 -24 40 -51t32 -57q13 -32 20 -65t7 -68zM220 457q0 31 9 56.5t28 45.5q18 18 45.5 28t65.5 10q36 0 63.5 -10t45.5 -28q17 -20 26 -45.5t9 -56.5v-134q0 -44 -9 -75
t-26 -49q-18 -20 -45.5 -29t-63.5 -9q-38 0 -65.5 9t-45.5 29q-19 18 -28 49t-9 75v134zM449 457q0 15 -3 27.5t-7 21.5q-6 8 -12.5 14t-12.5 11q-7 4 -13.5 6.5t-12.5 4.5q-4 0 -7 0.5t-6 0.5q-2 0 -4 0.5t-3 0.5q-3 0 -5.5 -0.5t-4.5 -0.5q-3 0 -5.5 -0.5t-5.5 -0.5
q-8 -2 -15 -4.5t-14 -6.5q-7 -5 -13 -11t-11 -14q-6 -9 -8.5 -21.5t-2.5 -27.5v-134q0 -35 5.5 -57.5t17.5 -32.5q10 -12 25.5 -17t36.5 -5q19 0 34 5t26 17q10 10 15.5 32.5t5.5 57.5v134zM645 386q0 28 -6 55.5t-16 54.5q-12 25 -27.5 47.5t-33.5 42.5q-20 19 -42.5 34.5
t-47.5 27.5q-27 11 -54.5 17t-57.5 6t-57 -6t-52 -17q-27 -12 -49.5 -27.5t-41.5 -34.5q-20 -20 -35.5 -42.5t-25.5 -47.5q-12 -27 -17.5 -54.5t-5.5 -55.5q0 -30 5.5 -58t17.5 -53q10 -27 25.5 -50t35.5 -42q19 -21 41.5 -36.5t49.5 -25.5q25 -12 52 -17.5t57 -5.5
t57.5 5.5t54.5 17.5q25 10 47.5 25.5t42.5 36.5q18 19 33.5 42t27.5 50q10 25 16 53t6 58z" />
    <glyph glyph-name="uni24C5" unicode="&#x24c5;" horiz-adv-x="724" 
d="M702 383q0 -36 -7 -68.5t-20 -62.5q-14 -32 -32 -59t-40 -49q-24 -24 -51 -42t-57 -30q-32 -14 -64.5 -20t-66.5 -6q-36 0 -69.5 6t-63.5 20q-32 12 -59.5 30t-50.5 42q-24 22 -42.5 49t-31.5 59q-14 30 -20.5 62.5t-6.5 68.5q0 35 6.5 68t20.5 65q13 30 31.5 57t42.5 51
q23 22 50.5 40.5t59.5 32.5q30 12 63.5 19t69.5 7q34 0 66.5 -7t64.5 -19q30 -14 57 -32.5t51 -40.5q22 -24 40 -51t32 -57q13 -32 20 -65t7 -68zM645 386q0 28 -6 55.5t-16 54.5q-12 25 -27.5 47.5t-33.5 42.5q-20 19 -42.5 34.5t-47.5 27.5q-27 11 -54.5 17t-57.5 6
t-57 -6t-52 -17q-27 -12 -49.5 -27.5t-41.5 -34.5q-20 -20 -35.5 -42.5t-25.5 -47.5q-12 -27 -17.5 -54.5t-5.5 -55.5q0 -30 5.5 -58t17.5 -53q10 -27 25.5 -50t35.5 -42q19 -21 41.5 -36.5t49.5 -25.5q25 -12 52 -17.5t57 -5.5t57.5 5.5t54.5 17.5q25 10 47.5 25.5
t42.5 36.5q18 19 33.5 42t27.5 50q10 25 16 53t6 58zM388 394h9.5t13.5 2q6 0 13 2t14 6q6 3 11 8.5t11 13.5q4 6 6.5 16t2.5 22q0 11 -2.5 20t-5.5 16q-5 6 -9.5 10.5l-8.5 8.5l-6 2t-6 1q-2 1 -4.5 2t-4.5 2h-5.5h-4.5t-3.5 0.5t-2.5 0.5h-77v-133h59zM266 579h137
q5 0 10.5 -0.5t11.5 -1.5q6 0 12 -1t12 -1q11 -3 21.5 -7.5t20.5 -10.5q9 -6 16.5 -15t13.5 -20q5 -12 8 -28t3 -34t-4 -33t-10 -26q-8 -12 -16 -21t-17 -15q-11 -8 -22 -12.5t-21 -6.5q-12 -3 -21.5 -4t-17.5 -1h-74v-180h-63v418z" />
    <glyph glyph-name="uni24C6" unicode="&#x24c6;" horiz-adv-x="724" 
d="M702 383q0 -36 -7 -68.5t-20 -62.5q-14 -32 -32 -59t-40 -49q-24 -24 -51 -42t-57 -30q-32 -14 -64.5 -20t-66.5 -6q-36 0 -69.5 6t-63.5 20q-32 12 -59.5 30t-50.5 42q-24 22 -42.5 49t-31.5 59q-14 30 -20.5 62.5t-6.5 68.5q0 35 6.5 68t20.5 65q13 30 31.5 57t42.5 51
q23 22 50.5 40.5t59.5 32.5q30 12 63.5 19t69.5 7q34 0 66.5 -7t64.5 -19q30 -14 57 -32.5t51 -40.5q22 -24 40 -51t32 -57q13 -32 20 -65t7 -68zM441 464q0 15 -3 27t-7 21q-6 9 -12 15.5t-12 11.5q-7 3 -13.5 5.5t-12.5 4.5q-4 0 -7.5 0.5t-5.5 0.5q-3 0 -5 0.5t-3 0.5
q-2 0 -4.5 -0.5t-4.5 -0.5q-3 0 -5.5 -0.5t-5.5 -0.5q-8 -2 -15 -4.5t-13 -5.5q-8 -5 -14.5 -11.5t-10.5 -15.5q-6 -9 -8 -21t-2 -27v-133q0 -27 4 -47t13 -32q7 -14 23.5 -20.5t42.5 -6.5q24 0 40.5 6.5t25.5 20.5q7 12 11 32t4 47v133zM473 218l31 7h28v-49h-172
q-12 0 -25 0.5t-25 2.5q-14 0 -26 4.5t-22 13.5q-11 6 -20 17.5t-15 28.5q-8 15 -11 37t-3 51v133q0 30 9 55t28 45q18 18 45.5 27.5t64.5 9.5q36 0 63.5 -9.5t47.5 -27.5q18 -20 27.5 -45t9.5 -55v-133q0 -3 -0.5 -6.5t-0.5 -6.5q0 -4 -0.5 -7.5t-0.5 -6.5q-1 -5 -2 -9.5
t-2 -8.5t-2 -8.5t-2 -8.5q-2 -5 -3.5 -9t-2.5 -8t-2.5 -7.5t-2.5 -6.5q-4 -8 -7.5 -12.5t-6.5 -7.5zM645 386q0 28 -6 55.5t-16 54.5q-12 25 -27.5 47.5t-33.5 42.5q-20 19 -42.5 34.5t-47.5 27.5q-27 11 -54.5 17t-57.5 6t-57 -6t-52 -17q-27 -12 -49.5 -27.5t-41.5 -34.5
q-20 -20 -35.5 -42.5t-25.5 -47.5q-12 -27 -17.5 -54.5t-5.5 -55.5q0 -30 5.5 -58t17.5 -53q10 -27 25.5 -50t35.5 -42q19 -21 41.5 -36.5t49.5 -25.5q25 -12 52 -17.5t57 -5.5t57.5 5.5t54.5 17.5q25 10 47.5 25.5t42.5 36.5q18 19 33.5 42t27.5 50q10 25 16 53t6 58z" />
    <glyph glyph-name="uni24C7" unicode="&#x24c7;" horiz-adv-x="724" 
d="M702 383q0 -36 -7 -68.5t-20 -62.5q-14 -32 -32 -59t-40 -49q-24 -24 -51 -42t-57 -30q-32 -14 -64.5 -20t-66.5 -6q-36 0 -69.5 6t-63.5 20q-32 12 -59.5 30t-50.5 42q-24 22 -42.5 49t-31.5 59q-14 30 -20.5 62.5t-6.5 68.5q0 35 6.5 68t20.5 65q13 30 31.5 57t42.5 51
q23 22 50.5 40.5t59.5 32.5q30 12 63.5 19t69.5 7q34 0 66.5 -7t64.5 -19q30 -14 57 -32.5t51 -40.5q22 -24 40 -51t32 -57q13 -32 20 -65t7 -68zM388 418q14 0 24.5 4.5t18.5 15.5q6 9 10 22t4 28q0 10 -3 20t-9 19q-7 8 -18.5 12.5t-26.5 4.5h-87v-126h87zM501 292v-10.5
t1 -12.5q0 -8 0.5 -16t2.5 -15q1 -9 2.5 -17.5t3.5 -15.5q1 -9 3 -15.5t5 -10.5h-63q-3 3 -5 6.5t-2 7.5q-2 3 -3.5 6.5t-1.5 7.5q-2 3 -3 7t-1 9q-1 3 -1.5 7t-0.5 9l-4 77q-2 9 -4 15.5t-5 12.5q-5 4 -9.5 8t-8.5 7q-6 2 -11.5 3.5t-9.5 2.5h-6h-5t-4 0.5t-3 0.5h-67v-187
h-63v418h161q30 0 51.5 -8.5t35.5 -24.5q12 -18 19 -36t7 -36t-5.5 -33.5t-15.5 -27.5q-11 -14 -26 -22.5t-34 -11.5q18 -3 31 -9.5t21 -16.5q7 -12 11.5 -31.5t6.5 -47.5zM645 386q0 28 -6 55.5t-16 54.5q-12 25 -27.5 47.5t-33.5 42.5q-20 19 -42.5 34.5t-47.5 27.5
q-27 11 -54.5 17t-57.5 6t-57 -6t-52 -17q-27 -12 -49.5 -27.5t-41.5 -34.5q-20 -20 -35.5 -42.5t-25.5 -47.5q-12 -27 -17.5 -54.5t-5.5 -55.5q0 -30 5.5 -58t17.5 -53q10 -27 25.5 -50t35.5 -42q19 -21 41.5 -36.5t49.5 -25.5q25 -12 52 -17.5t57 -5.5t57.5 5.5t54.5 17.5
q25 10 47.5 25.5t42.5 36.5q18 19 33.5 42t27.5 50q10 25 16 53t6 58z" />
    <glyph glyph-name="uni24C8" unicode="&#x24c8;" horiz-adv-x="724" 
d="M702 383q0 -36 -7 -68.5t-20 -62.5q-14 -32 -32 -59t-40 -49q-24 -24 -51 -42t-57 -30q-32 -14 -64.5 -20t-66.5 -6q-36 0 -69.5 6t-63.5 20q-32 12 -59.5 30t-50.5 42q-24 22 -42.5 49t-31.5 59q-14 30 -20.5 62.5t-6.5 68.5q0 35 6.5 68t20.5 65q13 30 31.5 57t42.5 51
q23 22 50.5 40.5t59.5 32.5q30 12 63.5 19t69.5 7q34 0 66.5 -7t64.5 -19q30 -14 57 -32.5t51 -40.5q22 -24 40 -51t32 -57q13 -32 20 -65t7 -68zM290 285q0 -21 5 -34.5t17 -19.5q10 -7 23.5 -10t28.5 -3q16 0 31 3t27 9q11 6 17 18t6 30q0 9 -2.5 16.5t-6.5 13.5
q-6 6 -11 11.5t-11 11.5l-32 20q-4 1 -7 2.5t-6 2.5t-6 2.5t-6 3.5q-6 2 -12 5l-12 6l-12 6t-12 7q-6 3 -12 6.5t-10 8.5q-12 6 -20.5 14t-14.5 19q-8 10 -11 23t-3 28q0 27 9 48t29 37q18 15 41.5 23t53.5 8q31 0 56 -8.5t44 -23.5q18 -17 26 -40.5t7 -54.5h-66
q0 16 -4 29.5t-10 22.5q-8 9 -21 13.5t-32 4.5q-14 0 -26 -3t-22 -7q-12 -6 -17 -16.5t-5 -25.5q0 -10 2 -17.5t7 -13.5q4 -6 9.5 -12t13.5 -10l70 -35l39 -21q9 -6 17 -12.5t16 -12.5q7 -8 13 -16.5t11 -17.5q4 -10 6.5 -20.5t2.5 -22.5q0 -17 -3 -31t-9 -24
q-6 -12 -14.5 -21.5t-18.5 -15.5q-11 -7 -22.5 -11.5t-23.5 -6.5q-14 -3 -27 -4.5t-26 -1.5q-26 -2 -46 1.5t-33 12.5q-15 7 -25 16t-16 20q-7 10 -11 22t-4 24q-2 11 -2 20v17h63v-13zM645 386q0 28 -6 55.5t-16 54.5q-12 25 -27.5 47.5t-33.5 42.5q-20 19 -42.5 34.5
t-47.5 27.5q-27 11 -54.5 17t-57.5 6t-57 -6t-52 -17q-27 -12 -49.5 -27.5t-41.5 -34.5q-20 -20 -35.5 -42.5t-25.5 -47.5q-12 -27 -17.5 -54.5t-5.5 -55.5q0 -30 5.5 -58t17.5 -53q10 -27 25.5 -50t35.5 -42q19 -21 41.5 -36.5t49.5 -25.5q25 -12 52 -17.5t57 -5.5
t57.5 5.5t54.5 17.5q25 10 47.5 25.5t42.5 36.5q18 19 33.5 42t27.5 50q10 25 16 53t6 58z" />
    <glyph glyph-name="uni24C9" unicode="&#x24c9;" horiz-adv-x="724" 
d="M702 383q0 -36 -7 -68.5t-20 -62.5q-14 -32 -32 -59t-40 -49q-24 -24 -51 -42t-57 -30q-32 -14 -64.5 -20t-66.5 -6q-36 0 -69.5 6t-63.5 20q-32 12 -59.5 30t-50.5 42q-24 22 -42.5 49t-31.5 59q-14 30 -20.5 62.5t-6.5 68.5q0 35 6.5 68t20.5 65q13 30 31.5 57t42.5 51
q23 22 50.5 40.5t59.5 32.5q30 12 63.5 19t69.5 7q34 0 66.5 -7t64.5 -19q30 -14 57 -32.5t51 -40.5q22 -24 40 -51t32 -57q13 -32 20 -65t7 -68zM645 386q0 28 -6 55.5t-16 54.5q-12 25 -27.5 47.5t-33.5 42.5q-20 19 -42.5 34.5t-47.5 27.5q-27 11 -54.5 17t-57.5 6
t-57 -6t-52 -17q-27 -12 -49.5 -27.5t-41.5 -34.5q-20 -20 -35.5 -42.5t-25.5 -47.5q-12 -27 -17.5 -54.5t-5.5 -55.5q0 -30 5.5 -58t17.5 -53q10 -27 25.5 -50t35.5 -42q19 -21 41.5 -36.5t49.5 -25.5q25 -12 52 -17.5t57 -5.5t57.5 5.5t54.5 17.5q25 10 47.5 25.5
t42.5 36.5q18 19 33.5 42t27.5 50q10 25 16 53t6 58zM519 520h-120v-365h-63v365h-123v53h306v-53z" />
    <glyph glyph-name="uni24CA" unicode="&#x24ca;" horiz-adv-x="724" 
d="M702 383q0 -36 -7 -68.5t-20 -62.5q-14 -32 -32 -59t-40 -49q-24 -24 -51 -42t-57 -30q-32 -14 -64.5 -20t-66.5 -6q-36 0 -69.5 6t-63.5 20q-32 12 -59.5 30t-50.5 42q-24 22 -42.5 49t-31.5 59q-14 30 -20.5 62.5t-6.5 68.5q0 35 6.5 68t20.5 65q13 30 31.5 57t42.5 51
q23 22 50.5 40.5t59.5 32.5q30 12 63.5 19t69.5 7q34 0 66.5 -7t64.5 -19q30 -14 57 -32.5t51 -40.5q22 -24 40 -51t32 -57q13 -32 20 -65t7 -68zM645 386q0 28 -6 55.5t-16 54.5q-12 25 -27.5 47.5t-33.5 42.5q-20 19 -42.5 34.5t-47.5 27.5q-27 11 -54.5 17t-57.5 6
t-57 -6t-52 -17q-27 -12 -49.5 -27.5t-41.5 -34.5q-20 -20 -35.5 -42.5t-25.5 -47.5q-12 -27 -17.5 -54.5t-5.5 -55.5q0 -30 5.5 -58t17.5 -53q10 -27 25.5 -50t35.5 -42q19 -21 41.5 -36.5t49.5 -25.5q25 -12 52 -17.5t57 -5.5t57.5 5.5t54.5 17.5q25 10 47.5 25.5
t42.5 36.5q18 19 33.5 42t27.5 50q10 25 16 53t6 58zM283 579v-266q0 -33 5.5 -55t17.5 -32q10 -12 25.5 -17t36.5 -5q19 0 34.5 5t27.5 17q10 10 16 32t6 55v266h60v-266q0 -45 -9 -75.5t-26 -48.5q-18 -19 -45.5 -28t-63.5 -9q-38 0 -65.5 9t-45.5 28q-19 18 -28 48.5
t-9 75.5v266h63z" />
    <glyph glyph-name="uni24CB" unicode="&#x24cb;" horiz-adv-x="724" 
d="M702 383q0 -36 -7 -68.5t-20 -62.5q-14 -32 -32 -59t-40 -49q-24 -24 -51 -42t-57 -30q-32 -14 -64.5 -20t-66.5 -6q-36 0 -69.5 6t-63.5 20q-32 12 -59.5 30t-50.5 42q-24 22 -42.5 49t-31.5 59q-14 30 -20.5 62.5t-6.5 68.5q0 35 6.5 68t20.5 65q13 30 31.5 57t42.5 51
q23 22 50.5 40.5t59.5 32.5q30 12 63.5 19t69.5 7q34 0 66.5 -7t64.5 -19q30 -14 57 -32.5t51 -40.5q22 -24 40 -51t32 -57q13 -32 20 -65t7 -68zM645 386q0 28 -6 55.5t-16 54.5q-12 25 -27.5 47.5t-33.5 42.5q-20 19 -42.5 34.5t-47.5 27.5q-27 11 -54.5 17t-57.5 6
t-57 -6t-52 -17q-27 -12 -49.5 -27.5t-41.5 -34.5q-20 -20 -35.5 -42.5t-25.5 -47.5q-12 -27 -17.5 -54.5t-5.5 -55.5q0 -30 5.5 -58t17.5 -53q10 -27 25.5 -50t35.5 -42q19 -21 41.5 -36.5t49.5 -25.5q25 -12 52 -17.5t57 -5.5t57.5 5.5t54.5 17.5q25 10 47.5 25.5
t42.5 36.5q18 19 33.5 42t27.5 50q10 25 16 53t6 58zM473 573h67l-137 -418h-74l-133 418h66l106 -355z" />
    <glyph glyph-name="uni24CC" unicode="&#x24cc;" horiz-adv-x="724" 
d="M702 383q0 -36 -7 -68.5t-20 -62.5q-14 -32 -32 -59t-40 -49q-24 -24 -51 -42t-57 -30q-32 -14 -64.5 -20t-66.5 -6q-36 0 -69.5 6t-63.5 20q-32 12 -59.5 30t-50.5 42q-24 22 -42.5 49t-31.5 59q-14 30 -20.5 62.5t-6.5 68.5q0 35 6.5 68t20.5 65q13 30 31.5 57t42.5 51
q23 22 50.5 40.5t59.5 32.5q30 12 63.5 19t69.5 7q34 0 66.5 -7t64.5 -19q30 -14 57 -32.5t51 -40.5q22 -24 40 -51t32 -57q13 -32 20 -65t7 -68zM297 148h-77l-84 400q-15 -18 -26 -37t-18 -40q-9 -22 -12.5 -43t-3.5 -42q0 -30 5.5 -58t17.5 -53q10 -27 25.5 -50t35.5 -42
q19 -21 41.5 -36.5t49.5 -25.5q25 -12 52 -17.5t57 -5.5t57.5 5.5t54.5 17.5q25 10 47.5 25.5t42.5 36.5q18 19 33.5 42t27.5 50q10 25 16 53t6 58q0 28 -6 55.5t-16 54.5q-12 25 -27.5 47.5t-33.5 42.5q-20 19 -42.5 34.5t-47.5 27.5q-27 11 -54.5 17t-57.5 6
q-36 0 -68.5 -9t-60.5 -25q-30 -18 -53.5 -39.5t-41.5 -46.5h67l59 -326l63 326h74l60 -326l67 326h63l-95 -403h-73l-61 329z" />
    <glyph glyph-name="uni24CD" unicode="&#x24cd;" horiz-adv-x="724" 
d="M702 383q0 -36 -7 -68.5t-20 -62.5q-14 -32 -32 -59t-40 -49q-24 -24 -51 -42t-57 -30q-32 -14 -64.5 -20t-66.5 -6q-36 0 -69.5 6t-63.5 20q-32 12 -59.5 30t-50.5 42q-24 22 -42.5 49t-31.5 59q-14 30 -20.5 62.5t-6.5 68.5q0 35 6.5 68t20.5 65q13 30 31.5 57t42.5 51
q23 22 50.5 40.5t59.5 32.5q30 12 63.5 19t69.5 7q34 0 66.5 -7t64.5 -19q30 -14 57 -32.5t51 -40.5q22 -24 40 -51t32 -57q13 -32 20 -65t7 -68zM462 172l-109 176l-98 -176h-66l133 218l-126 200h70l91 -158l95 158h70l-126 -200l140 -218h-74zM645 386q0 28 -6 55.5
t-16 54.5q-12 25 -27.5 47.5t-33.5 42.5q-20 19 -42.5 34.5t-47.5 27.5q-27 11 -54.5 17t-57.5 6t-57 -6t-52 -17q-27 -12 -49.5 -27.5t-41.5 -34.5q-20 -20 -35.5 -42.5t-25.5 -47.5q-12 -27 -17.5 -54.5t-5.5 -55.5q0 -30 5.5 -58t17.5 -53q10 -27 25.5 -50t35.5 -42
q19 -21 41.5 -36.5t49.5 -25.5q25 -12 52 -17.5t57 -5.5t57.5 5.5t54.5 17.5q25 10 47.5 25.5t42.5 36.5q18 19 33.5 42t27.5 50q10 25 16 53t6 58z" />
    <glyph glyph-name="uni24CE" unicode="&#x24ce;" horiz-adv-x="724" 
d="M702 383q0 -36 -7 -68.5t-20 -62.5q-14 -32 -32 -59t-40 -49q-24 -24 -51 -42t-57 -30q-32 -14 -64.5 -20t-66.5 -6q-36 0 -69.5 6t-63.5 20q-32 12 -59.5 30t-50.5 42q-24 22 -42.5 49t-31.5 59q-14 30 -20.5 62.5t-6.5 68.5q0 35 6.5 68t20.5 65q13 30 31.5 57t42.5 51
q23 22 50.5 40.5t59.5 32.5q30 12 63.5 19t69.5 7q34 0 66.5 -7t64.5 -19q30 -14 57 -32.5t51 -40.5q22 -24 40 -51t32 -57q13 -32 20 -65t7 -68zM522 573l-126 -260v-161h-63v161l-123 260h70l88 -197l91 197h63zM645 386q0 28 -6 55.5t-16 54.5q-12 25 -27.5 47.5
t-33.5 42.5q-20 19 -42.5 34.5t-47.5 27.5q-27 11 -54.5 17t-57.5 6t-57 -6t-52 -17q-27 -12 -49.5 -27.5t-41.5 -34.5q-20 -20 -35.5 -42.5t-25.5 -47.5q-12 -27 -17.5 -54.5t-5.5 -55.5q0 -30 5.5 -58t17.5 -53q10 -27 25.5 -50t35.5 -42q19 -21 41.5 -36.5t49.5 -25.5
q25 -12 52 -17.5t57 -5.5t57.5 5.5t54.5 17.5q25 10 47.5 25.5t42.5 36.5q18 19 33.5 42t27.5 50q10 25 16 53t6 58z" />
    <glyph glyph-name="uni24CF" unicode="&#x24cf;" horiz-adv-x="724" 
d="M702 383q0 -36 -7 -68.5t-20 -62.5q-14 -32 -32 -59t-40 -49q-24 -24 -51 -42t-57 -30q-32 -14 -64.5 -20t-66.5 -6q-36 0 -69.5 6t-63.5 20q-32 12 -59.5 30t-50.5 42q-24 22 -42.5 49t-31.5 59q-14 30 -20.5 62.5t-6.5 68.5q0 35 6.5 68t20.5 65q13 30 31.5 57t42.5 51
q23 22 50.5 40.5t59.5 32.5q30 12 63.5 19t69.5 7q34 0 66.5 -7t64.5 -19q30 -14 57 -32.5t51 -40.5q22 -24 40 -51t32 -57q13 -32 20 -65t7 -68zM224 534v52h277v-52l-221 -312h228v-53h-292v63l218 302h-210zM645 386q0 28 -6 55.5t-16 54.5q-12 25 -27.5 47.5t-33.5 42.5
q-20 19 -42.5 34.5t-47.5 27.5q-27 11 -54.5 17t-57.5 6t-57 -6t-52 -17q-27 -12 -49.5 -27.5t-41.5 -34.5q-20 -20 -35.5 -42.5t-25.5 -47.5q-12 -27 -17.5 -54.5t-5.5 -55.5q0 -30 5.5 -58t17.5 -53q10 -27 25.5 -50t35.5 -42q19 -21 41.5 -36.5t49.5 -25.5
q25 -12 52 -17.5t57 -5.5t57.5 5.5t54.5 17.5q25 10 47.5 25.5t42.5 36.5q18 19 33.5 42t27.5 50q10 25 16 53t6 58z" />
    <glyph glyph-name="uni24D0" unicode="&#x24d0;" 
d="M491 202v23q-15 -14 -36 -20.5t-50 -6.5q-77 0 -127.5 49t-47.5 148t54.5 148.5t123.5 46.5q30 -2 49.5 -10.5t33.5 -19.5v23h142v-381h-142zM428 321q24 0 38.5 10.5t20.5 36.5v2.5v5.5q0 2 0.5 4.5t0.5 4.5q0 42 -17 62t-42 20q-21 1 -40 -16t-19 -56t16.5 -56.5
t41.5 -17.5zM450 843q100 0 178.5 -33t133.5 -91q54 -59 83 -139t29 -174q0 -95 -29 -175t-83 -138q-55 -59 -133.5 -91.5t-178.5 -32.5q-101 0 -179.5 32.5t-133.5 91.5q-54 58 -82.5 138t-28.5 175q0 94 28.5 174t82.5 139q55 58 133.5 91t179.5 33zM450 712
q-67 0 -121 -22.5t-93 -62.5q-38 -40 -59 -96.5t-21 -124.5q0 -69 21 -125.5t59 -96.5q39 -40 93 -62t121 -22q66 0 120 22t93 62q38 40 59.5 96.5t21.5 125.5q0 68 -21.5 124.5t-59.5 96.5q-39 40 -93 62.5t-120 22.5z" />
    <glyph glyph-name="uni24D1" unicode="&#x24d1;" 
d="M498 167q-30 0 -53.5 9t-35.5 23v-27h-142v481q-53 -40 -82 -103.5t-29 -144.5q0 -69 21 -125.5t59 -96.5q39 -40 93 -62t121 -22q66 0 120 22t93 62q38 40 59.5 96.5t21.5 125.5q0 68 -21.5 124.5t-59.5 96.5q-39 40 -93 62.5t-120 22.5q-54 0 -99 -14.5t-81 -40.5h139
v-122q17 10 35.5 17t53.5 8q77 3 124 -51t48 -147q1 -99 -48 -147t-124 -47zM466 290q26 -3 47 13t21 61q0 39 -20 55.5t-41 16.5q-27 0 -43.5 -21.5t-16.5 -60.5q0 -28 15 -45t38 -19zM450 842q100 0 178.5 -33t133.5 -91q54 -59 83 -139t29 -174q0 -95 -29 -175t-83 -138
q-55 -59 -133.5 -91.5t-178.5 -32.5q-101 0 -179.5 32.5t-133.5 91.5q-54 58 -82.5 138t-28.5 175q0 94 28.5 174t82.5 139q55 58 133.5 91t179.5 33z" />
    <glyph glyph-name="uni24D2" unicode="&#x24d2;" 
d="M450 843q100 0 178.5 -33t133.5 -91q54 -59 83 -139t29 -174q0 -95 -29 -175t-83 -138q-55 -59 -133.5 -91.5t-178.5 -32.5q-101 0 -179.5 32.5t-133.5 91.5q-54 58 -82.5 138t-28.5 175q0 94 28.5 174t82.5 139q55 58 133.5 91t179.5 33zM450 712q-67 0 -121 -22.5
t-93 -62.5q-38 -40 -59 -96.5t-21 -124.5q0 -69 21 -125.5t59 -96.5q39 -40 93 -62t121 -22q66 0 120 22t93 62q38 40 59.5 96.5t21.5 125.5q0 68 -21.5 124.5t-59.5 96.5q-39 40 -93 62.5t-120 22.5zM452 477q-27 -1 -48.5 -20.5t-21.5 -54.5q0 -36 20.5 -55t49.5 -19
q23 0 49 7.5t53 28.5l55 -104q-36 -33 -73.5 -46.5t-82.5 -13.5q-93 -1 -153 51t-60 151q0 93 58.5 148t154.5 55q45 0 82.5 -14t73.5 -46l-55 -104q-27 21 -53 28.5t-49 7.5z" />
    <glyph glyph-name="uni24D3" unicode="&#x24d3;" 
d="M403 167q-32 -1 -63.5 10.5t-56.5 36.5q-25 24 -40.5 60.5t-14.5 86.5q1 93 53 147t130 51q24 -2 44.5 -8.5t35.5 -21.5v127h138q-36 26 -81 40.5t-98 14.5q-67 0 -121 -22.5t-93 -62.5q-38 -40 -59 -96.5t-21 -124.5q0 -69 21 -125.5t59 -96.5q39 -40 93 -62t121 -22
q66 0 120 22t93 62q38 40 59.5 96.5t21.5 125.5q0 81 -29.5 144.5t-81.5 104.5v-482h-142v27q-18 -17 -38 -24.5t-50 -7.5zM432 290q26 1 40.5 18.5t14.5 45.5q0 39 -17.5 60.5t-44.5 21.5q-21 0 -38.5 -16.5t-17.5 -55.5q0 -45 18.5 -60.5t44.5 -13.5zM450 842
q100 0 178.5 -33t133.5 -91q54 -59 83 -139t29 -174q0 -95 -29 -175t-83 -138q-55 -59 -133.5 -91.5t-178.5 -32.5q-101 0 -179.5 32.5t-133.5 91.5q-54 58 -82.5 138t-28.5 175q0 94 28.5 174t82.5 139q55 58 133.5 91t179.5 33z" />
    <glyph glyph-name="uni24D4" unicode="&#x24d4;" 
d="M257 390q0 48 14 87t40 68q25 28 60.5 43.5t77.5 15.5q87 0 136 -59t49 -147l-3 -48h-232q0 -11 15.5 -24t39.5 -13q21 0 47.5 5t55.5 28l60 -85q-41 -39 -78.5 -51t-89.5 -12q-37 0 -71.5 11.5t-61.5 35.5t-43 60t-16 85zM503 451q-3 19 -16.5 29.5t-31.5 10.5
q-21 0 -35 -11.5t-14 -28.5h97zM450 842q100 0 178.5 -33t133.5 -91q54 -59 83 -139t29 -174q0 -95 -29 -175t-83 -138q-55 -59 -133.5 -91.5t-178.5 -32.5q-101 0 -179.5 32.5t-133.5 91.5q-54 58 -82.5 138t-28.5 175q0 94 28.5 174t82.5 139q55 58 133.5 91t179.5 33z
M450 711q-67 0 -121 -22.5t-93 -62.5q-38 -40 -59 -96.5t-21 -124.5q0 -69 21 -125.5t59 -96.5q39 -40 93 -62t121 -22q66 0 120 22t93 62q38 40 59.5 96.5t21.5 125.5q0 68 -21.5 124.5t-59.5 96.5q-39 40 -93 62.5t-120 22.5z" />
    <glyph glyph-name="uni24D5" unicode="&#x24d5;" 
d="M314 504h55v49q0 56 24 83t79 27h90v-119h-33q-11 0 -15 -5.5t-4 -11.5v-23h56v-126h-56v-235h-141v235h-55v126zM450 842q100 0 178.5 -33t133.5 -91q54 -59 83 -139t29 -174q0 -95 -29 -175t-83 -138q-55 -59 -133.5 -91.5t-178.5 -32.5q-101 0 -179.5 32.5
t-133.5 91.5q-54 58 -82.5 138t-28.5 175q0 94 28.5 174t82.5 139q55 58 133.5 91t179.5 33zM450 711q-67 0 -121 -22.5t-93 -62.5q-38 -40 -59 -96.5t-21 -124.5q0 -69 21 -125.5t59 -96.5q39 -40 93 -62t121 -22q66 0 120 22t93 62q38 40 59.5 96.5t21.5 125.5
q0 68 -21.5 124.5t-59.5 96.5q-39 40 -93 62.5t-120 22.5z" />
    <glyph glyph-name="uni24D6" unicode="&#x24d6;" 
d="M445 400q28 0 42 17t14 44q0 39 -16.5 56.5t-40.5 19.5q-21 1 -40 -15t-20 -55q-2 -36 16 -52t45 -15zM647 360q0 -52 -14.5 -98t-57.5 -79q-33 -25 -74 -33t-86 -5q-32 1 -74 10.5t-78 24.5l47 109q42 -20 78 -27.5t69 1.5q18 4 31 18t15 33q-21 -18 -44.5 -22t-51.5 -3
q-69 1 -116 41t-44 132q3 100 57 147.5t126 44.5q27 -2 46 -12t27 -20v24h140q-38 30 -87 47.5t-106 17.5q-67 0 -121 -22.5t-93 -62.5q-38 -40 -59 -96.5t-21 -124.5q0 -69 21 -125.5t59 -96.5q39 -40 93 -62t121 -22q66 0 120 22t93 62q38 40 59.5 96.5t21.5 125.5
q0 75 -26 135.5t-71 101.5v-282zM450 842q100 0 178.5 -33t133.5 -91q54 -59 83 -139t29 -174q0 -95 -29 -175t-83 -138q-55 -59 -133.5 -91.5t-178.5 -32.5q-101 0 -179.5 32.5t-133.5 91.5q-54 58 -82.5 138t-28.5 175q0 94 28.5 174t82.5 139q55 58 133.5 91t179.5 33z
" />
    <glyph glyph-name="uni24D7" unicode="&#x24d7;" 
d="M282 172v484h144v-113q-3 -3 1.5 -2.5t13.5 2.5t21.5 4t25.5 4h9q72 0 110.5 -47.5t38.5 -113.5v-218h-144v169q0 51 -9 64t-28 12q-14 -2 -23.5 -6.5t-15.5 -10.5v-228h-144zM450 842q100 0 178.5 -33t133.5 -91q54 -59 83 -139t29 -174q0 -95 -29 -175t-83 -138
q-55 -59 -133.5 -91.5t-178.5 -32.5q-101 0 -179.5 32.5t-133.5 91.5q-54 58 -82.5 138t-28.5 175q0 94 28.5 174t82.5 139q55 58 133.5 91t179.5 33zM450 711q-67 0 -121 -22.5t-93 -62.5q-38 -40 -59 -96.5t-21 -124.5q0 -69 21 -125.5t59 -96.5q39 -40 93 -62t121 -22
q66 0 120 22t93 62q38 40 59.5 96.5t21.5 125.5q0 68 -21.5 124.5t-59.5 96.5q-39 40 -93 62.5t-120 22.5z" />
    <glyph glyph-name="uni24D8" unicode="&#x24d8;" 
d="M379 485h141v-331h-141v331zM520 529h-141v111h141v-111zM450 842q100 0 178.5 -33t133.5 -91q54 -59 83 -139t29 -174q0 -95 -29 -175t-83 -138q-55 -59 -133.5 -91.5t-178.5 -32.5q-101 0 -179.5 32.5t-133.5 91.5q-54 58 -82.5 138t-28.5 175q0 94 28.5 174t82.5 139
q55 58 133.5 91t179.5 33zM450 711q-67 0 -121 -22.5t-93 -62.5q-38 -40 -59 -96.5t-21 -124.5q0 -69 21 -125.5t59 -96.5q39 -40 93 -62t121 -22q66 0 120 22t93 62q38 40 59.5 96.5t21.5 125.5q0 68 -21.5 124.5t-59.5 96.5q-39 40 -93 62.5t-120 22.5z" />
    <glyph glyph-name="uni24D9" unicode="&#x24d9;" 
d="M539 529h-141v111h141v-111zM539 278q0 -54 -16 -88t-53 -50q-31 -13 -67.5 -11.5t-72.5 13.5l6 120q24 -9 35.5 -11t14.5 0q7 3 9.5 12t2.5 30v192h141v-207zM450 842q100 0 178.5 -33t133.5 -91q54 -59 83 -139t29 -174q0 -95 -29 -175t-83 -138q-55 -59 -133.5 -91.5
t-178.5 -32.5q-101 0 -179.5 32.5t-133.5 91.5q-54 58 -82.5 138t-28.5 175q0 94 28.5 174t82.5 139q55 58 133.5 91t179.5 33zM450 711q-67 0 -121 -22.5t-93 -62.5q-38 -40 -59 -96.5t-21 -124.5q0 -69 21 -125.5t59 -96.5q39 -40 93 -62t121 -22q66 0 120 22t93 62
q38 40 59.5 96.5t21.5 125.5q0 68 -21.5 124.5t-59.5 96.5q-39 40 -93 62.5t-120 22.5z" />
    <glyph glyph-name="uni24DA" unicode="&#x24da;" 
d="M418 290v-126h-143v496q-57 -40 -88 -105.5t-31 -149.5q0 -69 21 -125.5t59 -96.5q39 -40 93 -62t121 -22q57 0 106 16.5t87 48.5h-134l-81 137zM291 670h127v-215l73 90h172l-132 -160l132 -202q38 39 59.5 96t21.5 126q0 68 -21.5 124.5t-59.5 96.5q-39 40 -93 62.5
t-120 22.5q-46 0 -86 -11t-73 -30zM450 842q100 0 178.5 -33t133.5 -91q54 -59 83 -139t29 -174q0 -95 -29 -175t-83 -138q-55 -59 -133.5 -91.5t-178.5 -32.5q-101 0 -179.5 32.5t-133.5 91.5q-54 58 -82.5 138t-28.5 175q0 94 28.5 174t82.5 139q55 58 133.5 91t179.5 33z
" />
    <glyph glyph-name="uni24DB" unicode="&#x24db;" 
d="M363 653h174v-487h-174v487zM450 842q100 0 178.5 -33t133.5 -91q54 -59 83 -139t29 -174q0 -95 -29 -175t-83 -138q-55 -59 -133.5 -91.5t-178.5 -32.5q-101 0 -179.5 32.5t-133.5 91.5q-54 58 -82.5 138t-28.5 175q0 94 28.5 174t82.5 139q55 58 133.5 91t179.5 33z
M450 711q-67 0 -121 -22.5t-93 -62.5q-38 -40 -59 -96.5t-21 -124.5q0 -69 21 -125.5t59 -96.5q39 -40 93 -62t121 -22q66 0 120 22t93 62q38 40 59.5 96.5t21.5 125.5q0 68 -21.5 124.5t-59.5 96.5q-39 40 -93 62.5t-120 22.5z" />
    <glyph glyph-name="uni24DC" unicode="&#x24dc;" 
d="M450 842q100 0 178.5 -33t133.5 -91q54 -59 83 -139t29 -174q0 -95 -29 -175t-83 -138q-55 -59 -133.5 -91.5t-178.5 -32.5q-101 0 -179.5 32.5t-133.5 91.5q-54 58 -82.5 138t-28.5 175q0 94 28.5 174t82.5 139q55 58 133.5 91t179.5 33zM450 711q-79 0 -140.5 -31.5
t-99.5 -85.5h125v-23q9 7 16 12.5t15 9.5q8 3 17 5.5t23 4.5h13q30 0 47 -14t27 -35q21 21 43 35t44 14h13q54 0 83 -41.5t29 -110.5v-211q18 34 28.5 75.5t10.5 89.5q0 68 -21.5 124.5t-59.5 96.5q-39 40 -93 62.5t-120 22.5zM200 578q-22 -36 -33 -80t-11 -93
q0 -51 11 -94.5t33 -78.5v346zM212 213q38 -54 99 -84t139 -30q77 0 138 30t99 84h-115v185q0 46 -5.5 58t-14.5 12q-8 0 -16 -4.5t-12 -11.5v-239h-132v176q0 51 -5.5 65t-18.5 14q-8 0 -17 -4.5t-16 -12.5v-238h-123z" />
    <glyph glyph-name="uni24DD" unicode="&#x24dd;" 
d="M264 213v381h144v-27q13 15 39 24t51 11h11q72 0 104 -45.5t32 -114.5v-229h-143v174q0 52 -13 67.5t-32 13.5q-12 -2 -27.5 -9t-21.5 -16v-230h-144zM450 842q100 0 178.5 -33t133.5 -91q54 -59 83 -139t29 -174q0 -95 -29 -175t-83 -138q-55 -59 -133.5 -91.5
t-178.5 -32.5q-101 0 -179.5 32.5t-133.5 91.5q-54 58 -82.5 138t-28.5 175q0 94 28.5 174t82.5 139q55 58 133.5 91t179.5 33zM450 711q-67 0 -121 -22.5t-93 -62.5q-38 -40 -59 -96.5t-21 -124.5q0 -69 21 -125.5t59 -96.5q39 -40 93 -62t121 -22q66 0 120 22t93 62
q38 40 59.5 96.5t21.5 125.5q0 68 -21.5 124.5t-59.5 96.5q-39 40 -93 62.5t-120 22.5z" />
    <glyph glyph-name="uni24DE" unicode="&#x24de;" 
d="M449 329q27 0 47 17t20 56q0 36 -20 54.5t-47 18.5t-46 -18.5t-19 -54.5q0 -39 19 -56t46 -17zM450 203q-45 0 -82.5 14.5t-64.5 40.5t-42 62.5t-15 81.5t16 82t44 63q27 26 64.5 40t79.5 14t79 -14t65 -40q27 -26 43.5 -63t16.5 -82t-15 -81.5t-42 -62.5t-64.5 -40.5
t-82.5 -14.5zM450 842q100 0 178.5 -33t133.5 -91q54 -59 83 -139t29 -174q0 -95 -29 -175t-83 -138q-55 -59 -133.5 -91.5t-178.5 -32.5q-101 0 -179.5 32.5t-133.5 91.5q-54 58 -82.5 138t-28.5 175q0 94 28.5 174t82.5 139q55 58 133.5 91t179.5 33zM450 711
q-67 0 -121 -22.5t-93 -62.5q-38 -40 -59 -96.5t-21 -124.5q0 -69 21 -125.5t59 -96.5q39 -40 93 -62t121 -22q66 0 120 22t93 62q38 40 59.5 96.5t21.5 125.5q0 68 -21.5 124.5t-59.5 96.5q-39 40 -93 62.5t-120 22.5z" />
    <glyph glyph-name="uni24DF" unicode="&#x24df;" 
d="M490 236q-15 0 -29.5 2.5t-25.5 4.5q-11 3 -17 4.5t-4 0.5v-88h-142v462h142v-22q14 12 34.5 21.5t54.5 6.5q28 -3 58.5 -16.5t55.5 -38.5t41 -61.5t17 -83.5q0 -49 -14 -85t-40 -60q-25 -24 -59 -35.5t-72 -11.5zM474 359q25 -2 43.5 13t18.5 60q0 39 -18 55.5t-40 16.5
q-27 0 -43.5 -21.5t-16.5 -60.5q0 -26 15.5 -44t40.5 -19zM450 842q100 0 178.5 -33t133.5 -91q54 -59 83 -139t29 -174q0 -95 -29 -175t-83 -138q-55 -59 -133.5 -91.5t-178.5 -32.5q-101 0 -179.5 32.5t-133.5 91.5q-54 58 -82.5 138t-28.5 175q0 94 28.5 174t82.5 139
q55 58 133.5 91t179.5 33zM450 711q-67 0 -121 -22.5t-93 -62.5q-38 -40 -59 -96.5t-21 -124.5q0 -69 21 -125.5t59 -96.5q39 -40 93 -62t121 -22q66 0 120 22t93 62q38 40 59.5 96.5t21.5 125.5q0 68 -21.5 124.5t-59.5 96.5q-39 40 -93 62.5t-120 22.5z" />
    <glyph glyph-name="uni24E0" unicode="&#x24e0;" 
d="M408 236q-77 0 -127 47t-48 145q1 95 50.5 148t127.5 52q33 -2 51.5 -7.5t33.5 -16.5v18h142v-462q50 40 78 102.5t28 142.5q0 68 -21.5 124.5t-59.5 96.5q-39 40 -93 62.5t-120 22.5q-67 0 -121 -22.5t-93 -62.5q-38 -40 -59 -96.5t-21 -124.5q0 -69 21 -125.5t59 -96.5
q39 -40 93 -62t121 -22q55 0 103 15.5t84 45.5h-141v100q-15 -15 -36.5 -19.5t-51.5 -4.5zM435 359q24 1 40.5 19t16.5 44q0 39 -17.5 60.5t-44.5 21.5q-22 0 -39 -16.5t-17 -55.5q0 -45 17.5 -60t43.5 -13zM450 842q100 0 178.5 -33t133.5 -91q54 -59 83 -139t29 -174
q0 -95 -29 -175t-83 -138q-55 -59 -133.5 -91.5t-178.5 -32.5q-101 0 -179.5 32.5t-133.5 91.5q-54 58 -82.5 138t-28.5 175q0 94 28.5 174t82.5 139q55 58 133.5 91t179.5 33z" />
    <glyph glyph-name="uni24E1" unicode="&#x24e1;" 
d="M642 631v-165h-16q-31 0 -62 -9t-58 -28v-263h-173v460h173v-40q27 21 54.5 31t63.5 14h18zM450 842q100 0 178.5 -33t133.5 -91q54 -59 83 -139t29 -174q0 -95 -29 -175t-83 -138q-55 -59 -133.5 -91.5t-178.5 -32.5q-101 0 -179.5 32.5t-133.5 91.5q-54 58 -82.5 138
t-28.5 175q0 94 28.5 174t82.5 139q55 58 133.5 91t179.5 33zM450 711q-67 0 -121 -22.5t-93 -62.5q-38 -40 -59 -96.5t-21 -124.5q0 -69 21 -125.5t59 -96.5q39 -40 93 -62t121 -22q66 0 120 22t93 62q38 40 59.5 96.5t21.5 125.5q0 68 -21.5 124.5t-59.5 96.5
q-39 40 -93 62.5t-120 22.5z" />
    <glyph glyph-name="uni24E2" unicode="&#x24e2;" 
d="M527 186q-29 -9 -62.5 -8.5t-70.5 6.5q-28 6 -58.5 19.5t-62.5 35.5l55 106q42 -23 74 -35t58 -15q6 -2 8.5 8t-6.5 15q-10 4 -22.5 8t-26.5 9q-15 5 -31.5 11.5t-34.5 17.5q-36 21 -51.5 59t2.5 80q12 34 47.5 66.5t93.5 35.5q45 1 87.5 -14t87.5 -49l-72 -101
q-36 21 -57.5 29t-39.5 10q-11 0 -13 -8t6 -12q8 -5 20.5 -11t27.5 -12q15 -7 30.5 -14.5t30.5 -14.5q39 -20 57.5 -52t13.5 -71q-6 -40 -30.5 -64.5t-60.5 -34.5zM450 842q100 0 178.5 -33t133.5 -91q54 -59 83 -139t29 -174q0 -95 -29 -175t-83 -138q-55 -59 -133.5 -91.5
t-178.5 -32.5q-101 0 -179.5 32.5t-133.5 91.5q-54 58 -82.5 138t-28.5 175q0 94 28.5 174t82.5 139q55 58 133.5 91t179.5 33zM450 711q-67 0 -121 -22.5t-93 -62.5q-38 -40 -59 -96.5t-21 -124.5q0 -69 21 -125.5t59 -96.5q39 -40 93 -62t121 -22q66 0 120 22t93 62
q38 40 59.5 96.5t21.5 125.5q0 68 -21.5 124.5t-59.5 96.5q-39 40 -93 62.5t-120 22.5z" />
    <glyph glyph-name="uni24E3" unicode="&#x24e3;" 
d="M492 311q-2 -22 14 -28.5t45 6.5l19 -122q-33 -17 -76.5 -20.5t-73.5 8.5q-38 16 -54 49.5t-16 82.5v119h-58v126h58v125h142v-125h73v-126h-73v-95zM450 842q100 0 178.5 -33t133.5 -91q54 -59 83 -139t29 -174q0 -95 -29 -175t-83 -138q-55 -59 -133.5 -91.5
t-178.5 -32.5q-101 0 -179.5 32.5t-133.5 91.5q-54 58 -82.5 138t-28.5 175q0 94 28.5 174t82.5 139q55 58 133.5 91t179.5 33zM450 711q-67 0 -121 -22.5t-93 -62.5q-38 -40 -59 -96.5t-21 -124.5q0 -69 21 -125.5t59 -96.5q39 -40 93 -62t121 -22q66 0 120 22t93 62
q38 40 59.5 96.5t21.5 125.5q0 68 -21.5 124.5t-59.5 96.5q-39 40 -93 62.5t-120 22.5z" />
    <glyph glyph-name="uni24E4" unicode="&#x24e4;" 
d="M631 574v-380h-143v22q-21 -15 -49 -23t-53 -8h-10q-48 0 -77.5 33.5t-29.5 95.5v260h143v-181q0 -48 10 -61.5t25 -12.5q12 0 23.5 6.5t17.5 15.5v233h143zM450 842q100 0 178.5 -33t133.5 -91q54 -59 83 -139t29 -174q0 -95 -29 -175t-83 -138q-55 -59 -133.5 -91.5
t-178.5 -32.5q-101 0 -179.5 32.5t-133.5 91.5q-54 58 -82.5 138t-28.5 175q0 94 28.5 174t82.5 139q55 58 133.5 91t179.5 33zM450 711q-67 0 -121 -22.5t-93 -62.5q-38 -40 -59 -96.5t-21 -124.5q0 -69 21 -125.5t59 -96.5q39 -40 93 -62t121 -22q66 0 120 22t93 62
q38 40 59.5 96.5t21.5 125.5q0 68 -21.5 124.5t-59.5 96.5q-39 40 -93 62.5t-120 22.5z" />
    <glyph glyph-name="uni24E5" unicode="&#x24e5;" 
d="M235 561h153l62 -205l62 205h153l-156 -380h-120zM450 842q100 0 178.5 -33t133.5 -91q54 -59 83 -139t29 -174q0 -95 -29 -175t-83 -138q-55 -59 -133.5 -91.5t-178.5 -32.5q-101 0 -179.5 32.5t-133.5 91.5q-54 58 -82.5 138t-28.5 175q0 94 28.5 174t82.5 139
q55 58 133.5 91t179.5 33zM450 711q-67 0 -121 -22.5t-93 -62.5q-38 -40 -59 -96.5t-21 -124.5q0 -69 21 -125.5t59 -96.5q39 -40 93 -62t121 -22q66 0 120 22t93 62q38 40 59.5 96.5t21.5 125.5q0 68 -21.5 124.5t-59.5 96.5q-39 40 -93 62.5t-120 22.5z" />
    <glyph glyph-name="uni24E6" unicode="&#x24e6;" 
d="M450 350l-58 -169h-118l-90 365q-15 -31 -21.5 -66.5t-6.5 -74.5q0 -69 21 -125.5t59 -96.5q39 -40 93 -62t121 -22q66 0 120 22t93 62q38 40 59.5 96.5t21.5 125.5q0 39 -7.5 74.5t-20.5 66.5l-90 -365h-118zM190 561h129l24 -201l47 201h119l48 -201l23 201h129
q-36 69 -103 109.5t-156 40.5q-90 0 -157.5 -40.5t-102.5 -109.5zM450 842q100 0 178.5 -33t133.5 -91q54 -59 83 -139t29 -174q0 -95 -29 -175t-83 -138q-55 -59 -133.5 -91.5t-178.5 -32.5q-101 0 -179.5 32.5t-133.5 91.5q-54 58 -82.5 138t-28.5 175q0 94 28.5 174
t82.5 139q55 58 133.5 91t179.5 33z" />
    <glyph glyph-name="uni24E7" unicode="&#x24e7;" 
d="M230 586h164l51 -84l49 84h162l-122 -190l131 -190h-163l-57 82l-58 -82h-161l129 190zM450 842q100 0 178.5 -33t133.5 -91q54 -59 83 -139t29 -174q0 -95 -29 -175t-83 -138q-55 -59 -133.5 -91.5t-178.5 -32.5q-101 0 -179.5 32.5t-133.5 91.5q-54 58 -82.5 138
t-28.5 175q0 94 28.5 174t82.5 139q55 58 133.5 91t179.5 33zM450 711q-67 0 -121 -22.5t-93 -62.5q-38 -40 -59 -96.5t-21 -124.5q0 -69 21 -125.5t59 -96.5q39 -40 93 -62t121 -22q66 0 120 22t93 62q38 40 59.5 96.5t21.5 125.5q0 68 -21.5 124.5t-59.5 96.5
q-39 40 -93 62.5t-120 22.5z" />
    <glyph glyph-name="uni24E8" unicode="&#x24e8;" 
d="M450 842q100 0 178.5 -33t133.5 -91q54 -59 83 -139t29 -174q0 -95 -29 -175t-83 -138q-55 -59 -133.5 -91.5t-178.5 -32.5q-101 0 -179.5 32.5t-133.5 91.5q-54 58 -82.5 138t-28.5 175q0 94 28.5 174t82.5 139q55 58 133.5 91t179.5 33zM450 711q-67 0 -121 -22.5
t-93 -62.5q-38 -40 -59 -96.5t-21 -124.5q0 -69 21 -125.5t59 -96.5q39 -40 93 -62t121 -22q66 0 120 22t93 62q38 40 59.5 96.5t21.5 125.5q0 68 -21.5 124.5t-59.5 96.5q-39 40 -93 62.5t-120 22.5zM381 275l-146 286h161l58 -123l51 123h159l-196 -439l-140 40z" />
    <glyph glyph-name="uni24E9" unicode="&#x24e9;" 
d="M469 205h-176v62l117 194h-112v125h305v-52l-122 -203h24q25 0 45.5 0.5t55.5 5.5v-123q-16 -4 -33.5 -6t-35.5 -3h-35.5h-32.5zM450 842q100 0 178.5 -33t133.5 -91q54 -59 83 -139t29 -174q0 -95 -29 -175t-83 -138q-55 -59 -133.5 -91.5t-178.5 -32.5
q-101 0 -179.5 32.5t-133.5 91.5q-54 58 -82.5 138t-28.5 175q0 94 28.5 174t82.5 139q55 58 133.5 91t179.5 33zM450 711q-67 0 -121 -22.5t-93 -62.5q-38 -40 -59 -96.5t-21 -124.5q0 -69 21 -125.5t59 -96.5q39 -40 93 -62t121 -22q66 0 120 22t93 62q38 40 59.5 96.5
t21.5 125.5q0 68 -21.5 124.5t-59.5 96.5q-39 40 -93 62.5t-120 22.5z" />
    <glyph glyph-name="SF100000" unicode="&#x2500;" 
d="M0 429h900v-140h-900v140z" />
    <glyph glyph-name="uni2501" unicode="&#x2501;" 
d="M0 469h900v-220h-900v220z" />
    <glyph glyph-name="SF110000" unicode="&#x2502;" 
d="M380 855h140v-1000h-140v1000z" />
    <glyph glyph-name="uni2503" unicode="&#x2503;" 
d="M340 855h220v-1000h-220v1000z" />
    <glyph glyph-name="SF010000" unicode="&#x250c;" 
d="M380 429h520v-140h-380v-434h-140v574z" />
    <glyph glyph-name="uni250D" unicode="&#x250d;" 
d="M380 469h520v-220h-380v-394h-140v614z" />
    <glyph glyph-name="uni250E" unicode="&#x250e;" 
d="M340 429h560v-140h-340v-434h-220v574z" />
    <glyph glyph-name="uni250F" unicode="&#x250f;" 
d="M340 469h560v-220h-340v-394h-220v614z" />
    <glyph glyph-name="SF030000" unicode="&#x2510;" 
d="M520 429v-574h-140v434h-380v140h520z" />
    <glyph glyph-name="uni2511" unicode="&#x2511;" 
d="M520 469v-614h-140v394h-380v220h520z" />
    <glyph glyph-name="uni2512" unicode="&#x2512;" 
d="M560 429v-574h-220v434h-340v140h560z" />
    <glyph glyph-name="uni2513" unicode="&#x2513;" 
d="M560 469v-614h-220v394h-340v220h560z" />
    <glyph glyph-name="SF020000" unicode="&#x2514;" 
d="M380 289v566h140v-426h380v-140h-520z" />
    <glyph glyph-name="uni2515" unicode="&#x2515;" 
d="M380 249v606h140v-386h380v-220h-520z" />
    <glyph glyph-name="uni2516" unicode="&#x2516;" 
d="M340 289v566h220v-426h340v-140h-560z" />
    <glyph glyph-name="uni2517" unicode="&#x2517;" 
d="M340 249v606h220v-386h340v-220h-560z" />
    <glyph glyph-name="SF040000" unicode="&#x2518;" 
d="M520 289h-520v140h380v426h140v-566z" />
    <glyph glyph-name="uni2519" unicode="&#x2519;" 
d="M520 249h-520v220h380v386h140v-606z" />
    <glyph glyph-name="uni251A" unicode="&#x251a;" 
d="M560 289h-560v140h340v426h220v-566z" />
    <glyph glyph-name="uni251B" unicode="&#x251b;" 
d="M560 249h-560v220h340v386h220v-606z" />
    <glyph glyph-name="SF080000" unicode="&#x251c;" 
d="M380 855h140v-426h380v-140h-380v-434h-140v1000z" />
    <glyph glyph-name="uni251D" unicode="&#x251d;" 
d="M380 855h140v-386h380v-220h-380v-394h-140v1000z" />
    <glyph glyph-name="uni251E" unicode="&#x251e;" 
d="M340 855h220v-426h340v-140h-380v-434h-140v454h-40v546z" />
    <glyph glyph-name="uni251F" unicode="&#x251f;" 
d="M340 -145v554h40v446h140v-426h380v-140h-340v-434h-220z" />
    <glyph glyph-name="uni2520" unicode="&#x2520;" 
d="M340 855h220v-426h340v-140h-340v-434h-220v1000z" />
    <glyph glyph-name="uni2521" unicode="&#x2521;" 
d="M340 855h220v-406h340v-180h-380v-414h-140v454h-40v546z" />
    <glyph glyph-name="uni2522" unicode="&#x2522;" 
d="M340 -145v554h40v446h140v-406h380v-180h-340v-414h-220z" />
    <glyph glyph-name="uni2523" unicode="&#x2523;" 
d="M340 855h220v-386h340v-220h-340v-394h-220v1000z" />
    <glyph glyph-name="SF090000" unicode="&#x2524;" 
d="M520 855v-1000h-140v434h-380v140h380v426h140z" />
    <glyph glyph-name="uni2525" unicode="&#x2525;" 
d="M520 -145h-140v394h-380v220h380v386h140v-1000z" />
    <glyph glyph-name="uni2526" unicode="&#x2526;" 
d="M560 855v-546h-40v-454h-140v434h-380v140h340v426h220z" />
    <glyph glyph-name="uni2527" unicode="&#x2527;" 
d="M560 -145h-220v434h-340v140h380v426h140v-446h40v-554z" />
    <glyph glyph-name="uni2528" unicode="&#x2528;" 
d="M340 289h-340v140h340v426h220v-1000h-220v434z" />
    <glyph glyph-name="uni2529" unicode="&#x2529;" 
d="M560 855v-546h-40v-454h-140v414h-380v180h340v406h220z" />
    <glyph glyph-name="uni252A" unicode="&#x252a;" 
d="M560 -145h-220v414h-340v180h380v406h140v-446h40v-554z" />
    <glyph glyph-name="uni252B" unicode="&#x252b;" 
d="M560 855v-1000h-220v394h-340v220h340v386h220z" />
    <glyph glyph-name="SF060000" unicode="&#x252c;" 
d="M520 289v-434h-140v434h-380v140h900v-140h-380z" />
    <glyph glyph-name="uni252D" unicode="&#x252d;" 
d="M520 289v-434h-140v394h-380v220h500v-40h400v-140h-380z" />
    <glyph glyph-name="uni252E" unicode="&#x252e;" 
d="M380 289h-380v140h400v40h500v-220h-380v-394h-140v434z" />
    <glyph glyph-name="uni252F" unicode="&#x252f;" 
d="M520 249v-394h-140v394h-380v220h900v-220h-380z" />
    <glyph glyph-name="uni2530" unicode="&#x2530;" 
d="M900 429v-140h-340v-434h-220v434h-340v140h900z" />
    <glyph glyph-name="uni2531" unicode="&#x2531;" 
d="M540 289v-434h-180v394h-360v220h500v-40h400v-140h-360z" />
    <glyph glyph-name="uni2532" unicode="&#x2532;" 
d="M360 289h-360v140h400v40h500v-220h-360v-394h-180v434z" />
    <glyph glyph-name="uni2533" unicode="&#x2533;" 
d="M560 249v-394h-220v394h-340v220h900v-220h-340z" />
    <glyph glyph-name="SF070000" unicode="&#x2534;" 
d="M520 429h380v-140h-900v140h380v426h140v-426z" />
    <glyph glyph-name="uni2535" unicode="&#x2535;" 
d="M520 429h380v-140h-400v-40h-500v220h380v386h140v-426z" />
    <glyph glyph-name="uni2536" unicode="&#x2536;" 
d="M380 429v426h140v-386h380v-220h-500v40h-400v140h380z" />
    <glyph glyph-name="uni2537" unicode="&#x2537;" 
d="M380 469v386h140v-386h380v-220h-900v220h380z" />
    <glyph glyph-name="uni2538" unicode="&#x2538;" 
d="M1 289v140h339v426h220v-426h340v-140h-899z" />
    </font>
</defs>
</svg>
